<?xml version="1.0" encoding="UTF-8"?>
<svg width="90px" height="107px" viewBox="0 0 90 107" version="1.1" xmlns="http://www.w3.org/2000/svg" xmlns:xlink="http://www.w3.org/1999/xlink">
    <!-- Generator: Sketch 52.5 (67469) - http://www.bohemiancoding.com/sketch -->
    <title>africa</title>
    <desc>Created with Sketch.</desc>
    <g id="Page-1" stroke="none" stroke-width="1" fill="none" fill-rule="evenodd">
        <g id="continents2" transform="translate(-210.000000, -109.000000)" fill="#FFFFFF">
            <g id="africa" transform="translate(255.079790, 162.138625) scale(-1, 1) rotate(-180.000000) translate(-255.079790, -162.138625) translate(210.636730, 109.129250)">
                <path d="M34.231334,105.696453 C33.654592,105.374156 32.806442,105.34023 32.382367,105.611638 C32.280589,105.67949 32.127922,105.628601 32.06007,105.526823 C31.975255,105.374156 31.822588,105.374156 31.466365,105.543786 C31.093179,105.713416 30.974438,105.713416 30.906586,105.543786 C30.87266,105.442008 30.719993,105.34023 30.550363,105.34023 C30.397696,105.34023 30.160214,105.238452 30.058436,105.136674 C29.888806,104.967044 29.770065,104.967044 29.51562,105.136674 C29.057619,105.408082 28.582655,105.391119 26.29265,105.017933 C24.375831,104.695636 23.23931,104.305487 23.23931,103.949264 C23.23931,103.864449 23.120569,103.81356 22.984865,103.864449 C22.849161,103.932301 22.696494,103.898375 22.645605,103.81356 C22.577753,103.711782 22.425086,103.64393 22.289382,103.64393 C22.153678,103.64393 21.848344,103.457337 21.610862,103.219855 C21.37338,102.982373 21.101972,102.79578 20.983231,102.778817 C20.559156,102.744891 19.931525,102.829706 19.795821,102.948447 C19.727969,103.016299 19.236042,103.016299 18.693226,102.948447 C17.624557,102.79578 16.996926,103.050225 16.844259,103.660893 C16.742481,104.000153 16.504999,104.068005 16.182702,103.847486 C16.080924,103.779634 15.809516,103.30467 15.588997,102.79578 C15.012255,101.421777 14.622106,100.963776 13.5704,100.471849 C12.55262,99.979922 11.53484,99.080883 11.53484,98.656808 C11.53484,98.504141 11.36521,98.130955 11.161654,97.859547 C10.85632,97.452435 10.771505,97.113175 10.771505,96.265025 C10.771505,95.620431 10.68669,95.094578 10.567949,94.975837 C10.449208,94.857096 10.34743,94.670503 10.34743,94.568725 C10.34743,94.48391 10.076022,94.161613 9.736762,93.890205 C9.397502,93.601834 8.973427,93.245611 8.786834,93.075981 C8.396685,92.719758 7.429794,92.27872 7.039645,92.27872 C6.666459,92.27872 6.428977,92.007312 5.987939,91.057384 C5.76742,90.599383 5.529938,90.24316 5.462086,90.24316 C5.004085,90.24316 4.07112,88.852194 4.07112,88.156711 C4.07112,87.749599 3.630082,87.071079 2.951562,86.426485 C2.748006,86.239892 2.408746,85.629224 2.188227,85.069445 C1.984671,84.509666 1.679337,83.949887 1.509707,83.848109 C1.35704,83.729368 1.170447,83.356182 1.102595,82.999959 C1.051706,82.643736 0.949928,82.168772 0.899039,81.948253 C0.831187,81.659882 0.865113,81.575067 1.034743,81.625956 C1.153484,81.659882 1.441855,81.507215 1.645411,81.286696 C2.03556,80.862621 2.154301,80.40462 1.882893,80.40462 C1.594522,80.40462 1.509707,79.55647 1.781115,79.166321 C2.137338,78.657431 2.103412,77.198613 1.6963,76.16387 C1.509707,75.688906 1.35704,75.112164 1.35704,74.857719 C1.35704,74.348829 0.525853,72.9409 0.220519,72.9409 C0.101778,72.9409 0,72.873048 0,72.77127 C0,72.686455 0.118741,72.60164 0.254445,72.60164 C0.407112,72.60164 0.593705,72.398084 0.695483,72.143639 C0.797261,71.872231 0.949928,71.532971 1.034743,71.380304 C1.119558,71.210674 1.119558,71.058007 1.01778,70.990155 C0.916002,70.939266 0.84815,70.532154 0.84815,70.091116 C0.865113,69.429559 0.949928,69.20904 1.35704,68.801928 C1.916819,68.259112 2.018597,67.970741 1.594522,68.140371 C1.374003,68.225186 1.340077,68.174297 1.441855,67.835037 C1.628448,67.241332 1.747189,67.17348 2.120375,67.461851 C2.357857,67.648444 2.391783,67.750222 2.256079,67.801111 C2.001634,67.885926 1.950745,68.36089 2.188227,68.36089 C2.273042,68.36089 2.425709,68.140371 2.527487,67.852 C2.612302,67.580592 2.781932,67.34311 2.866747,67.34311 C2.968525,67.34311 3.05334,67.224369 3.05334,67.088665 C3.05334,66.952961 3.172081,66.83422 3.307785,66.83422 C3.443489,66.83422 3.56223,66.783331 3.56223,66.698516 C3.56223,66.630664 3.952379,66.172663 4.41038,65.663773 C4.953196,65.070068 5.25853,64.595104 5.275493,64.306733 C5.292456,63.594287 5.394234,63.221101 5.614753,63.10236 C5.716531,63.034508 5.750457,62.881841 5.699568,62.780063 C5.631716,62.678285 5.648679,62.59347 5.750457,62.59347 C5.852235,62.59347 5.886161,62.491692 5.852235,62.389914 C5.801346,62.25421 6.055791,62.050654 6.479866,61.864061 C7.192312,61.57569 7.786017,61.100726 9.821577,59.268722 C11.8741,57.419755 12.38299,57.267088 13.926623,58.01346 C15.555071,58.793758 18.116484,58.86161 19.541376,58.166127 C19.727969,58.081312 20.01634,58.115238 20.304711,58.267905 C21.865307,59.048203 23.035754,59.54013 23.375014,59.54013 C23.57857,59.54013 23.799089,59.658871 23.849978,59.777612 C23.968719,60.099909 25.342722,60.38828 26.920281,60.422206 C27.921098,60.456132 28.192506,60.405243 28.49784,60.133835 C28.921915,59.743686 29.51562,58.658054 29.51562,58.284868 C29.51562,58.149164 29.68525,57.860793 29.905769,57.6742 C30.19414,57.385829 30.414659,57.33494 30.87266,57.419755 C31.194957,57.470644 31.771699,57.555459 32.144885,57.589385 C32.518071,57.640274 33.060887,57.691163 33.366221,57.725089 C33.807259,57.792941 33.926,57.725089 33.993852,57.402792 C34.044741,57.199236 34.248297,56.961754 34.43489,56.910865 C34.621483,56.859976 34.77415,56.707309 34.77415,56.588568 C34.77415,56.452864 34.875928,56.266271 35.011632,56.164493 C35.333929,55.893085 35.181262,54.247674 34.757187,53.399524 C34.536668,52.975449 34.502742,52.75493 34.638446,52.721004 C34.757187,52.670115 34.791113,52.534411 34.689335,52.313892 C34.621483,52.144262 34.519705,51.652335 34.485779,51.22826 C34.400964,50.498851 34.180445,50.142628 33.892074,50.312258 C33.671555,50.447962 33.739407,49.972998 33.993852,49.430182 C34.129556,49.158774 34.367038,48.632921 34.536668,48.259735 C34.706298,47.886549 35.130373,47.309807 35.45267,46.98751 C36.657043,45.817063 38.16675,43.577947 38.16675,42.950316 C38.16675,42.74676 38.251565,42.543204 38.33638,42.492315 C38.438158,42.424463 38.472084,42.322685 38.421195,42.23787 C38.370306,42.153055 38.50601,41.678091 38.743492,41.186164 C38.964011,40.694237 39.286308,39.880013 39.472901,39.388086 C39.778235,38.50601 39.778235,38.472084 39.455938,38.251565 C39.150604,38.014083 39.150604,37.963194 39.69342,36.606154 C40.066606,35.656226 40.236236,34.94378 40.219273,34.43489 C40.185347,33.552814 39.913939,32.73859 39.625568,32.73859 C39.303271,32.721627 38.522973,31.313698 38.404232,30.516437 C38.268528,29.498657 37.82749,27.98895 37.691786,27.98895 C37.471267,27.98895 37.573045,24.867758 37.810527,24.307979 C37.929268,24.002645 38.098898,23.7482 38.149787,23.7482 C38.319417,23.7482 39.048826,22.238493 39.778235,20.440415 C39.930902,20.067229 40.253199,19.422635 40.507644,18.99856 C40.863867,18.387892 40.965645,17.997743 40.982608,17.047815 C40.999571,16.403221 41.084386,15.487219 41.186164,15.012255 C41.287942,14.554254 41.491498,13.485585 41.644165,12.654398 C41.966462,10.907209 42.203944,10.364393 43.08602,9.397502 C43.493132,8.956464 43.849355,8.294907 44.1038,7.531572 C44.510912,6.27631 45.070691,5.054974 45.308173,4.902307 C45.392988,4.851418 45.511729,4.461269 45.562618,4.020231 C45.664396,3.358674 45.63047,3.22297 45.409951,3.22297 C45.274247,3.22297 45.12158,3.121192 45.070691,3.019414 C45.002839,2.781932 45.274247,2.20519 45.528692,2.018597 C45.613507,1.950745 45.647433,1.713263 45.596544,1.475781 C45.477803,0.899039 45.732248,0.491927 45.96973,0.84815 C46.071508,1.01778 46.13936,1.034743 46.13936,0.899039 C46.13936,0.780298 46.241138,0.67852 46.359879,0.67852 C46.495583,0.67852 46.733065,0.525853 46.902695,0.33926 C47.275881,-0.084815 47.615141,-0.084815 48.039216,0.288371 C48.242772,0.474964 48.615958,0.576742 49.056996,0.559779 C49.447145,0.542816 49.922109,0.644594 50.159591,0.797261 C50.651518,1.119558 51.872854,1.204373 52.805819,0.983854 C53.246857,0.882076 53.535228,0.882076 53.687895,1.01778 C53.823599,1.119558 54.095007,1.18741 54.315526,1.153484 C54.536045,1.119558 54.688712,1.18741 54.671749,1.289188 C54.654786,1.407929 54.96012,1.52667 55.367232,1.560596 C56.266271,1.662374 57.979534,2.781932 58.946425,3.867564 C59.133018,4.088083 59.574056,4.546084 59.947242,4.885344 C60.574873,5.496012 61.74532,7.158386 61.74532,7.446757 C61.74532,7.667276 62.881841,8.82076 63.10236,8.82076 C63.288953,8.82076 63.594287,9.448391 64.018362,10.771505 C64.323696,11.721433 64.391548,12.976695 64.12014,12.807065 C63.814806,12.620472 63.95051,13.027584 64.340659,13.485585 C64.544215,13.723067 65.256661,14.130179 65.901255,14.401587 C66.766368,14.740847 67.190443,15.029218 67.478814,15.43633 C67.716296,15.792553 67.801111,16.063961 67.699333,16.165739 C67.597555,16.267517 67.597555,16.488036 67.716296,16.776407 C67.936815,17.319223 67.902889,18.676263 67.68237,18.896782 C67.580592,18.99856 67.51274,19.151227 67.51274,19.236042 C67.51274,19.33782 67.597555,19.303894 67.68237,19.16819 C67.818074,18.964634 67.852,18.981597 67.852,19.303894 C67.852,19.50745 67.767185,19.660117 67.648444,19.643154 C67.529703,19.609228 67.444888,19.829747 67.427925,20.18597 C67.410962,20.508267 67.309184,20.796638 67.190443,20.830564 C67.088665,20.86449 67.00385,21.068046 67.00385,21.271602 C67.00385,21.71264 68.53052,23.40894 68.937632,23.40894 C69.090299,23.40894 69.20904,23.476792 69.20904,23.544644 C69.20904,23.612496 69.344744,23.866941 69.514374,24.08746 C70.125042,24.918647 70.752673,25.410574 71.702601,25.800723 C72.245417,26.004279 72.720381,26.241761 72.77127,26.29265 C72.822159,26.360502 72.974826,26.479243 73.127493,26.564058 C73.568531,26.80154 74.705052,28.345173 74.942534,29.040656 C75.112164,29.532583 75.112164,29.837917 74.97646,30.397696 C74.857719,30.804808 74.789867,32.077033 74.80683,33.332295 C74.857719,36.165116 74.874682,36.046375 74.416681,36.249931 C74.094384,36.402598 73.941717,36.690969 73.738161,37.606971 C73.364975,39.082752 73.381938,39.303271 73.78905,39.405049 C73.975643,39.455938 74.12831,39.591642 74.12831,39.69342 C74.12831,39.812161 74.009569,39.86305 73.873865,39.795198 C73.534605,39.676457 73.331049,40.151421 73.568531,40.524607 C73.704235,40.745126 73.636383,40.948682 73.263197,41.406683 C72.991789,41.712017 72.77127,42.102166 72.77127,42.23787 C72.77127,42.594093 73.331049,44.171652 73.500679,44.290393 C73.670309,44.409134 74.450607,46.207212 74.586311,46.783954 C74.6372,46.98751 74.840756,47.241955 75.027349,47.343733 C75.553202,47.632104 76.435278,48.582032 76.774538,49.209663 C77.503947,50.651518 79.793952,53.111153 81.184918,53.993229 C82.10092,54.569971 84.798037,57.521533 84.815,57.962571 C84.815,58.030423 85.086408,58.52235 85.408705,59.03124 C85.731002,59.54013 86.00241,60.082946 86.00241,60.252576 C86.00241,60.591836 87.037153,62.813989 87.240709,62.898804 C87.308561,62.93273 87.35945,63.034508 87.35945,63.136286 C87.35945,63.221101 87.546043,63.679102 87.783525,64.154066 C88.021007,64.612067 88.2076,65.256661 88.2076,65.595921 C88.2076,66.036959 88.292415,66.206589 88.54686,66.274441 C88.903083,66.376219 89.004861,66.596738 88.71649,66.698516 C88.563823,66.749405 88.479008,67.648444 88.580786,68.259112 C88.665601,68.734076 87.953155,68.937632 87.579969,68.547483 C87.206783,68.174297 85.747965,67.665407 85.391742,67.801111 C85.256038,67.852 84.950704,67.801111 84.730185,67.68237 C84.509666,67.563629 84.153443,67.51274 83.949887,67.563629 C83.729368,67.631481 83.407071,67.529703 83.1187,67.309184 C82.77944,67.071702 82.474106,66.986887 82.083957,67.037776 C81.710771,67.088665 81.337585,67.020813 80.998325,66.817257 C80.116249,66.274441 79.471655,66.49496 78.793135,67.563629 C78.623505,67.818074 78.318171,68.072519 78.080689,68.123408 L77.673577,68.225186 L78.063726,68.428742 C78.70832,68.751039 78.640468,69.242966 77.826244,70.091116 C77.419132,70.515191 76.978094,71.024081 76.84239,71.227637 C76.706686,71.41423 76.520093,71.58386 76.418315,71.58386 C76.3335,71.58386 76.112981,71.821342 75.960314,72.09275 C75.790684,72.381121 75.536239,72.652529 75.366609,72.720381 C75.196979,72.788233 74.959497,72.9409 74.840756,73.059641 C74.722015,73.161419 74.518459,73.229271 74.399718,73.178382 C74.247051,73.127493 74.145273,73.246234 74.094384,73.517642 C74.026532,73.822976 74.077421,73.95868 74.247051,73.95868 C74.450607,73.95868 74.450607,73.992606 74.230088,74.213125 C73.907791,74.552385 73.839939,74.535422 73.721198,74.094384 C73.61942,73.704235 73.602457,73.704235 73.364975,74.043495 C73.212308,74.230088 73.025715,74.688089 72.9409,75.061275 C72.465936,77.01202 72.228454,77.503947 71.397267,78.148541 C70.447339,78.894913 70.209857,79.437729 70.158968,81.08314 C70.125042,81.727734 70.006301,82.372328 69.904523,82.508032 C69.785782,82.660699 69.667041,82.966033 69.650078,83.203515 C69.650078,83.440997 69.599189,83.62759 69.5483,83.62759 C69.497411,83.62759 69.141188,83.915961 68.734076,84.272184 C67.936815,84.98463 67.461851,86.17204 67.987704,86.17204 C68.174297,86.17204 68.123408,86.290781 67.801111,86.579152 C67.563629,86.799671 67.156517,87.427302 66.868146,87.970118 C66.596738,88.529897 66.206589,89.259306 66.003033,89.615529 C65.81644,89.971752 65.64681,90.344938 65.64681,90.463679 C65.64681,90.58242 65.511106,90.870791 65.358439,91.09131 C65.188809,91.328792 65.036142,91.651089 65.019179,91.820719 C64.985253,92.007312 64.696882,92.44835 64.374585,92.838499 C64.052288,93.211685 63.78088,93.703612 63.78088,93.907168 C63.78088,94.127687 63.713028,94.331243 63.628213,94.399095 C63.526435,94.449984 63.407694,95.026726 63.339842,95.67132 C63.288953,96.315914 63.136286,96.977471 63.017545,97.147101 C62.576507,97.740806 60.55791,97.53725 59.811538,96.824804 C59.607982,96.638211 59.319611,96.536433 59.116055,96.587322 C58.929462,96.621248 58.437535,96.756952 58.01346,96.841767 C57.589385,96.943545 57.097458,97.096212 56.910865,97.181027 C56.300197,97.452435 55.163676,97.672954 54.739601,97.588139 C54.417304,97.520287 54.2816,97.588139 54.196785,97.859547 C54.11197,98.130955 53.94234,98.21577 53.552191,98.21577 C52.636189,98.21577 51.788039,98.538067 51.686261,98.89429 C51.635372,99.097846 51.448779,99.23355 51.262186,99.23355 C51.05863,99.23355 50.855074,99.318365 50.804185,99.40318 C50.54974,99.810292 48.938255,99.437106 48.17492,98.792512 C47.649067,98.334511 47.4964,97.571176 47.818697,97.045323 C48.090105,96.604285 47.411585,95.688283 46.800917,95.67132 C46.665213,95.67132 46.241138,95.891839 45.867952,96.146284 C45.172469,96.655174 44.1038,97.02836 43.408317,97.02836 C42.814612,97.02836 42.288759,97.452435 42.153055,98.063103 C42.06824,98.402363 41.881647,98.639845 41.593276,98.758586 C41.338831,98.860364 40.914756,99.046957 40.643348,99.199624 C40.338014,99.352291 39.761272,99.454069 39.252382,99.437106 C38.692603,99.420143 38.132824,99.538884 37.674823,99.74244 C36.996303,100.0817 36.538302,100.607553 36.758821,100.828072 C36.80971,100.878961 36.741858,100.92985 36.589191,100.92985 C36.436524,100.92985 36.30082,100.861998 36.30082,100.76022 C36.30082,100.471849 35.808893,100.573627 35.6223,100.912887 C35.486596,101.184295 35.554448,101.319999 35.96156,101.676222 C36.249931,101.913704 36.589191,102.066371 36.724895,102.015482 C36.860599,101.94763 36.97934,101.998519 36.97934,102.11726 C36.97934,102.219038 36.894525,102.252964 36.80971,102.202075 C36.690969,102.134223 36.674006,102.320816 36.741858,102.761854 C36.826673,103.338596 36.792747,103.4743 36.487413,103.626967 C36.063338,103.864449 36.029412,104.237635 36.402598,104.610821 C36.538302,104.763488 36.623117,104.984007 36.572228,105.119711 C36.521339,105.255415 36.555265,105.306304 36.64008,105.255415 C36.741858,105.204526 36.80971,105.221489 36.80971,105.306304 C36.80971,105.628601 36.572228,105.662527 36.266894,105.391119 C35.96156,105.119711 35.944597,105.119711 35.859782,105.458971 C35.774967,105.747342 35.367855,106.001787 34.94378,106.01875 C34.892891,106.01875 34.570594,105.866083 34.231334,105.696453 Z M66.596738,50.922926 C66.732442,50.736333 66.749405,50.566703 66.630664,50.430999 C66.545849,50.312258 66.511923,50.159591 66.562812,50.074776 C66.66459,49.888183 66.308367,49.02307 66.121774,49.02307 C66.036959,49.02307 65.98607,48.938255 65.98607,48.836477 C65.98607,48.717736 65.850366,48.531143 65.697699,48.412402 C65.409328,48.191883 65.409328,48.157957 65.697699,47.937438 C66.121774,47.598178 65.867329,47.4964 64.96829,47.66603 C64.510289,47.750845 64.12014,47.733882 64.001399,47.649067 C63.679102,47.377659 63.594287,47.750845 63.696065,48.972181 C63.865695,50.787222 63.882658,50.838111 64.578141,51.05863 C64.934364,51.177371 65.290587,51.330038 65.375402,51.39789 C65.561995,51.584483 66.32533,51.296112 66.596738,50.922926 Z M60.72754,44.409134 C60.72754,44.154689 60.812355,43.900244 60.914133,43.849355 C61.015911,43.781503 61.049837,43.611873 60.998948,43.476169 C60.948059,43.340465 60.981985,43.069057 61.083763,42.865501 C61.23643,42.594093 61.23643,42.492315 61.083763,42.441426 C60.744503,42.322685 60.880207,41.72898 61.304282,41.576313 C61.711394,41.406683 61.91495,41.067423 61.91495,40.524607 C61.91495,40.338014 62.101543,39.812161 62.339025,39.35416 C62.864878,38.319417 62.864878,38.302454 62.339025,38.539936 C62.067617,38.658677 61.931913,38.828307 61.999765,38.980974 C62.050654,39.099715 61.965839,39.371123 61.830135,39.574679 C61.694431,39.778235 61.57569,40.049643 61.57569,40.168384 C61.57569,40.304088 61.355171,40.677274 61.0668,40.999571 C60.795392,41.304905 60.540947,41.695054 60.523984,41.864684 C60.523984,42.017351 60.490058,42.390537 60.456132,42.661945 C60.422206,42.950316 60.371317,43.781503 60.337391,44.527875 C60.286502,45.749211 60.303465,45.834026 60.490058,45.376025 C60.608799,45.104617 60.710577,44.663579 60.72754,44.409134 Z M66.83422,36.64008 C66.935998,36.453487 67.037776,35.944597 67.071702,35.537485 C67.088665,35.11341 67.207406,34.672372 67.309184,34.570594 C67.563629,34.316149 67.580592,33.637629 67.34311,33.501925 C67.105628,33.349258 67.241332,30.991401 67.495777,30.906586 C67.597555,30.87266 67.68237,30.770882 67.68237,30.686067 C67.68237,30.584289 67.614518,30.567326 67.51274,30.618215 C67.427925,30.669104 67.34311,30.635178 67.34311,30.550363 C67.34311,30.448585 67.258295,30.36377 67.156517,30.36377 C67.054739,30.36377 67.020813,30.516437 67.088665,30.70303 C67.156517,30.906586 67.122591,31.144068 67.037776,31.262809 C66.868146,31.483328 66.613701,32.789479 66.647627,33.332295 C66.766368,35.350892 66.732442,35.927634 66.545849,36.30082 C66.427108,36.538302 66.32533,36.775784 66.32533,36.860599 C66.32533,37.115044 66.66459,36.962377 66.83422,36.64008 Z" id="path2330" fill-rule="nonzero"></path>
                <path d="M85.66315,33.213554 C85.527446,32.993035 85.408705,32.56896 85.374779,32.246663 C85.32389,31.534217 85.222112,31.432439 84.815,31.686884 C84.543592,31.856514 84.47574,31.856514 84.47574,31.652958 C84.47574,31.517254 84.577518,31.364587 84.696259,31.313698 C84.798037,31.262809 84.730185,31.262809 84.526629,31.313698 C84.13648,31.398513 84.068628,31.296735 84.119517,30.669104 C84.13648,30.516437 84.068628,30.346807 83.96685,30.278955 C83.882035,30.228066 83.79722,30.02451 83.79722,29.85488 C83.79722,29.634361 83.712405,29.566509 83.542775,29.617398 C83.390108,29.68525 83.28833,29.617398 83.28833,29.464731 C83.28833,29.125471 82.083957,28.277321 81.167955,27.971987 C80.794769,27.853246 80.421583,27.683616 80.336768,27.615764 C80.23499,27.547912 79.997508,27.48006 79.776989,27.48006 C79.471655,27.48006 79.38684,27.395245 79.38684,27.022059 C79.38684,26.750651 79.234173,26.326576 79.064543,26.055168 C78.725283,25.546278 78.725283,25.139166 79.064543,23.188421 C79.268099,22.0519 79.268099,22.017974 78.776172,21.068046 C78.504764,20.542193 78.216393,20.050266 78.148541,19.999377 C77.554836,19.575302 77.334317,18.031669 77.758392,17.234408 C77.894096,16.963 77.961948,16.488036 77.911059,16.046998 C77.86017,15.60596 77.894096,15.2667 78.012837,15.198848 C78.114615,15.130996 78.19943,14.944403 78.19943,14.774773 C78.19943,14.401587 78.70832,13.90966 79.098469,13.90966 C79.251136,13.90966 79.38684,13.841808 79.38684,13.74003 C79.38684,13.485585 80.268916,13.553437 80.642102,13.824845 C80.828695,13.960549 81.184918,14.07929 81.439363,14.07929 C81.948253,14.07929 82.60981,14.75781 82.60981,15.249737 C82.60981,15.402404 82.711588,15.673812 82.847292,15.860405 C82.966033,16.046998 83.169589,16.62374 83.28833,17.13263 C83.424034,17.64152 83.661516,18.337003 83.814183,18.676263 C83.983813,19.015523 84.221295,19.660117 84.323073,20.118118 C84.441814,20.576119 84.815,21.678714 85.171223,22.594716 C85.527446,23.493755 85.866706,24.528498 85.917595,24.884721 C86.121151,26.106057 86.17204,26.29265 86.392559,26.241761 C86.596115,26.207835 86.613078,26.360502 86.409522,27.64969 L86.290781,28.413025 L86.630041,28.005913 L86.969301,27.581838 L87.257672,28.124654 C87.461228,28.531766 87.495154,28.752285 87.35945,28.989767 C87.274635,29.17636 87.18982,29.668287 87.18982,30.075399 C87.18982,30.482511 87.105005,31.076216 87.003227,31.398513 C86.765745,32.144885 86.104188,33.569777 86.00241,33.58674 C85.951521,33.58674 85.798854,33.41711 85.66315,33.213554 Z" id="path2332"></path>
            </g>
        </g>
    </g>
</svg>