<?xml version="1.0" encoding="UTF-8"?>
<svg width="55px" height="64px" viewBox="0 0 55 64" version="1.1" xmlns="http://www.w3.org/2000/svg" xmlns:xlink="http://www.w3.org/1999/xlink">
    <!-- Generator: Sketch 52.5 (67469) - http://www.bohemiancoding.com/sketch -->
    <title>australia</title>
    <desc>Created with Sketch.</desc>
    <g id="Page-1" stroke="none" stroke-width="1" fill="none" fill-rule="evenodd">
        <g id="continents2" transform="translate(-374.000000, -164.000000)" fill="#FFFFFF">
            <g id="australia" transform="translate(401.453517, 196.200329) scale(-1, 1) rotate(-180.000000) translate(-401.453517, -196.200329) translate(374.668940, 164.445593)">
                <path d="M29.34599,63.187175 C29.023693,63.000582 28.66747,62.780063 28.548729,62.695248 C28.413025,62.576507 28.311247,62.576507 28.243395,62.678285 C28.124654,62.864878 27.48006,62.915767 27.48006,62.746137 C27.48006,62.457766 28.226432,61.660505 28.49784,61.660505 C28.972804,61.660505 29.34599,61.473912 29.34599,61.23643 C29.34599,60.744503 29.922732,60.507021 30.923549,60.574873 C31.635995,60.625762 31.89044,60.608799 31.805625,60.473095 C31.737773,60.354354 31.517254,60.320428 31.296735,60.371317 C31.059253,60.439169 30.821771,60.371317 30.70303,60.21865 C30.584289,60.065983 30.346807,59.998131 30.19414,60.04902 C29.85488,60.150798 29.34599,59.998131 29.34599,59.777612 C29.34599,59.692797 29.532583,59.54013 29.770065,59.455315 C30.007547,59.3705 30.19414,59.183907 30.19414,59.03124 C30.19414,58.895536 30.278955,58.776795 30.380733,58.776795 C30.465548,58.776795 30.499474,58.69198 30.448585,58.607165 C30.295918,58.35272 30.5334,57.742052 30.719993,57.860793 C30.821771,57.911682 31.008364,57.860793 31.144068,57.742052 C31.279772,57.640274 31.449402,57.589385 31.500291,57.657237 C31.568143,57.725089 31.534217,57.826867 31.432439,57.894719 C31.313698,57.979534 31.279772,58.115238 31.38155,58.250942 C31.500291,58.454498 31.619032,58.437535 32.144885,58.200053 C32.484145,58.030423 32.90822,57.775978 33.07785,57.640274 C33.24748,57.487607 33.620666,57.33494 33.892074,57.317977 C34.553631,57.233162 37.064155,56.028789 37.047192,55.80827 C37.030229,55.723455 37.132007,55.485973 37.250748,55.29938 C37.386452,55.112787 37.48823,54.841379 37.48823,54.671749 C37.48823,54.502119 37.539119,54.366415 37.623934,54.366415 C37.691786,54.366415 37.742675,54.095007 37.759638,53.77271 C37.759638,53.314709 37.708749,53.179005 37.471267,53.179005 C37.14897,53.179005 36.30082,52.093373 36.30082,51.686261 C36.30082,51.448779 37.82749,51.448779 38.014083,51.703224 C38.064972,51.771076 38.370306,51.872854 38.692603,51.90678 C39.235419,51.974632 39.337197,51.923743 39.913939,51.160408 C40.54157,50.346184 40.558533,50.329221 41.474535,50.329221 C42.000388,50.346184 42.458389,50.295295 42.526241,50.244406 C42.57713,50.176554 42.763723,50.21048 42.933353,50.295295 C43.187798,50.430999 43.221724,50.414036 43.170835,50.125665 C43.136909,49.939072 43.052094,49.70159 43.001205,49.616775 C42.950316,49.514997 42.967279,49.447145 43.052094,49.447145 C43.25565,49.447145 43.42528,49.854257 43.42528,50.312258 C43.42528,50.481888 43.510095,50.634555 43.59491,50.634555 C43.696688,50.634555 43.76454,50.753296 43.76454,50.905963 C43.76454,51.041667 43.832392,51.126482 43.917207,51.075593 C44.002022,51.024704 44.069874,51.160408 44.069874,51.380927 C44.069874,52.059447 45.308173,52.941523 45.698322,52.534411 C45.766174,52.466559 46.105434,52.330855 46.444694,52.24604 C46.81788,52.144262 47.140177,51.923743 47.241955,51.686261 C47.32677,51.482705 47.462474,51.313075 47.530326,51.313075 C47.615141,51.313075 47.66603,51.177371 47.66603,50.990778 C47.66603,50.821148 47.784771,50.583666 47.920475,50.464925 C48.056179,50.346184 48.124031,50.193517 48.073142,50.108702 C48.022253,50.023887 48.107068,49.956035 48.242772,49.956035 C48.395439,49.956035 48.548106,49.769442 48.615958,49.548923 C48.68381,49.243589 48.904329,49.090922 49.498034,48.921292 C49.939072,48.802551 50.532777,48.717736 50.804185,48.734699 C51.092556,48.734699 51.482705,48.632921 51.686261,48.497217 C52.127299,48.225809 53.365598,48.17492 53.518265,48.429365 C53.586117,48.531143 53.569154,48.598995 53.484339,48.582032 C53.416487,48.565069 53.229894,48.565069 53.09419,48.582032 C52.890634,48.598995 52.890634,48.632921 53.060264,48.734699 C53.212931,48.836477 53.060264,48.955218 52.5853,49.107885 C51.974632,49.311441 51.652335,49.616775 52.07641,49.616775 C52.466559,49.616775 52.212114,49.939072 51.788039,49.989961 C51.39789,50.023887 51.330038,50.108702 51.363964,50.447962 C51.414853,50.821148 51.380927,50.838111 50.922926,50.753296 C50.464925,50.651518 50.414036,50.702407 50.193517,51.363964 C50.057813,51.754113 49.667664,52.347818 49.328404,52.687078 C48.972181,53.026338 48.68381,53.467376 48.68381,53.653969 C48.68381,53.959303 48.785588,54.027155 49.277515,54.027155 C49.735516,54.027155 49.87122,54.095007 49.87122,54.332489 C49.87122,54.688712 49.311441,55.265454 48.921292,55.316343 C48.768625,55.333306 48.531143,55.46901 48.378476,55.604714 C48.208846,55.740418 47.886549,55.893085 47.649067,55.960937 C47.275881,56.045752 47.224992,56.130567 47.292844,56.48679 C47.32677,56.724272 47.428548,56.910865 47.513363,56.910865 C47.598178,56.910865 47.66603,57.029606 47.66603,57.182273 C47.66603,57.419755 47.615141,57.419755 47.411585,57.250125 C47.191066,57.063532 47.089288,57.097458 46.81788,57.385829 C46.631287,57.589385 46.47862,57.826867 46.47862,57.928645 C46.47862,58.030423 46.410768,58.081312 46.325953,58.01346 C46.241138,57.962571 46.054545,58.047386 45.918841,58.18309 C45.766174,58.318794 45.511729,58.437535 45.325136,58.437535 C45.138543,58.437535 44.901061,58.556276 44.78232,58.69198 C44.680542,58.827684 44.154689,59.048203 43.628836,59.20087 C43.08602,59.353537 42.356611,59.658871 41.983425,59.862427 C41.610239,60.082946 41.203127,60.21865 41.101349,60.184724 C40.982608,60.133835 40.88083,60.184724 40.88083,60.269539 C40.88083,60.354354 40.558533,60.473095 40.185347,60.540947 C39.795198,60.608799 38.964011,60.931096 38.33638,61.270356 C37.267711,61.830135 37.14897,61.864061 36.674006,61.643542 C36.385635,61.524801 36.114227,61.287319 36.080301,61.117689 C36.029412,60.931096 35.825856,60.812355 35.554448,60.812355 C35.316966,60.812355 35.11341,60.744503 35.11341,60.676651 C35.11341,60.591836 34.977706,60.371317 34.825039,60.167761 C34.655409,59.981168 34.400964,59.658871 34.26526,59.472278 C34.129556,59.268722 33.858148,59.116055 33.654592,59.116055 C33.366221,59.116055 33.24748,59.268722 33.07785,59.930279 C32.959109,60.371317 32.823405,60.625762 32.789479,60.507021 C32.670738,60.201687 32.39933,60.439169 32.39933,60.863244 C32.39933,61.168578 32.433256,61.202504 32.585923,60.981985 C32.73859,60.778429 32.755553,60.795392 32.653775,61.0668 C32.585923,61.253393 32.518071,61.694431 32.484145,62.050654 C32.39933,62.830952 32.263626,63.068434 31.975255,62.949693 C31.856514,62.915767 31.483328,63.017545 31.144068,63.204138 C30.397696,63.594287 30.109325,63.594287 29.34599,63.187175 Z" id="path2372"></path>
                <path d="M41.932536,48.056179 C41.847721,47.937438 41.712017,47.649067 41.644165,47.411585 C41.576313,47.174103 41.372757,46.733065 41.169201,46.427731 C40.982608,46.105434 40.812978,45.545655 40.779052,45.172469 C40.745126,44.799283 40.643348,44.392171 40.54157,44.27343 C40.456755,44.154689 40.338014,43.577947 40.287125,42.984242 C40.185347,41.695054 39.608605,39.829124 39.167567,39.337197 C38.980974,39.150604 38.84527,38.913122 38.84527,38.811344 C38.84527,38.472084 38.319417,38.081935 37.895342,38.081935 C37.623934,38.081935 37.233785,38.33638 36.80971,38.760455 C36.436524,39.133641 35.995486,39.438975 35.825856,39.438975 C35.656226,39.438975 35.401781,39.625568 35.28304,39.86305 C35.164299,40.100532 34.960743,40.287125 34.842002,40.287125 C34.706298,40.287125 34.570594,40.473718 34.502742,40.7112 C34.384001,41.169201 34.09563,41.287942 34.09563,40.88083 C34.09563,40.7112 33.790296,40.914756 33.264443,41.406683 L32.433256,42.203944 L32.772516,42.560167 C32.959109,42.763723 33.179628,43.08602 33.264443,43.306539 C33.349258,43.527058 33.501925,43.645799 33.603703,43.59491 C33.705481,43.527058 33.739407,43.374391 33.688518,43.25565 C33.603703,43.035131 34.214371,42.780686 34.468816,42.933353 C34.60452,43.018168 34.536668,43.815429 34.367038,43.985059 C34.316149,44.035948 34.163482,43.968096 34.010815,43.849355 C33.790296,43.662762 33.75637,43.696688 33.75637,44.086837 C33.75637,44.324319 33.841185,44.510912 33.942963,44.493949 C34.044741,44.460023 34.316149,44.78232 34.553631,45.206395 C34.892891,45.834026 34.909854,45.986693 34.723261,46.13936 C34.587557,46.224175 34.519705,46.410768 34.553631,46.529509 C34.60452,46.631287 34.553631,46.733065 34.451853,46.733065 C34.350075,46.733065 34.26526,46.665213 34.26526,46.580398 C34.26526,46.495583 34.112593,46.393805 33.909037,46.342916 C33.654592,46.275064 33.58674,46.30899 33.654592,46.495583 C33.773333,46.81788 33.654592,46.800917 33.07785,46.359879 C32.687701,46.071508 32.518071,46.037582 32.365404,46.190249 C32.246663,46.30899 31.992218,46.393805 31.788662,46.393805 C31.568143,46.393805 31.296735,46.495583 31.177994,46.614324 C31.059253,46.750028 30.855697,46.81788 30.736956,46.766991 C30.635178,46.733065 30.5334,46.851806 30.5334,47.021436 C30.5334,47.275881 30.499474,47.292844 30.36377,47.072325 C30.211103,46.851806 30.160214,46.851806 30.007547,47.123214 C29.905769,47.275881 29.770065,47.377659 29.668287,47.32677 C29.583472,47.258918 29.51562,47.377659 29.51562,47.564252 C29.51562,47.869586 29.464731,47.886549 29.091545,47.750845 C28.854063,47.66603 28.66747,47.649067 28.66747,47.699956 C28.66747,47.767808 28.582655,47.733882 28.463914,47.615141 C28.226432,47.377659 28.582655,46.885732 28.904952,47.004473 C29.227249,47.123214 29.396879,46.580398 29.142434,46.275064 C28.989767,46.071508 28.701396,46.037582 28.039839,46.105434 C27.530949,46.156323 27.1408,46.122397 27.1408,46.037582 C27.1408,45.952767 27.055985,45.884915 26.937244,45.884915 C26.63191,45.884915 25.800723,44.867135 25.885538,44.61269 C25.936427,44.476986 25.817686,44.307356 25.631093,44.188615 C25.427537,44.086837 25.27487,43.917207 25.27487,43.815429 C25.27487,43.696688 25.10524,43.442243 24.901684,43.221724 C24.59635,42.899427 24.562424,42.780686 24.749017,42.678908 C25.139166,42.424463 24.782943,42.170018 24.155312,42.254833 C23.816052,42.288759 23.425903,42.23787 23.307162,42.136092 C23.103606,41.966462 23.086643,41.983425 23.171458,42.220907 C23.23931,42.390537 23.171458,42.526241 23.001828,42.594093 C22.849161,42.644982 22.73042,42.797649 22.73042,42.91639 C22.73042,43.052094 22.492938,43.323502 22.204567,43.527058 C21.71264,43.866318 21.644788,43.883281 21.458195,43.628836 C21.339454,43.476169 21.220713,43.374391 21.186787,43.42528 C21.000194,43.59491 20.01634,43.679725 20.01634,43.510095 C20.01634,43.42528 20.101155,43.340465 20.18597,43.340465 C20.287748,43.340465 20.3556,43.170835 20.3556,42.967279 C20.338637,42.594093 20.338637,42.57713 20.101155,42.899427 C19.863673,43.204761 19.84671,43.204761 19.84671,42.933353 C19.84671,42.712834 19.761895,42.661945 19.50745,42.74676 C19.219079,42.831575 19.16819,42.780686 19.16819,42.390537 C19.16819,42.136092 19.117301,41.966462 19.066412,42.017351 C18.879819,42.203944 18.082558,41.270979 18.048632,40.829941 C18.031669,40.575496 17.997743,40.304088 17.997743,40.219273 C17.98078,40.151421 17.709372,40.134458 17.370112,40.20231 C16.979963,40.270162 16.79337,40.253199 16.861222,40.134458 C16.929074,40.049643 16.895148,39.930902 16.79337,39.86305 C16.674629,39.795198 16.674629,39.659494 16.79337,39.422012 C16.912111,39.235419 16.912111,39.099715 16.810333,39.099715 C16.725518,39.099715 16.62374,38.964011 16.572851,38.811344 C16.538925,38.641714 16.437147,38.828307 16.369295,39.235419 C16.301443,39.625568 16.182702,39.947865 16.131813,39.947865 C16.063961,39.947865 15.724701,39.659494 15.385441,39.303271 C14.893514,38.811344 14.75781,38.522973 14.75781,38.064972 C14.75781,37.606971 14.605143,37.301637 14.214994,36.860599 C13.90966,36.521339 13.519511,36.063338 13.349881,35.808893 C12.925806,35.198225 12.111582,34.808076 11.161654,34.77415 C10.68669,34.757187 10.228689,34.638446 10.042096,34.468816 C9.872466,34.316149 9.533206,34.180445 9.295724,34.180445 C9.058242,34.180445 8.769871,34.061704 8.65113,33.926 C8.498463,33.739407 8.227055,33.688518 7.786017,33.739407 C7.412831,33.773333 7.090534,33.739407 7.022682,33.654592 C6.971793,33.569777 6.819126,33.501925 6.683422,33.501925 C6.547718,33.501925 6.191495,33.281406 5.886161,33.009998 C5.59779,32.721627 5.071937,32.382367 4.732677,32.2297 C4.393417,32.06007 4.020231,31.737773 3.884527,31.483328 L3.680971,31.04229 L3.579193,31.55118 C3.494378,31.958292 3.443489,32.009181 3.307785,31.805625 C2.88371,31.161031 2.71408,30.70303 2.71408,30.245029 C2.71408,29.973621 2.527487,29.464731 2.290005,29.125471 C1.781115,28.379099 1.781115,28.226432 2.171264,26.937244 C2.561413,25.665019 2.476598,25.020425 2.03556,25.970353 L1.730226,26.63191 L1.560596,26.207835 L1.390966,25.78376 L1.204373,26.207835 C1.034743,26.581021 1.01778,26.530132 1.102595,25.885538 C1.153484,25.478426 1.323114,24.918647 1.458818,24.647239 C1.611485,24.358868 1.747189,23.7482 1.781115,23.256273 C1.815041,22.781309 1.899856,22.170641 1.950745,21.88227 C2.018597,21.610862 2.069486,21.152861 2.052523,20.86449 C2.052523,20.593082 2.018597,19.439598 2.001634,18.337003 C1.967708,16.895148 1.882893,16.28448 1.747189,16.250554 C1.628448,16.199665 1.52667,15.996109 1.52667,15.792553 C1.52667,15.283663 1.068669,14.672995 0.661557,14.672995 C0.458001,14.672995 0.271408,14.503365 0.16963,14.231957 C-0.067852,13.621289 -0.050889,13.485585 0.322297,13.485585 C0.50889,13.485585 0.695483,13.349881 0.746372,13.180251 C0.882076,12.773139 1.424892,12.518694 2.408746,12.399953 C3.172081,12.315138 4.07112,12.535657 4.07112,12.807065 C4.07112,12.942769 4.613936,13.163288 5.105863,13.23114 C5.25853,13.248103 5.529938,13.417733 5.716531,13.604326 C6.140606,14.028401 7.361942,14.198031 9.363576,14.096253 L10.822394,14.011438 L11.568766,14.774773 C11.958915,15.181885 12.433879,15.521145 12.586546,15.521145 C12.739213,15.521145 12.908843,15.588997 12.959732,15.673812 C13.010621,15.758627 13.265066,15.877368 13.519511,15.94522 C13.790919,15.996109 14.130179,16.165739 14.282846,16.318406 C14.486402,16.504999 14.740847,16.538925 15.130996,16.471073 C15.690775,16.369295 18.031669,16.895148 18.404855,17.217445 C18.506633,17.30226 19.286931,17.421001 20.152044,17.488853 C21.627825,17.607594 21.746566,17.590631 22.136715,17.217445 C22.357234,17.013889 22.645605,16.878185 22.764346,16.912111 C22.883087,16.963 23.273236,16.810333 23.612496,16.589814 C23.968719,16.386258 24.341905,16.199665 24.460646,16.199665 C24.613313,16.199665 24.613313,16.148776 24.460646,15.996109 C24.172275,15.707738 24.206201,15.181885 24.494572,15.181885 C24.884721,15.181885 25.071314,13.638252 24.715091,13.417733 C24.477609,13.265066 24.511535,13.180251 24.986499,12.756176 C25.529315,12.281212 25.529315,12.281212 25.580204,12.654398 C25.648056,13.078473 26.733688,14.164105 27.089911,14.164105 C27.225615,14.164105 27.683616,14.503365 28.107691,14.92744 C28.531766,15.351515 28.921915,15.656849 28.989767,15.588997 C29.040656,15.521145 28.989767,15.43633 28.887989,15.402404 C28.769248,15.351515 28.66747,15.181885 28.66747,15.012255 C28.66747,14.842625 28.463914,14.58818 28.226432,14.41855 C27.98895,14.265883 27.683616,13.875734 27.547912,13.553437 C27.412208,13.23114 27.123837,12.89188 26.920281,12.824028 C26.699762,12.739213 26.428354,12.535657 26.29265,12.366027 C26.055168,12.094619 26.072131,12.077656 26.46228,12.179434 C26.699762,12.247286 27.022059,12.298175 27.191689,12.298175 C27.361319,12.298175 27.64969,12.569583 27.836283,12.89188 C28.039839,13.214177 28.260358,13.485585 28.345173,13.485585 C28.684433,13.485585 28.463914,12.637435 27.98895,12.162471 C27.429171,11.602692 27.48006,11.416099 28.15858,11.551803 C28.548729,11.636618 28.650507,11.568766 28.8371,11.093802 C29.040656,10.601875 29.040656,10.483134 28.735322,9.940318 C28.446951,9.414465 28.413025,9.244835 28.582655,8.752908 C28.701396,8.430611 28.955841,8.108314 29.159397,8.040462 C29.34599,7.955647 29.51562,7.836906 29.51562,7.752091 C29.51562,7.667276 29.820954,7.599424 30.211103,7.599424 C30.601252,7.599424 30.957475,7.514609 31.025327,7.429794 C31.076216,7.328016 31.296735,7.175349 31.500291,7.056608 C31.822588,6.886978 32.009181,6.920904 32.687701,7.277127 C33.128739,7.514609 33.535851,7.650313 33.58674,7.582461 C33.637629,7.514609 33.959926,7.311053 34.316149,7.141423 C34.655409,6.95483 34.94378,6.700385 34.94378,6.564681 C34.94378,6.361125 35.011632,6.361125 35.300003,6.632533 C36.283857,7.514609 38.081935,8.396685 38.964011,8.396685 C40.049643,8.396685 41.033497,8.939501 41.05046,9.533206 C41.05046,9.651947 41.237053,9.940318 41.474535,10.194763 C41.712017,10.449208 41.89861,10.737579 41.89861,10.85632 C41.89861,10.958098 42.23787,11.36521 42.661945,11.755359 C43.08602,12.145508 43.798466,12.908843 44.222541,13.451659 C45.257284,14.740847 46.088471,15.538108 46.868769,15.94522 C47.208029,16.131813 47.4964,16.369295 47.4964,16.471073 C47.4964,16.572851 47.699956,16.878185 47.971364,17.166556 C48.734699,17.997743 49.02307,18.404855 49.02307,18.608411 C49.02307,18.727152 49.1927,19.083375 49.413219,19.405672 C50.38011,20.881453 50.922926,21.88227 50.990778,22.374197 C51.041667,22.662568 51.194334,23.188421 51.330038,23.561607 C51.601446,24.25709 51.516631,24.664202 51.245223,23.985682 C51.160408,23.765163 51.075593,23.663385 51.075593,23.7482 C51.05863,23.934793 51.363964,25.139166 51.516631,25.529315 C51.56752,25.665019 51.601446,25.851612 51.584483,25.919464 C51.56752,26.004279 51.720187,26.309613 51.90678,26.63191 C52.093373,26.937244 52.24604,27.327393 52.229077,27.497023 C52.229077,27.734505 52.195151,27.751468 52.127299,27.564875 C51.872854,26.869392 51.22826,26.750651 51.22826,27.412208 C51.22826,27.581838 51.160408,27.734505 51.075593,27.734505 C50.990778,27.734505 50.889,27.971987 50.838111,28.243395 C50.770259,28.531766 50.617592,28.752285 50.481888,28.752285 C50.346184,28.752285 50.21048,28.921915 50.176554,29.142434 C50.142628,29.34599 50.023887,29.498657 49.905146,29.464731 C49.718553,29.430805 49.70159,29.634361 49.803368,30.380733 C49.905146,31.296735 49.905146,31.347624 49.565886,31.262809 C49.345367,31.194957 49.175737,31.262809 49.124848,31.415476 C49.040033,31.635995 48.972181,31.635995 48.751662,31.449402 C48.531143,31.262809 48.497217,31.330661 48.531143,31.924366 C48.565069,32.348441 48.463291,32.789479 48.293661,33.060887 C47.937438,33.58674 47.937438,33.671555 48.259735,33.671555 C48.429365,33.671555 48.497217,33.807259 48.446328,34.061704 C48.412402,34.26526 48.293661,34.417927 48.17492,34.384001 C47.886549,34.316149 46.834843,35.045558 46.716102,35.401781 C46.665213,35.571411 46.529509,35.656226 46.376842,35.588374 C46.258101,35.537485 46.13936,35.588374 46.13936,35.707115 C46.13936,35.808893 46.071508,35.859782 45.986693,35.808893 C45.732248,35.639263 45.409951,36.199042 45.494766,36.64008 C45.545655,36.877562 45.511729,37.115044 45.426914,37.165933 C45.359062,37.216822 45.342099,37.335563 45.392988,37.437341 C45.596544,37.759638 45.46084,39.150604 45.206395,39.438975 C44.95195,39.710383 44.918024,41.525424 45.172469,41.915573 C45.240321,42.034314 45.104617,42.23787 44.833209,42.4075 C44.426097,42.678908 44.409134,42.729797 44.663579,42.91639 C44.867135,43.069057 44.901061,43.153872 44.748394,43.306539 C44.629653,43.42528 44.426097,43.510095 44.290393,43.493132 C44.1038,43.493132 44.120763,43.442243 44.358245,43.340465 C44.697505,43.187798 44.697505,43.187798 44.358245,43.170835 C44.171652,43.136909 43.968096,43.136909 43.900244,43.153872 C43.815429,43.153872 43.76454,43.102983 43.76454,43.001205 C43.76454,42.91639 43.645799,42.831575 43.493132,42.831575 C43.289576,42.831575 43.25565,43.001205 43.289576,43.679725 C43.323502,44.307356 43.408317,44.510912 43.560984,44.44306 C43.730614,44.375208 43.781503,44.527875 43.76454,45.002839 C43.747577,45.342099 43.747577,45.664396 43.76454,45.715285 C43.883281,46.071508 43.883281,46.393805 43.747577,46.393805 C43.577947,46.393805 43.527058,46.054545 43.577947,45.223358 C43.611873,44.884098 43.560984,44.697505 43.459206,44.765357 C43.357428,44.816246 43.306539,45.002839 43.340465,45.172469 C43.357428,45.325136 43.306539,45.545655 43.221724,45.647433 C43.052094,45.884915 43.102983,46.241138 43.340465,46.444694 C43.442243,46.529509 43.391354,46.563435 43.221724,46.495583 C42.933353,46.410768 42.492315,46.919658 42.678908,47.123214 C42.729797,47.174103 42.729797,47.445511 42.661945,47.733882 C42.543204,48.276698 42.23787,48.412402 41.932536,48.056179 Z M1.86593,25.27487 C1.86593,25.139166 1.832004,25.020425 1.798078,25.020425 C1.764152,25.020425 1.6963,25.139166 1.628448,25.27487 C1.577559,25.410574 1.611485,25.529315 1.6963,25.529315 C1.798078,25.529315 1.86593,25.410574 1.86593,25.27487 Z M34.09563,7.97261 C33.976889,7.819943 33.841185,7.752091 33.807259,7.786017 C33.688518,7.904758 33.926,8.227055 34.129556,8.227055 C34.231334,8.227055 34.231334,8.125277 34.09563,7.97261 Z" id="path2374" fill-rule="nonzero"></path>
                <path d="M31.652958,4.189861 C31.415476,3.833638 31.177994,3.22297 31.144068,2.832821 C31.093179,2.459635 30.974438,1.984671 30.87266,1.798078 C30.770882,1.594522 30.70303,1.136521 30.736956,0.780298 C30.770882,0.186593 30.821771,0.101778 31.262809,0.016963 C31.788662,-0.084815 32.90822,0.33926 32.90822,0.627631 C32.90822,0.746372 32.993035,0.746372 33.128739,0.627631 C33.298369,0.491927 33.467999,0.559779 33.807259,0.932965 C34.061704,1.18741 34.26526,1.52667 34.26526,1.679337 C34.26526,1.832004 34.400964,1.950745 34.587557,1.950745 C34.791113,1.950745 34.977706,2.103412 35.045558,2.340894 C35.11341,2.54445 35.333929,2.985488 35.554448,3.324748 C36.080301,4.155935 35.859782,4.342528 34.723261,4.020231 C33.230517,3.613119 33.179628,3.613119 32.823405,3.935416 C32.636812,4.122009 32.416293,4.291639 32.314515,4.342528 C32.2297,4.376454 32.161848,4.512158 32.195774,4.630899 C32.280589,4.987122 32.127922,4.851418 31.652958,4.189861 Z" id="path2376"></path>
            </g>
        </g>
    </g>
</svg>