<?xml version="1.0" encoding="UTF-8"?>
<svg width="92px" height="63px" viewBox="0 0 92 63" version="1.1" xmlns="http://www.w3.org/2000/svg" xmlns:xlink="http://www.w3.org/1999/xlink">
    <!-- Generator: Sketch 52.5 (67469) - http://www.bohemiancoding.com/sketch -->
    <title>europe</title>
    <desc>Created with Sketch.</desc>
    <g id="Page-1" stroke="none" stroke-width="1" fill="none" fill-rule="evenodd">
        <g id="continents2" transform="translate(-213.000000, -51.000000)" fill="#FFFFFF">
            <g id="europe" transform="translate(259.082241, 82.869709) scale(-1, 1) rotate(-180.000000) translate(-259.082241, -82.869709) translate(213.231252, 51.946160)">
                <path d="M71.278526,61.694431 C71.210674,61.609616 70.854451,61.490875 70.447339,61.423023 C69.734893,61.304282 68.293038,60.693614 68.106445,60.422206 C68.038593,60.337391 67.902889,60.337391 67.801111,60.38828 C67.699333,60.456132 67.614518,60.422206 67.614518,60.337391 C67.614518,60.235613 67.716296,60.133835 67.835037,60.133835 C67.936815,60.116872 68.225186,60.082946 68.428742,60.065983 C68.666224,60.04902 68.988521,60.184724 69.175114,60.38828 C69.37867,60.574873 69.480448,60.659688 69.429559,60.55791 C69.361707,60.439169 69.480448,60.320428 69.700967,60.252576 C70.22682,60.116872 70.362524,60.133835 70.243783,60.320428 C70.192894,60.422206 70.260746,60.439169 70.39645,60.38828 C70.549117,60.337391 70.616969,60.201687 70.549117,60.099909 C70.481265,59.981168 70.888377,59.964205 71.872231,60.032057 C72.720381,60.082946 73.161419,60.065983 72.957863,59.981168 C72.686455,59.862427 72.77127,59.828501 73.314086,59.828501 C73.806013,59.811538 74.060458,59.896353 74.12831,60.065983 C74.179199,60.201687 74.365792,60.320428 74.552385,60.320428 C74.993423,60.320428 75.417498,60.490058 75.417498,60.676651 C75.417498,60.761466 75.264831,60.829318 75.095201,60.829318 C74.908608,60.829318 74.738978,60.89717 74.705052,60.998948 C74.654163,61.134652 73.551568,61.304282 72.465936,61.338208 C72.211491,61.338208 72.194528,61.389097 72.364158,61.592653 C72.550751,61.813172 72.482899,61.847098 71.974009,61.847098 C71.634749,61.847098 71.329415,61.779246 71.278526,61.694431 Z M73.297123,60.829318 C73.127493,60.642725 72.788233,60.490058 72.550751,60.507021 L72.109713,60.523984 L72.533788,60.659688 C72.77127,60.72754 72.839122,60.812355 72.703418,60.829318 C72.567714,60.846281 72.635566,60.931096 72.873048,60.998948 C73.551568,61.219467 73.61942,61.185541 73.297123,60.829318 Z M68.971558,60.591836 C68.971558,60.540947 68.903706,60.456132 68.801928,60.405243 C68.717113,60.354354 68.632298,60.38828 68.632298,60.473095 C68.632298,60.574873 68.717113,60.659688 68.801928,60.659688 C68.903706,60.659688 68.971558,60.625762 68.971558,60.591836 Z" id="path2379" fill-rule="nonzero"></path>
                <path d="M65.443254,60.931096 C65.13792,60.829318 64.934364,60.676651 65.002216,60.608799 C65.070068,60.540947 65.036142,60.490058 64.934364,60.490058 C64.815623,60.490058 64.730808,60.574873 64.730808,60.659688 C64.730808,60.863244 63.509472,60.863244 62.271173,60.659688 C61.423023,60.540947 61.660505,60.439169 62.813989,60.439169 C63.119323,60.439169 63.322879,60.371317 63.27199,60.286502 C63.221101,60.21865 63.204138,60.150798 63.238064,60.133835 C64.137103,59.981168 65.256661,59.981168 65.171846,60.133835 C65.087031,60.252576 65.205772,60.320428 65.443254,60.320428 C65.714662,60.320428 65.765551,60.269539 65.612884,60.167761 C65.341476,60.015094 66.121774,59.811538 67.00385,59.811538 C67.410962,59.811538 67.478814,59.862427 67.275258,59.981168 C67.139554,60.082946 66.800294,60.099909 66.511923,60.04902 C66.053922,59.947242 66.036959,59.964205 66.240515,60.21865 C66.359256,60.371317 66.613701,60.490058 66.800294,60.490058 C66.969924,60.490058 67.071702,60.574873 67.020813,60.659688 C66.969924,60.761466 66.766368,60.829318 66.579775,60.829318 C66.410145,60.829318 66.257478,60.914133 66.257478,60.998948 C66.257478,61.202504 66.1557,61.202504 65.443254,60.931096 Z" id="path2381"></path>
                <path d="M40.134458,60.184724 C39.981791,60.015094 39.710383,59.981168 39.252382,60.04902 C38.743492,60.133835 38.573862,60.099909 38.489047,59.87939 C38.438158,59.726723 38.489047,59.54013 38.624751,59.455315 C38.760455,59.3705 38.777418,59.302648 38.67564,59.302648 C38.573862,59.302648 38.387269,59.421389 38.251565,59.574056 C38.132824,59.726723 37.878379,59.811538 37.640897,59.760649 C37.420378,59.726723 37.216822,59.743686 37.165933,59.811538 C37.132007,59.87939 36.657043,59.896353 36.114227,59.87939 C35.571411,59.845464 34.926817,59.828501 34.672372,59.811538 C34.299186,59.811538 34.231334,59.743686 34.316149,59.523167 C34.384001,59.353537 34.621483,59.03124 34.858965,58.810721 L35.300003,58.403609 L34.842002,58.675017 C34.570594,58.844647 34.350075,58.895536 34.282223,58.793758 C34.231334,58.708943 34.502742,58.488424 34.909854,58.284868 C35.758004,57.877756 35.825856,57.860793 35.554448,58.200053 C35.147336,58.69198 36.419561,57.894719 36.877562,57.402792 C37.098081,57.131384 37.403415,56.927828 37.556082,56.927828 C37.725712,56.910865 38.149787,56.775161 38.522973,56.588568 C39.52379,56.096641 39.913939,56.14753 40.049643,56.758198 C40.117495,57.046569 40.270162,57.267088 40.388903,57.267088 C40.643348,57.267088 41.627202,58.115238 41.38972,58.115238 C41.304905,58.115238 41.372757,58.200053 41.542387,58.301831 C41.881647,58.505387 42.424463,58.369683 42.984242,57.928645 C43.340465,57.657237 43.357428,57.623311 43.069057,57.453681 C42.729797,57.250125 42.848538,57.216199 43.628836,57.267088 C43.93417,57.284051 44.222541,57.216199 44.290393,57.114421 C44.409134,56.910865 45.189432,57.029606 45.477803,57.284051 C45.562618,57.368866 45.766174,57.436718 45.952767,57.436718 C46.122397,57.436718 46.207212,57.521533 46.156323,57.606348 C46.105434,57.708126 45.834026,57.775978 45.562618,57.775978 C45.29121,57.775978 45.053728,57.894719 44.985876,58.047386 C44.918024,58.233979 44.748394,58.301831 44.460023,58.250942 C44.222541,58.200053 44.035948,58.233979 44.035948,58.301831 C44.035948,58.539313 42.492315,59.166944 42.203944,59.048203 C41.983425,58.963388 41.966462,58.997314 42.119129,59.149981 C42.254833,59.285685 42.644982,59.302648 43.391354,59.234796 C45.206395,59.03124 46.766991,59.133018 46.885732,59.472278 C46.919658,59.574056 47.089288,59.641908 47.258918,59.641908 C47.699956,59.641908 47.83566,59.930279 47.479437,60.116872 C46.98751,60.371317 44.918024,60.473095 44.799283,60.252576 C44.748394,60.116872 44.680542,60.133835 44.61269,60.286502 C44.460023,60.591836 43.696688,60.540947 43.696688,60.21865 C43.696688,59.998131 43.645799,59.981168 43.442243,60.150798 C43.08602,60.456132 40.422829,60.473095 40.134458,60.184724 Z M41.627202,59.336574 C41.678091,59.183907 41.593276,59.116055 41.38972,59.166944 C41.237053,59.183907 41.067423,59.319611 41.016534,59.438352 C40.965645,59.591019 41.05046,59.658871 41.254016,59.607982 C41.406683,59.591019 41.576313,59.455315 41.627202,59.336574 Z M38.268528,58.200053 C38.268528,58.149164 38.132824,58.115238 37.963194,58.115238 C37.793564,58.115238 37.640897,58.233979 37.640897,58.35272 C37.640897,58.539313 37.725712,58.573239 37.963194,58.437535 C38.132824,58.35272 38.268528,58.233979 38.268528,58.200053 Z M37.081118,57.775978 C37.081118,57.691163 37.013266,57.606348 36.911488,57.606348 C36.826673,57.606348 36.741858,57.691163 36.741858,57.775978 C36.741858,57.877756 36.826673,57.945608 36.911488,57.945608 C37.013266,57.945608 37.081118,57.877756 37.081118,57.775978 Z" id="path2383" fill-rule="nonzero"></path>
                <path d="M82.050031,56.809087 C81.812549,56.758198 81.456326,56.605531 81.235807,56.469827 C80.964399,56.283234 80.133212,56.164493 78.70832,56.062715 C76.67276,55.927011 75.943351,55.80827 75.756758,55.587751 C75.570165,55.350269 74.29794,54.841379 74.009569,54.875305 C73.78905,54.909231 73.704235,54.824416 73.738161,54.603897 C73.822976,54.061081 73.551568,53.60308 72.991789,53.331672 L72.448973,53.060264 L72.873048,52.890634 C73.127493,52.771893 73.195345,52.704041 73.025715,52.704041 C72.873048,52.687078 72.533788,52.500485 72.26238,52.263003 C71.872231,51.940706 71.838305,51.838928 72.075787,51.838928 C72.499862,51.838928 72.43201,51.516631 71.940083,51.330038 C71.702601,51.245223 71.516008,51.05863 71.516008,50.922926 C71.516008,50.566703 71.974009,50.261369 72.364158,50.363147 C72.550751,50.414036 72.669492,50.38011 72.60164,50.295295 C72.550751,50.21048 72.720381,50.057813 72.974826,49.972998 C73.331049,49.837294 73.466753,49.837294 73.585494,50.006924 C73.687272,50.176554 73.721198,50.159591 73.721198,49.956035 C73.721198,49.582849 74.077421,49.464108 75.417498,49.345367 C77.453058,49.1927 77.673577,49.1927 77.758392,49.447145 C77.809281,49.616775 77.758392,49.650701 77.554836,49.582849 C77.402169,49.514997 77.300391,49.53196 77.35128,49.616775 C77.402169,49.684627 77.130761,49.854257 76.774538,49.972998 C76.401352,50.091739 76.096018,50.244406 76.096018,50.295295 C76.096018,50.363147 75.892462,50.532777 75.621054,50.685444 C75.163053,50.956852 74.874682,51.838928 75.247868,51.838928 C75.349646,51.838928 75.417498,51.923743 75.417498,52.008558 C75.417498,52.24604 77.198613,54.044118 77.436095,54.044118 C77.537873,54.044118 77.758392,54.179822 77.928022,54.349452 C78.318171,54.739601 79.04758,54.96012 81.269733,55.401158 C84.221295,55.994863 84.815,56.368049 83.424034,56.758198 C82.77944,56.927828 82.728551,56.927828 82.050031,56.809087 Z M73.331049,53.09419 C73.28016,53.043301 73.127493,53.026338 73.008752,53.077227 C72.873048,53.128116 72.923937,53.179005 73.11053,53.179005 C73.297123,53.195968 73.398901,53.145079 73.331049,53.09419 Z" id="path2385" fill-rule="nonzero"></path>
                <path d="M48.022253,49.956035 C47.954401,49.854257 47.784771,49.820331 47.632104,49.888183 C47.4964,49.939072 47.191066,49.820331 46.953584,49.599812 C46.716102,49.379293 46.580398,49.311441 46.64825,49.430182 C46.733065,49.565886 46.614324,49.633738 46.207212,49.633738 C45.477803,49.633738 44.867135,49.464108 44.968913,49.294478 C45.070691,49.124848 44.239504,48.887366 43.713651,48.938255 C43.42528,48.972181 43.357428,48.921292 43.442243,48.751662 C43.544021,48.582032 43.527058,48.565069 43.340465,48.751662 C42.933353,49.124848 41.830758,48.955218 41.830758,48.51418 C41.830758,48.259735 41.813795,48.259735 41.203127,48.191883 C40.507644,48.124031 40.270162,47.954401 40.354977,47.598178 C40.405866,47.411585 40.354977,47.208029 40.270162,47.140177 C40.151421,47.072325 40.134458,47.123214 40.219273,47.258918 C40.321051,47.428548 40.253199,47.445511 39.880013,47.360696 C39.455938,47.258918 39.422012,47.275881 39.608605,47.4964 C39.930902,47.869586 39.608605,47.852623 38.709566,47.411585 C38.149787,47.15714 37.980157,46.98751 38.048009,46.800917 C38.115861,46.614324 38.081935,46.563435 37.963194,46.64825 C37.725712,46.783954 36.572228,46.325953 36.572228,46.088471 C36.572228,45.850989 36.64008,45.850989 37.335563,46.13936 C37.65786,46.275064 37.929268,46.359879 37.929268,46.325953 C37.929268,46.292027 38.16675,46.325953 38.438158,46.410768 C38.743492,46.495583 38.947048,46.495583 38.947048,46.393805 C38.947048,46.30899 38.828307,46.241138 38.692603,46.241138 C38.556899,46.241138 38.438158,46.088471 38.438158,45.918841 C38.438158,45.732248 38.098898,45.342099 37.590008,44.985876 C37.132007,44.646616 36.741858,44.307356 36.741858,44.222541 C36.741858,44.137726 36.589191,44.035948 36.402598,43.985059 C36.165116,43.93417 36.063338,43.747577 36.063338,43.459206 C36.063338,42.882464 35.503559,42.339648 34.926817,42.339648 C34.536668,42.339648 34.502742,42.305722 34.706298,42.153055 C34.909854,42.000388 34.926817,41.966462 34.723261,41.881647 C34.60452,41.830758 34.197408,41.491498 33.841185,41.135275 C33.24748,40.54157 33.145702,40.490681 32.823405,40.677274 C32.535034,40.863867 32.450219,40.846904 32.280589,40.626385 C32.161848,40.473718 31.975255,40.388903 31.839551,40.439792 C31.669921,40.490681 31.635995,40.439792 31.703847,40.253199 C31.771699,40.066606 31.669921,39.964828 31.296735,39.880013 C31.025327,39.812161 30.804808,39.69342 30.804808,39.608605 C30.804808,39.52379 30.618215,39.422012 30.380733,39.35416 C30.143251,39.303271 29.956658,39.18453 29.956658,39.082752 C29.956658,38.997937 29.888806,38.964011 29.820954,39.0149 C29.736139,39.065789 29.447768,38.964011 29.159397,38.777418 C28.650507,38.472084 28.633544,38.421195 28.616581,37.182896 C28.599618,36.114227 28.650507,35.927634 28.854063,35.995486 C29.125471,36.097264 29.210286,35.808893 28.972804,35.656226 C28.769248,35.537485 28.752285,34.536668 28.955841,34.536668 C29.040656,34.536668 29.108508,34.384001 29.108508,34.197408 C29.108508,33.993852 29.362953,33.705481 29.787028,33.434073 C30.669104,32.874294 31.585106,32.874294 32.348441,33.434073 C32.670738,33.654592 33.24748,34.010815 33.654592,34.214371 C34.044741,34.417927 34.367038,34.706298 34.384001,34.858965 C34.384001,35.079484 34.417927,35.096447 34.485779,34.875928 C34.536668,34.740224 34.689335,34.553631 34.808076,34.485779 C34.94378,34.417927 35.045558,34.146519 35.045558,33.892074 C35.045558,33.637629 35.198225,33.24748 35.384818,33.009998 C35.571411,32.772516 35.724078,32.518071 35.724078,32.450219 C35.724078,32.365404 35.995486,32.026144 36.317783,31.686884 C36.64008,31.347624 36.826673,31.04229 36.741858,31.008364 C36.64008,30.974438 36.572228,30.838734 36.572228,30.70303 C36.572228,30.567326 36.521339,30.482511 36.453487,30.482511 C36.182079,30.5334 35.215188,30.245029 35.215188,30.126288 C35.215188,29.956658 34.214371,29.719176 34.078667,29.837917 C34.044741,29.888806 34.078667,30.075399 34.180445,30.245029 C34.350075,30.5334 34.350075,30.5334 34.367038,30.245029 C34.367038,30.075399 34.451853,29.990584 34.536668,30.041473 C34.638446,30.109325 34.672372,30.211103 34.621483,30.295918 C34.570594,30.380733 34.60452,30.482511 34.706298,30.550363 C35.011632,30.736956 34.892891,31.144068 34.536668,31.144068 C34.197408,31.144068 34.061704,31.55118 34.350075,31.737773 C34.553631,31.856514 34.536668,32.840368 34.333112,32.840368 C34.26526,32.840368 34.197408,32.772516 34.197408,32.670738 C34.197408,32.585923 34.09563,32.501108 33.959926,32.501108 C33.841185,32.501108 33.637629,32.382367 33.518888,32.246663 C33.400147,32.110959 33.094813,31.992218 32.823405,31.992218 C31.907403,31.992218 31.279772,30.177177 31.958292,29.481694 C32.195774,29.210286 32.212737,28.989767 31.992218,28.854063 C31.907403,28.803174 31.873477,28.650507 31.941329,28.49784 C32.009181,28.311247 32.093996,28.294284 32.263626,28.446951 C32.450219,28.599618 32.501108,28.582655 32.501108,28.362136 C32.501108,28.209469 32.416293,28.090728 32.314515,28.090728 C32.178811,28.090728 32.178811,28.005913 32.331478,27.836283 C32.704664,27.395245 32.246663,27.055985 31.466365,27.174726 C31.025327,27.259541 30.686067,27.208652 30.431622,27.039022 C30.19414,26.886355 29.820954,26.818503 29.51562,26.852429 C28.718359,26.97117 27.98895,26.530132 27.853246,25.834649 C27.683616,24.93561 26.564058,23.91783 25.291833,23.493755 C24.545461,23.256273 24.42672,23.154495 24.307979,22.611679 C24.172275,22.068863 24.070497,21.967085 23.493755,21.814418 C23.120569,21.71264 22.73042,21.475158 22.611679,21.305528 C22.374197,20.915379 21.780492,20.86449 21.441232,21.186787 C21.322491,21.322491 21.000194,21.475158 20.728786,21.54301 C20.287748,21.644788 20.253822,21.627825 20.372563,21.271602 C20.728786,20.118118 20.69486,20.033303 19.999377,20.033303 C19.643154,20.033303 19.269968,20.101155 19.151227,20.169007 C18.930708,20.304711 17.64152,20.152044 17.234408,19.931525 C16.912111,19.778858 16.878185,18.930708 17.183519,18.930708 C17.30226,18.930708 17.404038,18.862856 17.404038,18.761078 C17.404038,18.676263 17.505816,18.642337 17.624557,18.693226 C18.014706,18.845893 18.761078,18.455744 18.6593,18.167373 C18.608411,18.031669 18.642337,17.912928 18.761078,17.912928 C18.862856,17.912928 18.896782,17.997743 18.845893,18.082558 C18.6593,18.387892 19.269968,18.252188 19.643154,17.912928 C19.863673,17.726335 19.914562,17.573668 19.795821,17.573668 C19.643154,17.573668 19.660117,17.488853 19.84671,17.30226 C19.999377,17.166556 20.118118,16.963 20.118118,16.878185 C20.118118,16.79337 20.236859,16.725518 20.389526,16.725518 C20.52523,16.725518 20.593082,16.657666 20.542193,16.555888 C20.491304,16.471073 20.508267,16.386258 20.593082,16.386258 C20.677897,16.386258 20.745749,16.28448 20.745749,16.182702 C20.745749,16.063961 20.779675,15.894331 20.813601,15.792553 C20.881453,15.555071 20.643971,13.858771 20.440415,13.197214 C20.236859,12.586546 19.761895,12.247286 19.269968,12.399953 C18.981597,12.484768 16.708555,12.654398 14.571217,12.72225 C14.07929,12.739213 13.638252,12.807065 13.5704,12.874917 C13.332918,13.112399 12.705287,12.993658 12.399953,12.654398 C12.230323,12.467805 11.958915,12.315138 11.806248,12.315138 C11.331284,12.315138 11.093802,11.908026 11.280395,11.416099 C11.36521,11.19558 11.466988,10.483134 11.483951,9.83854 C11.53484,8.600241 11.144691,7.175349 10.635801,6.768237 C10.500097,6.649496 10.432245,6.547718 10.483134,6.547718 C10.550986,6.547718 10.534023,6.327199 10.449208,6.038828 C10.364393,5.733494 10.364393,5.529938 10.466171,5.529938 C10.550986,5.529938 10.618838,5.411197 10.618838,5.275493 C10.618838,5.139789 10.720616,5.038011 10.839357,5.071937 C11.059876,5.105863 11.093802,4.24075 10.890246,3.494378 C10.771505,3.087266 10.805431,3.070303 11.500914,3.087266 C11.908026,3.087266 12.399953,3.155118 12.620472,3.22297 C13.23114,3.426526 13.672178,3.172081 13.960549,2.459635 C14.24892,1.713263 14.893514,1.407929 15.249737,1.848967 C15.622923,2.306968 16.62374,2.629265 17.658483,2.646228 C18.218262,2.646228 18.811967,2.646228 18.981597,2.663191 C19.134264,2.663191 19.388709,2.900673 19.524413,3.172081 C19.711006,3.511341 19.965451,3.714897 20.304711,3.782749 C20.69486,3.850601 20.881453,4.037194 21.085009,4.529121 C21.220713,4.902307 21.441232,5.190678 21.559973,5.190678 C21.678714,5.190678 21.865307,5.309419 21.984048,5.445123 C22.170641,5.665642 22.153678,5.750457 21.950122,5.920087 C21.54301,6.242384 21.492121,6.632533 21.780492,7.090534 C22.39116,7.989573 23.425903,9.092168 23.663385,9.092168 C23.799089,9.092168 24.307979,9.295724 24.799906,9.550169 C25.715908,10.00817 26.224798,10.68669 25.885538,11.02595 C25.800723,11.110765 25.715908,11.36521 25.715908,11.568766 C25.715908,12.399953 27.513986,12.705287 28.548729,12.04373 C29.108508,11.687507 29.498657,11.755359 30.109325,12.298175 C30.431622,12.586546 30.889623,12.857954 31.161031,12.908843 C31.432439,12.976695 31.737773,13.163288 31.822588,13.332918 C31.907403,13.502548 32.093996,13.672178 32.2297,13.723067 C32.585923,13.858771 34.027778,13.197214 34.027778,12.89188 C34.027778,12.756176 34.129556,12.501731 34.248297,12.298175 C34.417927,12.009804 34.400964,11.924989 34.146519,11.721433 C33.926,11.568766 33.892074,11.466988 34.044741,11.382173 C34.146519,11.314321 34.299186,11.348247 34.367038,11.483951 C34.485779,11.653581 34.553631,11.653581 34.77415,11.483951 C34.926817,11.348247 35.045558,11.144691 35.045558,11.02595 C35.045558,10.890246 35.198225,10.788468 35.384818,10.788468 C35.571411,10.788468 35.724078,10.737579 35.724078,10.652764 C35.724078,10.398319 37.420378,9.193946 37.810527,9.176983 C38.031046,9.176983 38.404232,8.973427 38.641714,8.718982 C38.879196,8.447574 39.201493,8.244018 39.35416,8.244018 C39.506827,8.244018 39.625568,8.125277 39.625568,7.97261 C39.625568,7.819943 39.846087,7.616387 40.134458,7.514609 C40.507644,7.378905 40.694237,7.141423 40.897793,6.547718 C41.067423,6.072754 41.101349,5.76742 40.982608,5.733494 C40.897793,5.699568 40.812978,5.529938 40.812978,5.377271 C40.812978,4.987122 39.252382,4.630899 38.031046,4.74964 C37.030229,4.834455 36.741858,4.74964 36.741858,4.342528 C36.741858,4.054157 38.268528,3.155118 38.743492,3.155118 C38.84527,3.155118 38.997937,3.05334 39.065789,2.934599 C39.133641,2.798895 39.371123,2.663191 39.591642,2.595339 C40.015717,2.493561 40.37194,2.951562 40.20231,3.3926 C40.151421,3.545267 40.151421,3.867564 40.20231,4.105046 C40.287125,4.444306 40.388903,4.512158 40.660311,4.427343 C41.084386,4.291639 41.830758,4.91927 41.830758,5.411197 C41.830758,5.580827 41.983425,5.76742 42.170018,5.818309 C42.644982,5.93705 42.611056,6.581644 42.085203,6.886978 C41.712017,7.12446 41.695054,7.192312 41.881647,7.565498 C42.051277,7.904758 42.203944,7.97261 42.594093,7.938684 C42.882464,7.904758 43.136909,7.80298 43.153872,7.718165 C43.187798,7.63335 43.340465,7.429794 43.493132,7.29409 C43.747577,7.039645 43.781503,7.039645 43.93417,7.378905 C44.154689,7.887795 43.645799,8.396685 42.170018,9.109131 C41.169201,9.584095 41.033497,9.719799 41.169201,9.974244 C41.254016,10.143874 41.270979,10.279578 41.203127,10.296541 C41.135275,10.296541 40.745126,10.313504 40.354977,10.34743 C39.778235,10.381356 39.506827,10.51706 39.031863,11.008987 C38.709566,11.348247 38.438158,11.755359 38.438158,11.924989 C38.421195,12.349064 38.132824,12.688324 37.386452,13.129362 C36.690969,13.553437 36.436524,14.062327 36.741858,14.435513 C36.860599,14.58818 36.877562,14.689958 36.741858,14.774773 C36.402598,14.978329 36.572228,15.300626 37.132007,15.504182 C37.810527,15.741664 38.302454,15.77559 37.963194,15.572034 C37.810527,15.470256 37.793564,15.300626 37.912305,14.995292 C38.115861,14.435513 38.438158,14.231957 38.624751,14.537291 C38.726529,14.723884 38.777418,14.672995 38.777418,14.401587 C38.777418,14.198031 38.862233,13.977512 38.947048,13.926623 C39.048826,13.875734 39.116678,13.977512 39.116678,14.164105 C39.116678,14.350698 39.201493,14.554254 39.320234,14.622106 C39.455938,14.706921 39.472901,14.656032 39.405049,14.452476 C39.337197,14.282846 39.388086,14.045364 39.557716,13.892697 C39.744309,13.689141 39.761272,13.587363 39.625568,13.502548 C39.405049,13.366844 40.20231,12.654398 40.575496,12.654398 C40.7112,12.654398 40.948682,12.501731 41.101349,12.315138 C41.270979,12.128545 41.593276,11.975878 41.830758,11.958915 L42.254833,11.941952 L41.830758,11.806248 C41.423646,11.670544 41.423646,11.670544 41.949499,11.653581 C42.23787,11.636618 42.543204,11.568766 42.594093,11.466988 C42.644982,11.382173 42.831575,11.297358 43.001205,11.297358 C43.153872,11.297358 43.679725,11.008987 44.154689,10.669727 L45.036765,10.025133 L44.934987,8.973427 C44.850172,7.989573 44.867135,7.921721 45.308173,7.63335 C45.579581,7.46372 45.681359,7.29409 45.562618,7.226238 C45.325136,7.073571 45.528692,6.547718 45.817063,6.547718 C45.952767,6.547718 46.173286,6.428977 46.30899,6.27631 C46.580398,6.021865 46.580398,5.716531 46.325953,5.122826 C46.258101,4.953196 46.258101,4.766603 46.359879,4.698751 C46.444694,4.647862 46.563435,4.461269 46.631287,4.308602 C46.750028,3.969342 47.089288,3.90149 47.089288,4.206824 C47.089288,4.630899 47.733882,3.782749 47.852623,3.206007 C47.954401,2.680154 48.00529,2.629265 48.378476,2.71408 C48.666847,2.798895 48.785588,2.748006 48.785588,2.561413 C48.785588,2.425709 48.870403,2.306968 48.955218,2.306968 C49.056996,2.306968 49.124848,2.391783 49.124848,2.476598 C49.124848,2.578376 49.209663,2.646228 49.294478,2.646228 C49.396256,2.646228 49.464108,2.459635 49.464108,2.222153 C49.464108,1.984671 49.548923,1.798078 49.633738,1.798078 C49.956035,1.798078 49.888183,2.663191 49.514997,3.409563 C49.328404,3.765786 49.328404,3.850601 49.481071,3.714897 C49.599812,3.596156 49.837294,3.494378 50.023887,3.494378 C50.261369,3.494378 50.312258,3.579193 50.227443,3.850601 C50.125665,4.138972 50.176554,4.189861 50.515814,4.138972 C50.821148,4.105046 50.889,4.155935 50.855074,4.41038 C50.804185,4.698751 50.821148,4.715714 51.05863,4.529121 C51.211297,4.393417 51.330038,4.359491 51.330038,4.427343 C51.330038,4.495195 51.448779,4.461269 51.584483,4.342528 C51.720187,4.223787 51.838928,3.986305 51.838928,3.799712 C51.838928,3.494378 51.855891,3.494378 52.110336,3.73186 C52.347818,3.969342 52.330855,4.037194 52.025521,4.376454 C51.821965,4.58001 51.669298,4.681788 51.669298,4.613936 C51.669298,4.359491 51.126482,4.91927 50.973815,5.309419 C50.889,5.546901 50.685444,5.699568 50.481888,5.699568 C50.244406,5.699568 50.074776,5.869198 49.956035,6.208458 C49.854257,6.496829 49.70159,6.717348 49.616775,6.717348 C49.430182,6.717348 48.921292,7.701202 48.989144,7.938684 C49.02307,8.040462 49.294478,7.921721 49.582849,7.667276 C50.108702,7.226238 50.414036,7.090534 50.227443,7.395868 C50.159591,7.497646 50.244406,7.514609 50.414036,7.446757 C50.651518,7.361942 50.685444,7.395868 50.583666,7.667276 C50.481888,7.921721 50.498851,7.955647 50.668481,7.786017 C51.075593,7.378905 51.22826,7.565498 50.838111,7.97261 C50.447962,8.379722 50.447962,8.379722 50.787222,8.566315 C51.041667,8.702019 51.177371,8.702019 51.262186,8.549352 C51.330038,8.430611 51.313075,8.413648 51.194334,8.4815 C51.075593,8.549352 50.990778,8.515426 50.990778,8.430611 C50.990778,8.108314 51.448779,8.227055 51.550557,8.566315 C51.618409,8.871649 51.686261,8.871649 52.195151,8.685056 C52.517448,8.583278 52.941523,8.396685 53.162042,8.277944 C53.687895,7.989573 54.230711,8.074388 54.586934,8.515426 C54.807453,8.786834 55.061898,8.871649 55.502936,8.854686 C55.825233,8.837723 56.181456,8.922538 56.283234,9.058242 C56.48679,9.295724 56.48679,9.295724 55.893085,9.550169 C55.367232,9.770688 54.637823,11.110765 54.892268,11.36521 C54.994046,11.466988 55.061898,11.70447 55.061898,11.908026 C55.061898,12.128545 55.197602,12.315138 55.384195,12.366027 C55.655603,12.433879 55.723455,12.620472 55.774344,13.265066 C55.825233,13.977512 55.893085,14.130179 56.300197,14.316772 C56.622494,14.469439 56.758198,14.672995 56.758198,14.961366 C56.758198,15.198848 56.978717,15.622923 57.267088,15.928257 C57.538496,16.233591 57.775978,16.572851 57.775978,16.691592 C57.775978,16.79337 57.962571,16.895148 58.200053,16.895148 C58.454498,16.895148 58.624128,16.79337 58.624128,16.640703 C58.624128,16.386258 59.506204,16.148776 60.439169,16.165739 C60.744503,16.182702 60.948059,16.11485 60.89717,16.030035 C60.846281,15.94522 60.72754,15.877368 60.642725,15.877368 C60.422206,15.877368 59.70976,15.198848 59.913316,15.181885 C60.133835,15.147959 60.354354,15.09707 60.795392,14.944403 C61.100726,14.842625 61.168578,14.706921 61.134652,14.367661 C61.083763,13.994475 61.151615,13.926623 61.57569,13.875734 C61.897987,13.841808 62.118506,13.90966 62.220284,14.07929 C62.305099,14.231957 62.559544,14.350698 62.780063,14.350698 C63.000582,14.350698 63.238064,14.435513 63.288953,14.520328 C63.339842,14.622106 63.662139,14.689958 63.984436,14.689958 C64.391548,14.689958 64.561178,14.774773 64.561178,14.944403 C64.561178,15.232774 64.645993,15.181885 65.426291,14.486402 C65.595921,14.316772 65.850366,14.181068 65.969107,14.181068 C66.087848,14.181068 66.342293,14.062327 66.528886,13.926623 C66.698516,13.790919 66.952961,13.672178 67.088665,13.672178 C67.224369,13.672178 67.461851,13.553437 67.631481,13.40077 C67.885926,13.180251 68.038593,13.163288 68.462668,13.298992 C68.886743,13.451659 69.073336,13.434696 69.531337,13.180251 C69.819708,12.993658 70.345561,12.807065 70.667858,12.739213 C70.990155,12.671361 71.617786,12.399953 72.041861,12.128545 C72.737344,11.687507 72.923937,11.636618 73.738161,11.738396 L74.654163,11.840174 L75.756758,10.873283 C77.622688,9.261798 82.117883,7.209275 81.812549,8.125277 C81.778623,8.227055 81.625956,8.328833 81.473289,8.328833 C81.303659,8.328833 80.455509,9.126094 79.573433,10.092985 C78.182467,11.585729 77.961948,11.924989 77.961948,12.416916 C77.961948,12.976695 77.470021,13.672178 76.893279,13.90966 C76.757575,13.960549 76.740612,14.028401 76.859353,14.130179 C76.961131,14.198031 77.113798,14.486402 77.198613,14.75781 C77.368243,15.283663 78.233356,15.877368 78.606542,15.741664 C78.70832,15.707738 78.810098,15.77559 78.810098,15.911294 C78.810098,16.250554 79.234173,16.606777 80.336768,17.166556 C80.845658,17.437964 81.303659,17.675446 81.354548,17.709372 C81.405437,17.743298 81.218844,17.946854 80.930473,18.167373 C80.523361,18.506633 80.438546,18.693226 80.472472,19.16819 C80.506398,19.643154 80.387657,19.897599 79.946619,20.406489 C79.21721,21.220713 79.04758,21.54301 78.911876,22.442049 C78.810098,23.154495 78.810098,23.154495 79.437729,23.324125 C79.793952,23.425903 80.472472,23.510718 80.947436,23.510718 C81.405437,23.510718 81.880401,23.595533 81.982179,23.697311 C82.321439,24.036571 84.407888,23.934793 85.510483,23.544644 C86.273818,23.256273 86.714856,23.188421 87.325524,23.273236 C87.885303,23.358051 88.139748,23.324125 88.139748,23.188421 C88.139748,23.086643 88.292415,23.001828 88.462045,23.001828 C88.648638,23.001828 88.903083,22.883087 89.05575,22.747383 C89.361084,22.425086 89.768196,22.425086 89.886937,22.73042 C89.954789,22.90005 90.175308,22.950939 90.633309,22.883087 C91.837682,22.73042 92.10909,23.714274 90.972569,24.104423 C90.107456,24.392794 89.751233,24.698128 90.039604,24.901684 C90.260123,25.054351 90.141382,25.173092 89.157528,25.885538 C88.818268,26.12302 88.801305,26.190872 88.987898,26.937244 C89.157528,27.632727 89.157528,27.785394 88.88612,28.243395 C88.462045,28.955841 87.936192,28.938878 87.274635,28.175543 C86.562189,27.378282 86.00241,27.378282 85.425668,28.192506 C85.188186,28.514803 84.815,29.023693 84.594481,29.295101 C84.204332,29.787028 84.204332,29.820954 84.492703,30.126288 C84.662333,30.312881 85.018556,30.465548 85.289964,30.465548 C86.426485,30.465548 86.833597,31.822588 85.951521,32.636812 C85.32389,33.213554 85.086408,33.824222 85.086408,34.842002 C85.069445,36.758821 84.628407,38.658677 83.661516,40.796015 C82.999959,42.271796 82.762477,42.967279 82.881218,43.102983 C82.982996,43.221724 83.424034,43.442243 83.865072,43.611873 C85.595298,44.256467 87.427302,45.562618 87.461228,46.156323 C87.461228,46.258101 87.138931,46.64825 86.748782,47.038399 C85.917595,47.83566 84.882852,48.191883 82.881218,48.361513 C81.08314,48.531143 80.998325,48.548106 80.014471,48.972181 C79.352914,49.243589 79.081506,49.294478 78.945802,49.158774 C78.793135,49.006107 78.844024,48.870403 79.115432,48.615958 C79.318988,48.412402 79.55647,48.293661 79.641285,48.34455 C79.810915,48.446328 81.134029,47.83566 81.473289,47.513363 C81.795586,47.191066 81.744697,47.089288 81.269733,47.089288 C80.964399,47.089288 80.879584,47.021436 80.947436,46.834843 C81.032251,46.64825 80.981362,46.614324 80.777806,46.682176 C80.642102,46.733065 80.523361,46.834843 80.523361,46.885732 C80.57425,47.224992 80.268916,47.750845 79.980545,47.818697 C79.624322,47.920475 79.522544,47.66603 79.878767,47.547289 C79.980545,47.513363 79.776989,47.411585 79.403803,47.343733 C79.030617,47.275881 78.657431,47.15714 78.555653,47.089288 C78.470838,47.021436 78.0298,46.970547 77.571799,46.970547 C77.130761,46.953584 76.655797,46.868769 76.520093,46.750028 C76.401352,46.64825 76.112981,46.580398 75.892462,46.614324 C75.417498,46.682176 75.281794,47.191066 75.705869,47.309807 C75.875499,47.360696 75.705869,47.394622 75.332683,47.411585 C74.959497,47.411585 74.484533,47.309807 74.280977,47.174103 C74.094384,47.038399 73.670309,46.902695 73.364975,46.885732 C73.042678,46.868769 72.482899,46.665213 72.109713,46.461657 C71.736527,46.241138 71.278526,46.071508 71.091933,46.071508 C70.56608,46.054545 70.05719,45.681359 70.074153,45.308173 C70.074153,45.12158 69.955412,44.918024 69.819708,44.850172 C69.361707,44.646616 68.513557,44.714468 68.293038,44.968913 C68.174297,45.104617 67.970741,45.223358 67.835037,45.223358 C67.360073,45.223358 67.733259,45.63047 68.377853,45.8001 L69.022447,45.986693 L68.445705,46.427731 C67.987704,46.783954 67.614518,46.885732 66.630664,46.953584 C65.375402,47.038399 64.832586,46.868769 65.748588,46.665213 C66.223552,46.563435 66.257478,46.495583 66.257478,45.834026 C66.257478,45.223358 66.32533,45.070691 66.681553,44.918024 C67.122591,44.714468 67.207406,44.460023 66.952961,44.052911 C66.851183,43.883281 66.732442,43.866318 66.461034,44.018985 C66.274441,44.120763 65.952144,44.205578 65.765551,44.205578 C65.561995,44.205578 65.409328,44.324319 65.409328,44.476986 C65.409328,44.646616 65.239698,44.578764 64.866512,44.222541 C64.561178,43.93417 64.187992,43.696688 64.052288,43.696688 C63.916584,43.696688 63.577324,43.510095 63.305916,43.306539 L62.813989,42.91639 L63.204138,42.543204 C63.831769,41.966462 63.458583,41.762906 62.305099,42.06824 C61.796209,42.203944 61.202504,42.4075 60.981985,42.509278 C60.710577,42.661945 60.523984,42.661945 60.235613,42.509278 C59.828501,42.288759 59.845464,41.830758 60.252576,41.830758 C60.38828,41.830758 60.490058,41.762906 60.490058,41.661128 C60.490058,41.576313 60.710577,41.491498 60.981985,41.491498 C61.253393,41.491498 61.507838,41.38972 61.57569,41.237053 C61.728357,40.796015 60.710577,40.863867 59.828501,41.338831 C59.489241,41.508461 59.082129,41.661128 58.929462,41.661128 C58.759832,41.661128 58.624128,41.762906 58.624128,41.881647 C58.624128,42.017351 58.471461,42.254833 58.284868,42.424463 C58.030423,42.661945 57.996497,42.797649 58.132201,43.052094 C58.335757,43.442243 57.996497,43.781503 57.233162,43.951133 C56.99568,44.002022 56.758198,44.154689 56.707309,44.27343 C56.639457,44.426097 56.944791,44.409134 58.01346,44.205578 C61.541764,43.476169 62.525618,43.476169 63.577324,44.222541 C64.12014,44.61269 64.171029,44.985876 63.746954,45.511729 C63.458583,45.867952 62.203321,46.47862 62.050654,46.342916 C62.016728,46.292027 61.728357,46.376842 61.439986,46.529509 C61.151615,46.682176 60.880207,46.800917 60.829318,46.800917 C60.693614,46.783954 60.303465,46.936621 59.472278,47.292844 C59.048203,47.479437 57.996497,47.699956 57.148347,47.801734 C56.113604,47.920475 55.570788,48.056179 55.570788,48.191883 C55.570788,48.429365 54.400341,48.666847 54.145896,48.480254 C54.044118,48.412402 53.620043,48.395439 53.195968,48.446328 L52.432633,48.531143 L52.992412,48.734699 C53.314709,48.85344 53.518265,49.006107 53.467376,49.090922 C53.331672,49.311441 51.363964,49.837294 51.160408,49.718553 C51.05863,49.667664 50.990778,49.70159 50.990778,49.786405 C50.990778,49.888183 50.736333,49.972998 50.414036,49.972998 C50.023887,49.972998 49.769442,49.854257 49.582849,49.599812 C49.396256,49.328404 49.311441,49.294478 49.294478,49.464108 C49.294478,49.599812 49.090922,49.820331 48.836477,49.939072 C48.276698,50.193517 48.157957,50.193517 48.022253,49.956035 Z M48.785588,49.633738 C48.785588,49.548923 48.700773,49.464108 48.598995,49.464108 C48.51418,49.464108 48.480254,49.548923 48.531143,49.633738 C48.582032,49.735516 48.666847,49.803368 48.717736,49.803368 C48.751662,49.803368 48.785588,49.735516 48.785588,49.633738 Z M50.651518,49.735516 C50.651518,49.582849 50.142628,49.498034 50.057813,49.633738 C49.989961,49.735516 50.108702,49.803368 50.295295,49.803368 C50.498851,49.803368 50.651518,49.769442 50.651518,49.735516 Z M42.848538,48.107068 C42.848538,48.022253 42.729797,47.988327 42.594093,48.039216 C42.458389,48.107068 42.339648,48.17492 42.339648,48.208846 C42.339648,48.242772 42.458389,48.276698 42.594093,48.276698 C42.729797,48.276698 42.848538,48.208846 42.848538,48.107068 Z M41.152238,47.767808 C41.152238,47.682993 41.016534,47.598178 40.863867,47.598178 C40.609422,47.598178 40.592459,47.632104 40.812978,47.767808 C41.135275,47.971364 41.152238,47.971364 41.152238,47.767808 Z M39.35416,46.64825 C39.405049,46.512546 39.388086,46.444694 39.286308,46.495583 C39.18453,46.546472 39.116678,46.665213 39.116678,46.766991 C39.116678,47.004473 39.235419,46.953584 39.35416,46.64825 Z M40.694237,46.800917 C40.575496,46.766991 40.37194,46.766991 40.270162,46.800917 C40.151421,46.851806 40.236236,46.885732 40.473718,46.885732 C40.7112,46.885732 40.796015,46.851806 40.694237,46.800917 Z M48.259735,43.08602 C48.615958,43.018168 48.785588,42.882464 48.785588,42.678908 C48.785588,42.441426 48.700773,42.390537 48.429365,42.458389 C48.157957,42.526241 48.090105,42.492315 48.140994,42.322685 C48.242772,42.051277 47.191066,40.982608 46.81788,40.982608 C46.682176,40.982608 46.580398,40.914756 46.580398,40.846904 C46.580398,40.609422 45.596544,40.134458 45.342099,40.236236 C45.206395,40.287125 45.036765,40.253199 44.968913,40.151421 C44.918024,40.049643 44.985876,39.913939 45.12158,39.86305 C45.359062,39.778235 45.359062,39.727346 45.138543,39.52379 C44.95195,39.337197 44.934987,39.18453 45.053728,38.947048 C45.155506,38.760455 45.29121,38.472084 45.359062,38.319417 C45.443877,38.149787 45.477803,37.623934 45.46084,37.14897 C45.426914,36.419561 45.46084,36.283857 45.698322,36.30082 C45.850989,36.30082 45.96973,36.232968 45.952767,36.13119 C45.935804,36.012449 46.173286,35.876745 46.495583,35.825856 C46.800917,35.758004 47.089288,35.639263 47.123214,35.537485 C47.15714,35.418744 47.632104,35.486596 48.429365,35.690152 C49.124848,35.876745 49.803368,35.995486 49.922109,35.944597 C50.057813,35.893708 50.227443,35.927634 50.295295,36.029412 C50.346184,36.13119 50.939889,36.249931 51.584483,36.30082 C52.568337,36.368672 52.839745,36.334746 53.195968,36.063338 C53.670932,35.707115 53.620043,35.571411 52.975449,35.520522 C52.721004,35.503559 52.517448,35.384818 52.517448,35.249114 C52.517448,35.028595 51.669298,35.045558 49.972998,35.266077 C49.175737,35.367855 47.191066,34.468816 47.733882,34.248297 C48.022253,34.129556 47.988327,33.841185 47.682993,33.959926 C47.547289,34.027778 47.428548,34.163482 47.428548,34.299186 C47.428548,34.43489 47.32677,34.536668 47.224992,34.519705 C46.902695,34.502742 46.292027,34.231334 46.546472,34.214371 C46.851806,34.197408 46.800917,33.858148 46.47862,33.858148 C46.258101,33.858148 46.224175,33.75637 46.325953,33.400147 C46.461657,32.840368 46.597361,32.687701 46.699139,32.976072 C46.750028,33.07785 46.919658,33.179628 47.106251,33.179628 C47.275881,33.179628 47.428548,33.24748 47.428548,33.332295 C47.428548,33.535851 48.090105,33.688518 48.208846,33.501925 C48.259735,33.41711 48.429365,33.349258 48.582032,33.349258 C49.158774,33.349258 48.989144,31.669921 48.429365,31.652958 C48.378476,31.652958 48.056179,31.907403 47.699956,32.2297 C47.123214,32.73859 47.004473,32.772516 46.580398,32.619849 C45.918841,32.365404 45.494766,31.347624 45.613507,30.295918 C45.715285,29.430805 45.426914,28.938878 44.833209,28.938878 C44.680542,28.938878 44.544838,28.820137 44.544838,28.684433 C44.544838,28.531766 44.358245,28.345173 44.137726,28.226432 C43.679725,28.022876 43.102983,28.15858 43.272613,28.429988 C43.577947,28.921915 41.169201,28.701396 40.728163,28.175543 C40.643348,28.073765 40.083569,27.887172 39.506827,27.751468 C38.404232,27.530949 37.929268,27.64969 37.929268,28.175543 C37.929268,28.650507 37.454304,28.582655 35.825856,27.853246 C35.469633,27.700579 35.130373,27.615764 35.062521,27.666653 C34.926817,27.81932 35.724078,28.446951 35.893708,28.345173 C35.96156,28.294284 36.063338,28.379099 36.13119,28.514803 C36.182079,28.650507 36.351709,28.769248 36.487413,28.769248 C36.64008,28.769248 36.707932,28.854063 36.657043,28.938878 C36.589191,29.040656 36.453487,29.057619 36.351709,28.989767 C36.216005,28.904952 36.216005,28.955841 36.351709,29.142434 C36.47045,29.278138 36.521339,29.447768 36.453487,29.498657 C36.402598,29.566509 36.436524,29.617398 36.538302,29.617398 C36.657043,29.617398 36.741858,29.753102 36.758821,29.922732 C36.775784,30.109325 36.826673,30.058436 36.894525,29.787028 C36.996303,29.413842 37.115044,29.362953 37.759638,29.362953 C38.387269,29.362953 38.522973,29.430805 38.590825,29.702213 C38.67564,30.19414 39.116678,30.448585 39.846087,30.465548 C40.321051,30.465548 40.473718,30.5334 40.473718,30.770882 C40.473718,31.008364 40.507644,31.025327 40.643348,30.804808 C40.728163,30.669104 40.829941,30.601252 40.863867,30.635178 C41.067423,30.855697 41.474535,32.06007 41.38972,32.144885 C41.321868,32.195774 41.237053,32.144885 41.203127,32.043107 C41.067423,31.652958 40.796015,31.805625 40.897793,32.212737 C40.982608,32.518071 41.084386,33.128739 41.135275,33.705481 C41.152238,33.773333 41.321868,33.875111 41.542387,33.942963 C41.745943,34.010815 41.949499,34.078667 42.000388,34.09563 C42.051277,34.112593 42.254833,34.180445 42.475352,34.26526 C42.678908,34.333112 42.848538,34.502742 42.848538,34.655409 C42.848538,34.808076 42.967279,35.011632 43.102983,35.11341 C43.306539,35.266077 43.306539,35.367855 43.136909,35.707115 C42.933353,36.13119 42.797649,36.216005 41.915573,36.606154 C41.38972,36.843636 41.203127,37.233785 41.423646,37.725712 C41.491498,37.878379 41.542387,38.217639 41.542387,38.455121 C41.542387,38.743492 41.695054,38.997937 42.017351,39.218456 C42.288759,39.388086 42.509278,39.625568 42.509278,39.710383 C42.509278,39.880013 43.696688,40.473718 44.052911,40.473718 C44.137726,40.473718 44.493949,40.745126 44.850172,41.084386 C45.308173,41.525424 45.409951,41.712017 45.240321,41.813795 C45.053728,41.932536 45.087654,42.06824 45.392988,42.475352 C45.613507,42.763723 45.850989,42.967279 45.935804,42.91639 C46.003656,42.865501 46.071508,42.91639 46.071508,43.001205 C46.071508,43.204761 47.411585,43.25565 48.259735,43.08602 Z M35.045558,41.457572 C35.045558,41.22009 34.231334,40.473718 33.976889,40.473718 C33.892074,40.473718 33.909037,40.592459 34.027778,40.728163 C34.146519,40.863867 34.180445,40.982608 34.112593,40.982608 C34.027778,40.982608 34.146519,41.135275 34.367038,41.321868 C34.808076,41.712017 35.045558,41.745943 35.045558,41.457572 Z M31.941329,39.52379 C31.89044,39.472901 31.737773,39.455938 31.619032,39.506827 C31.483328,39.557716 31.534217,39.608605 31.72081,39.608605 C31.907403,39.625568 32.009181,39.574679 31.941329,39.52379 Z M35.554448,28.938878 C35.554448,28.871026 35.435707,28.752285 35.28304,28.701396 C35.147336,28.650507 35.079484,28.66747 35.130373,28.769248 C35.181262,28.871026 35.147336,28.938878 35.062521,28.938878 C34.960743,28.938878 34.875928,29.00673 34.875928,29.091545 C34.875928,29.17636 35.028595,29.210286 35.215188,29.159397 C35.401781,29.108508 35.554448,29.00673 35.554448,28.938878 Z M45.766174,28.904952 C45.647433,28.786211 45.562618,28.769248 45.562618,28.871026 C45.562618,29.108508 45.766174,29.312064 45.884915,29.193323 C45.918841,29.142434 45.867952,29.00673 45.766174,28.904952 Z M34.706298,28.616581 C34.706298,28.701396 34.808076,28.684433 34.94378,28.565692 C35.300003,28.243395 34.791113,27.98895 34.26526,28.243395 C33.705481,28.49784 33.722444,28.803174 34.282223,28.599618 C34.553631,28.49784 34.706298,28.49784 34.706298,28.616581 Z M28.854063,25.563241 C28.803174,25.461463 28.66747,25.376648 28.582655,25.376648 C28.49784,25.376648 28.514803,25.478426 28.633544,25.61413 C28.871026,25.885538 29.040656,25.834649 28.854063,25.563241 Z M66.596738,17.421001 C66.274441,17.251371 65.952144,17.13263 65.884292,17.183519 C65.799477,17.217445 65.748588,17.149593 65.748588,17.013889 C65.748588,16.878185 65.918218,16.708555 66.138737,16.657666 C66.461034,16.555888 66.477997,16.521962 66.240515,16.386258 C66.087848,16.301443 65.901255,16.030035 65.850366,15.77559 C65.731625,15.351515 65.697699,15.334552 64.730808,15.419367 C64.187992,15.453293 63.662139,15.419367 63.577324,15.334552 C63.475546,15.232774 63.27199,15.351515 63.068434,15.622923 L62.712211,16.080924 L63.170212,16.572851 C63.424657,16.844259 63.865695,17.081741 64.137103,17.13263 C64.425474,17.166556 64.781697,17.251371 64.96829,17.319223 C65.409328,17.505816 66.274441,17.709372 66.766368,17.726335 C67.139554,17.743298 67.122591,17.709372 66.596738,17.421001 Z M47.428548,4.970159 C47.513363,5.004085 47.547289,4.902307 47.4964,4.766603 C47.428548,4.630899 47.32677,4.512158 47.241955,4.512158 C47.15714,4.512158 47.038399,4.495195 46.970547,4.478232 C46.902695,4.444306 46.834843,4.698751 46.800917,5.021048 C46.750028,5.59779 46.750028,5.59779 47.021436,5.275493 C47.15714,5.0889 47.343733,4.953196 47.428548,4.970159 Z M50.651518,5.360308 C50.872037,5.224604 50.872037,5.190678 50.617592,5.190678 C50.464925,5.190678 50.278332,5.275493 50.227443,5.360308 C50.091739,5.580827 50.312258,5.580827 50.651518,5.360308 Z M49.582849,4.74964 C49.53196,4.698751 49.379293,4.681788 49.260552,4.732677 C49.124848,4.783566 49.175737,4.834455 49.36233,4.834455 C49.548923,4.851418 49.650701,4.800529 49.582849,4.74964 Z M49.922109,4.138972 C49.87122,4.003268 49.820331,4.054157 49.820331,4.24075 C49.803368,4.427343 49.854257,4.529121 49.905146,4.461269 C49.956035,4.41038 49.972998,4.257713 49.922109,4.138972 Z" id="path2387" fill-rule="nonzero"></path>
                <path d="M1.730226,44.1038 C1.577559,43.968096 1.306151,43.832392 1.119558,43.815429 C0.932965,43.798466 0.780298,43.696688 0.780298,43.577947 C0.780298,43.459206 0.712446,43.357428 0.644594,43.357428 C0.559779,43.357428 0.356223,43.238687 0.16963,43.102983 C-0.118741,42.848538 -0.067852,42.848538 0.916002,42.899427 C2.256079,42.984242 2.391783,42.594093 1.068669,42.4075 C0.271408,42.288759 0.067852,42.186981 0.186593,42.000388 C0.237482,41.915573 0.373186,41.830758 0.458001,41.830758 C0.559779,41.830758 0.593705,41.89861 0.542816,41.966462 C0.424075,42.170018 1.6963,41.983425 1.832004,41.762906 C2.086449,41.38972 1.967708,41.152238 1.543633,41.152238 C1.289188,41.152238 1.119558,41.05046 1.119558,40.914756 C1.119558,40.745126 1.323114,40.694237 1.933782,40.728163 C2.391783,40.762089 2.968525,40.677274 3.273859,40.524607 C3.935416,40.219273 5.42816,40.168384 6.123643,40.422829 C7.073571,40.779052 7.819943,41.016534 8.600241,41.237053 C9.66891,41.542387 10.788468,42.271796 10.788468,42.661945 C10.788468,42.848538 10.584912,43.052094 10.279578,43.187798 C10.00817,43.306539 9.821577,43.459206 9.872466,43.544021 C9.923355,43.628836 9.855503,43.696688 9.736762,43.696688 C9.601058,43.713651 9.651947,43.815429 9.855503,43.968096 C10.1778,44.222541 10.160837,44.239504 9.567132,44.137726 C9.210909,44.069874 8.905575,44.1038 8.837723,44.205578 C8.668093,44.476986 8.074388,44.409134 8.074388,44.120763 C8.074388,43.968096 7.921721,43.866318 7.701202,43.866318 C7.480683,43.866318 6.836089,43.866318 6.259347,43.866318 C5.445123,43.866318 5.173715,43.798466 5.038011,43.560984 C4.885344,43.289576 4.868381,43.289576 4.766603,43.577947 C4.596973,43.985059 4.172898,43.93417 4.172898,43.510095 C4.172898,43.272613 4.088083,43.187798 3.918453,43.238687 C3.782749,43.306539 3.630082,43.272613 3.579193,43.187798 C3.3926,42.899427 3.189044,43.001205 3.273859,43.340465 C3.324748,43.560984 3.172081,43.747577 2.731043,44.018985 C2.001634,44.44306 2.052523,44.44306 1.730226,44.1038 Z" id="path2389"></path>
                <path d="M16.335369,38.828307 C16.148776,38.658677 16.199665,38.234602 16.369295,38.353343 C16.45411,38.404232 16.589814,38.353343 16.657666,38.251565 C16.708555,38.149787 16.674629,37.99712 16.572851,37.929268 C16.420184,37.844453 16.45411,37.742675 16.657666,37.573045 C16.929074,37.369489 16.946037,37.369489 16.844259,37.623934 C16.79337,37.793564 16.810333,37.963194 16.912111,38.014083 C16.996926,38.081935 17.030852,38.183713 16.979963,38.268528 C16.929074,38.353343 16.963,38.455121 17.064778,38.522973 C17.149593,38.573862 17.234408,38.726529 17.234408,38.828307 C17.234408,38.964011 17.183519,38.964011 17.081741,38.794381 C16.979963,38.641714 16.895148,38.624751 16.827296,38.760455 C16.691592,38.964011 16.504999,38.997937 16.335369,38.828307 Z" id="path2391"></path>
                <path d="M19.965451,34.655409 C19.863673,34.553631 19.778858,34.367038 19.778858,34.248297 C19.778858,33.993852 19.066412,33.790296 18.506633,33.892074 C18.201299,33.959926 18.014706,33.875111 17.828113,33.569777 C17.387075,32.90822 16.895148,32.484145 16.708555,32.585923 C16.62374,32.653775 16.437147,32.602886 16.28448,32.501108 C16.097887,32.331478 16.080924,32.2297 16.250554,32.026144 C16.369295,31.89044 16.45411,31.737773 16.437147,31.703847 C16.403221,31.686884 16.386258,31.602069 16.386258,31.534217 C16.386258,31.449402 16.45411,31.500291 16.538925,31.635995 C16.62374,31.771699 16.725518,31.788662 16.79337,31.686884 C16.844259,31.585106 16.640703,31.415476 16.301443,31.313698 C15.979146,31.21192 15.707738,31.04229 15.707738,30.957475 C15.707738,30.855697 15.843442,30.87266 16.046998,30.974438 C16.318406,31.110142 16.386258,31.110142 16.386258,30.906586 C16.386258,30.770882 16.521962,30.635178 16.691592,30.584289 C16.912111,30.5334 16.878185,30.482511 16.521962,30.329844 C16.250554,30.228066 16.046998,30.058436 16.046998,29.973621 C16.046998,29.702213 16.386258,29.583472 16.62374,29.770065 C16.861222,29.956658 17.064778,29.85488 17.064778,29.549546 C17.064778,29.447768 16.979963,29.481694 16.895148,29.617398 C16.759444,29.837917 16.725518,29.820954 16.725518,29.566509 C16.725518,29.312064 16.810333,29.278138 17.234408,29.362953 C17.658483,29.447768 17.726335,29.430805 17.64152,29.210286 C17.590631,29.057619 17.47189,28.938878 17.387075,28.938878 C17.285297,28.938878 17.30226,28.769248 17.421001,28.582655 C17.522779,28.379099 17.658483,28.277321 17.726335,28.362136 C17.895965,28.599618 19.100338,28.599618 18.99856,28.362136 C18.964634,28.260358 19.066412,28.005913 19.236042,27.836283 C19.541376,27.48006 19.541376,26.903318 19.202116,26.699762 C19.100338,26.63191 18.727152,26.614947 18.387892,26.665836 C17.997743,26.699762 17.743298,26.665836 17.743298,26.564058 C17.743298,26.46228 17.828113,26.428354 17.912928,26.479243 C18.218262,26.665836 18.099521,26.411391 17.709372,26.055168 L17.319223,25.681982 L17.743298,25.749834 C18.48967,25.851612 18.370929,25.291833 17.573668,24.969536 C16.62374,24.59635 16.691592,24.138349 17.726335,24.08746 C18.540559,24.053534 19.151227,23.680348 18.404855,23.680348 C17.997743,23.680348 17.234408,23.137532 17.234408,22.849161 C17.234408,22.781309 16.963,22.577753 16.640703,22.408123 C16.318406,22.22153 16.097887,22.0519 16.148776,22.001011 C16.335369,21.814418 16.79337,21.848344 17.183519,22.102789 C17.421001,22.255456 17.760261,22.323308 18.048632,22.272419 C18.404855,22.204567 18.608411,22.272419 18.811967,22.492938 C19.032486,22.764346 19.269968,22.798272 20.270785,22.747383 C20.932342,22.713457 21.475158,22.747383 21.475158,22.832198 C21.475158,22.90005 21.797455,22.950939 22.204567,22.933976 C22.950939,22.883087 24.358868,23.375014 24.358868,23.663385 C24.358868,23.765163 24.240127,23.849978 24.104423,23.849978 C23.782126,23.849978 23.765163,24.291016 24.08746,24.409757 C24.562424,24.59635 24.901684,25.325759 24.715091,25.698945 C24.477609,26.12302 23.595533,26.326576 23.205384,26.021242 C22.950939,25.834649 22.933976,25.834649 23.137532,26.072131 C23.307162,26.29265 23.307162,26.445317 23.137532,26.835466 C23.035754,27.106874 22.933976,27.412208 22.933976,27.497023 C22.917013,27.717542 22.442049,28.175543 22.001011,28.429988 C21.814418,28.531766 21.593899,28.820137 21.54301,29.074582 C21.37338,29.719176 20.932342,30.278955 20.593082,30.295918 C20.18597,30.295918 20.202933,30.838734 20.627008,31.144068 C20.813601,31.279772 20.966268,31.483328 20.966268,31.585106 C20.966268,31.703847 21.085009,31.924366 21.237676,32.06007 C21.644788,32.484145 21.356417,32.670738 20.287748,32.670738 C19.744932,32.670738 19.236042,32.755553 19.185153,32.840368 C19.134264,32.942146 19.16819,33.009998 19.269968,33.009998 C19.388709,33.009998 19.660117,33.162665 19.897599,33.349258 C20.135081,33.535851 20.270785,33.688518 20.202933,33.688518 C20.118118,33.688518 20.219896,33.858148 20.406489,34.078667 C20.593082,34.282223 20.796638,34.536668 20.847527,34.638446 C21.000194,34.892891 20.202933,34.892891 19.965451,34.655409 Z M16.725518,32.331478 C16.725518,32.246663 16.640703,32.161848 16.538925,32.161848 C16.45411,32.161848 16.420184,32.246663 16.471073,32.331478 C16.521962,32.433256 16.606777,32.501108 16.657666,32.501108 C16.691592,32.501108 16.725518,32.433256 16.725518,32.331478 Z" id="path2393" fill-rule="nonzero"></path>
                <path d="M14.401587,29.312064 C13.994475,29.17636 13.197214,28.260358 13.502548,28.260358 C13.604326,28.260358 13.638252,28.175543 13.587363,28.090728 C13.536474,27.98895 13.146325,27.955024 12.72225,27.98895 C12.128545,28.056802 11.941952,28.005913 11.806248,27.751468 C11.687507,27.530949 11.70447,27.412208 11.857137,27.361319 C12.009804,27.293467 12.009804,27.242578 11.857137,27.055985 C11.53484,26.733688 11.585729,26.614947 12.060693,26.496206 C12.654398,26.343539 12.586546,26.055168 11.806248,25.478426 C11.178617,25.003462 10.890246,24.358868 11.314321,24.358868 C11.399136,24.358868 11.433062,24.274053 11.36521,24.155312 C11.280395,24.019608 11.331284,24.002645 11.517877,24.070497 C11.687507,24.121386 11.806248,24.104423 11.806248,24.002645 C11.806248,23.714274 13.112399,24.002645 13.977512,24.460646 C14.401587,24.681165 14.978329,24.867758 15.283663,24.867758 C15.758627,24.867758 15.843442,24.93561 16.013072,25.529315 C16.131813,25.885538 16.216628,26.479243 16.216628,26.852429 C16.216628,27.412208 16.28448,27.564875 16.640703,27.717542 C17.13263,27.938061 17.183519,28.362136 16.759444,28.871026 C16.420184,29.261175 15.080107,29.51562 14.401587,29.312064 Z" id="path2395"></path>
                <path d="M33.111776,11.772322 C33.043924,11.619655 32.806442,11.450025 32.585923,11.399136 C32.365404,11.348247 32.161848,11.161654 32.127922,10.992024 C32.026144,10.550986 32.280589,9.753725 32.602886,9.516243 C32.874294,9.32965 32.857331,9.278761 32.433256,9.007353 C32.077033,8.769871 31.941329,8.735945 31.839551,8.905575 C31.737773,9.058242 31.669921,9.024316 31.619032,8.803797 C31.568143,8.617204 31.635995,8.328833 31.754736,8.159203 C31.89044,7.989573 31.958292,7.684239 31.907403,7.497646 C31.652958,6.157569 31.652958,6.055791 32.026144,5.852235 C32.331478,5.699568 32.433256,5.716531 32.602886,5.954013 C32.721627,6.123643 32.942146,6.208458 33.07785,6.157569 C33.400147,6.021865 33.501925,6.344162 33.552814,7.786017 C33.603703,8.752908 33.552814,8.99039 33.298369,9.176983 C33.026961,9.380539 33.009998,9.482317 33.179628,10.059059 C33.400147,10.771505 33.349258,12.264249 33.111776,11.772322 Z" id="path2397"></path>
                <path d="M50.430999,1.170447 C50.363147,1.119558 50.312258,0.932965 50.312258,0.780298 C50.312258,0.559779 50.515814,0.458001 51.024704,0.373186 C51.414853,0.305334 51.788039,0.186593 51.838928,0.084815 C51.90678,-0.016963 52.296929,-0.016963 52.856708,0.050889 C53.721821,0.186593 54.044118,0.407112 53.552191,0.576742 C53.399524,0.627631 53.365598,0.576742 53.450413,0.424075 C53.552191,0.254445 53.484339,0.271408 53.26382,0.458001 C53.09419,0.610668 52.568337,0.746372 52.093373,0.763335 C51.635372,0.797261 51.211297,0.882076 51.194334,0.966891 C51.160408,1.051706 51.05863,1.068669 50.956852,1.01778 C50.855074,0.949928 50.736333,1.000817 50.668481,1.102595 C50.600629,1.204373 50.498851,1.238299 50.430999,1.170447 Z" id="path2399"></path>
            </g>
        </g>
    </g>
</svg>