<?xml version="1.0" encoding="UTF-8"?>
<svg width="62px" height="101px" viewBox="0 0 62 101" version="1.1" xmlns="http://www.w3.org/2000/svg" xmlns:xlink="http://www.w3.org/1999/xlink">
    <!-- Generator: Sketch 52.5 (67469) - http://www.bohemiancoding.com/sketch -->
    <title>south_america</title>
    <desc>Created with Sketch.</desc>
    <g id="Page-1" stroke="none" stroke-width="1" fill="none" fill-rule="evenodd">
        <g id="continents2" transform="translate(-127.000000, -145.000000)" fill="#FFFFFF">
            <g id="south_america" transform="translate(157.958134, 195.445475) scale(-1, 1) rotate(-180.000000) translate(-157.958134, -195.445475) translate(127.721586, 145.752367)">
                <path d="M12.824028,99.301402 C12.535657,99.199624 12.349064,99.013031 12.349064,98.826438 C12.349064,98.656808 12.247286,98.521104 12.111582,98.521104 C11.992841,98.521104 11.687507,98.368437 11.450025,98.181844 C11.19558,97.978288 10.771505,97.842584 10.415282,97.842584 C10.025133,97.842584 9.753725,97.757769 9.702836,97.588139 C9.634984,97.418509 9.465354,97.36762 9.227872,97.435472 C8.532389,97.605102 7.599424,96.214136 7.752091,95.264208 C7.752091,95.179393 7.684239,95.128504 7.582461,95.128504 C7.361942,95.128504 6.920904,94.704429 6.920904,94.500873 C6.920904,94.416058 6.700385,94.212502 6.412014,94.059835 C6.055791,93.839316 5.954013,93.669686 6.021865,93.46613 C6.089717,93.313463 5.801346,93.533982 5.377271,93.97502 C4.732677,94.65354 3.664008,95.298134 3.172081,95.298134 C3.087266,95.298134 3.019414,95.077615 3.019414,94.82317 C3.019414,94.48391 3.138155,94.263391 3.443489,94.110724 C3.664008,93.991983 3.90149,93.737538 3.969342,93.567908 C4.020231,93.381315 4.138972,93.313463 4.257713,93.381315 C4.393417,93.449167 4.376454,93.398278 4.24075,93.228648 C3.986305,92.906351 4.122009,92.193905 4.495195,91.871608 C4.630899,91.752867 4.834455,91.464496 4.936233,91.227014 C5.173715,90.667235 5.25853,87.715673 5.054974,87.579969 C4.936233,87.512117 4.953196,87.35945 5.071937,87.138931 C5.25853,86.765745 4.987122,85.629224 4.698751,85.629224 C4.613936,85.629224 4.546084,85.527446 4.546084,85.408705 C4.546084,85.289964 4.274676,85.086408 3.952379,84.950704 C3.528304,84.781074 3.358674,84.611444 3.358674,84.340036 C3.358674,84.13648 3.239933,83.932924 3.104229,83.865072 C2.917636,83.79722 2.866747,83.644553 2.934599,83.373145 C3.036377,83.016922 2.951562,82.932107 2.273042,82.677662 C1.52667,82.389291 1.492744,82.338402 1.492744,81.727734 C1.492744,81.320622 1.407929,81.049214 1.238299,80.981362 C1.102595,80.930473 0.983854,80.692991 0.983854,80.472472 C0.983854,80.218027 0.84815,79.963582 0.644594,79.861804 C0.458001,79.760026 0.33926,79.607359 0.390149,79.505581 C0.610668,79.166321 0.627631,77.995874 0.424075,77.995874 C0.305334,77.995874 0.474964,77.775355 0.780298,77.503947 C1.068669,77.232539 1.323114,76.927205 1.323114,76.825427 C1.323114,76.723649 1.407929,76.638834 1.492744,76.638834 C1.594522,76.638834 1.662374,76.723649 1.662374,76.84239 C1.662374,76.944168 1.6963,76.995057 1.747189,76.944168 C1.882893,76.808464 1.645411,76.299574 1.441855,76.299574 C1.340077,76.299574 0.966891,75.977277 0.593705,75.587128 C-9.62771529e-16,74.925571 -0.050889,74.789867 0.050889,74.179199 C0.101778,73.806013 0.254445,73.381938 0.390149,73.229271 C0.67852,72.923937 0.729409,72.567714 0.474964,72.567714 C0.033926,72.567714 0.390149,72.041861 1.051706,71.702601 C1.611485,71.431193 1.916819,71.108896 2.273042,70.464302 C2.527487,69.989338 2.900673,69.37867 3.104229,69.090299 C3.307785,68.818891 3.714897,68.004667 4.037194,67.309184 C4.342528,66.613701 4.732677,65.833403 4.91927,65.578958 C5.0889,65.341476 5.224604,65.019179 5.224604,64.900438 C5.224604,64.764734 5.377271,64.510289 5.563864,64.340659 C5.750457,64.171029 5.903124,63.899621 5.903124,63.729991 C5.903124,63.560361 5.970976,63.390731 6.055791,63.339842 C6.412014,63.119323 7.446757,61.338208 7.361942,61.100726 C7.209275,60.693614 7.565498,60.032057 8.396685,59.20087 C9.193946,58.386646 11.500914,56.927828 12.484768,56.605531 C12.773139,56.503753 13.027584,56.368049 13.027584,56.300197 C13.027584,56.232345 13.298992,56.028789 13.621289,55.842196 C13.943586,55.672566 14.214994,55.46901 14.214994,55.384195 C14.214994,55.214565 14.656032,54.756564 14.808699,54.756564 C15.114033,54.756564 15.673812,53.976266 15.860405,53.26382 C16.352332,51.431816 16.725518,47.462474 16.386258,47.462474 C16.318406,47.462474 16.250554,47.275881 16.250554,47.038399 C16.250554,46.800917 16.301443,46.614324 16.386258,46.614324 C16.62374,46.614324 16.827296,39.676457 16.589814,39.082752 C16.488036,38.811344 16.521962,38.539936 16.708555,38.200676 C16.878185,37.844453 16.929074,37.454304 16.844259,36.843636 C16.759444,36.182079 16.827296,35.808893 17.098704,35.181262 C17.285297,34.740224 17.437964,34.231334 17.437964,34.044741 C17.437964,33.875111 17.522779,33.722444 17.607594,33.722444 C17.709372,33.722444 17.794187,33.400147 17.777224,33.009998 C17.777224,32.602886 17.777224,32.127922 17.794187,31.941329 C17.81115,31.585106 17.675446,29.617398 17.522779,28.209469 C17.488853,27.751468 17.437964,27.174726 17.437964,26.954207 C17.437964,26.665836 17.370112,26.581021 17.166556,26.665836 C16.946037,26.750651 16.912111,26.682799 17.013889,26.309613 C17.064778,26.038205 17.234408,25.715908 17.370112,25.563241 C17.505816,25.427537 17.607594,25.190055 17.607594,25.071314 C17.607594,24.952573 17.81115,24.511535 18.048632,24.08746 C18.353966,23.561607 18.455744,23.205384 18.387892,22.866124 C18.235225,22.085826 18.472707,20.711823 18.82893,20.321674 C18.99856,20.135081 19.066412,19.982414 18.947671,19.982414 C18.82893,19.982414 18.795004,19.812784 18.862856,19.473524 C18.913745,19.202116 19.015523,18.710189 19.066412,18.421818 C19.253005,17.421001 19.795821,17.115667 20.152044,17.794187 C20.304711,18.048632 20.287748,18.201299 20.135081,18.387892 C20.033303,18.523596 19.999377,18.625374 20.067229,18.625374 C20.135081,18.625374 20.101155,18.744115 19.982414,18.879819 C19.863673,19.015523 19.829747,19.134264 19.914562,19.134264 C19.982414,19.134264 19.965451,19.219079 19.84671,19.33782 C19.558339,19.626191 19.592265,19.863673 19.914562,19.744932 C20.118118,19.660117 20.169007,19.711006 20.084192,19.897599 C20.033303,20.050266 20.050266,20.118118 20.152044,20.067229 C20.253822,20.01634 20.321674,19.84671 20.321674,19.711006 C20.321674,19.575302 20.406489,19.473524 20.508267,19.473524 C20.593082,19.473524 20.643971,19.405672 20.593082,19.33782 C20.542193,19.253005 20.576119,18.930708 20.660934,18.608411 C20.745749,18.286114 20.847527,17.658483 20.915379,17.200482 C20.966268,16.725518 21.101972,16.301443 21.20375,16.233591 C21.356417,16.131813 21.322491,16.063961 21.085009,15.979146 C20.898416,15.911294 20.69486,15.826479 20.643971,15.809516 C20.593082,15.77559 20.559156,15.962183 20.593082,16.216628 C20.643971,16.674629 20.440415,16.929074 20.01634,16.929074 C19.880636,16.929074 19.84671,16.844259 19.931525,16.725518 C20.152044,16.352332 20.135081,16.080924 19.880636,16.080924 C19.761895,16.080924 19.575302,15.928257 19.473524,15.758627 C19.269968,15.351515 19.253005,15.046181 19.456561,15.385441 C19.67708,15.741664 20.321674,15.317589 20.321674,14.808699 C20.321674,14.571217 20.236859,14.384624 20.135081,14.384624 C20.01634,14.384624 19.982414,14.198031 20.033303,13.875734 C20.101155,13.553437 20.050266,13.298992 19.897599,13.129362 C19.761895,12.993658 19.694043,12.756176 19.744932,12.620472 C19.863673,12.298175 20.270785,12.264249 20.3556,12.535657 C20.406489,12.688324 20.52523,12.688324 20.796638,12.535657 C21.000194,12.416916 21.254639,12.38299 21.339454,12.433879 C21.441232,12.484768 21.458195,12.416916 21.407306,12.281212 C21.356417,12.128545 21.37338,12.009804 21.475158,12.009804 C21.780492,12.009804 21.424269,11.093802 21.03412,10.890246 C20.830564,10.788468 20.711823,10.652764 20.796638,10.584912 C20.86449,10.51706 20.915379,10.398319 20.915379,10.34743 C20.949305,10.00817 21.220713,9.465354 21.356417,9.465354 C21.441232,9.465354 21.492121,9.414465 21.475158,9.346613 C21.441232,9.109131 21.797455,8.362759 22.068863,8.125277 C22.22153,8.006536 22.39116,7.684239 22.442049,7.412831 C22.509901,7.141423 22.628642,6.903941 22.713457,6.903941 C22.798272,6.886978 22.967902,6.870015 23.086643,6.853052 C23.188421,6.853052 23.341088,6.530755 23.391977,6.157569 C23.442866,5.784383 23.510718,5.563864 23.527681,5.648679 C23.544644,5.750457 23.714274,5.563864 23.91783,5.25853 C24.189238,4.817492 24.358868,4.715714 24.647239,4.783566 C24.884721,4.851418 25.156129,4.74964 25.427537,4.495195 C25.648056,4.291639 25.885538,4.138972 25.95339,4.172898 C26.038205,4.189861 26.089094,4.122009 26.089094,4.020231 C26.089094,3.833638 25.868575,3.867564 25.156129,4.122009 C24.93561,4.206824 25.003462,4.07112 25.393611,3.714897 C25.800723,3.324748 26.004279,3.22297 26.089094,3.375637 C26.275687,3.647045 26.614947,3.409563 26.479243,3.087266 C26.428354,2.951562 26.445317,2.849784 26.530132,2.866747 C26.818503,2.934599 27.276504,2.646228 27.276504,2.408746 C27.276504,2.256079 27.463097,2.171264 27.785394,2.171264 C28.175543,2.171264 28.260358,2.239116 28.175543,2.442672 C28.124654,2.595339 27.955024,2.680154 27.768431,2.629265 C27.581838,2.578376 27.446134,2.612302 27.446134,2.697117 C27.446134,3.019414 28.124654,2.832821 28.311247,2.476598 C28.429988,2.256079 28.49784,2.052523 28.480877,2.001634 C28.463914,1.950745 28.565692,1.848967 28.735322,1.747189 C28.904952,1.662374 29.142434,1.475781 29.278138,1.35704 C29.566509,1.085632 29.820954,1.085632 29.820954,1.374003 C29.820954,1.509707 29.871843,1.492744 29.990584,1.323114 C30.075399,1.18741 30.211103,1.068669 30.278955,1.051706 C30.346807,1.051706 30.635178,0.949928 30.889623,0.84815 C31.161031,0.729409 31.432439,0.67852 31.517254,0.729409 C31.602069,0.780298 31.703847,0.746372 31.771699,0.644594 C31.839551,0.542816 31.958292,0.50889 32.043107,0.559779 C32.127922,0.627631 32.195774,0.593705 32.195774,0.491927 C32.195774,0.390149 32.535034,0.322297 32.959109,0.33926 C33.383184,0.33926 33.841185,0.254445 33.976889,0.135704 C34.129556,0.016963 34.299186,-0.033926 34.367038,0.033926 C34.43489,0.101778 34.333112,0.271408 34.163482,0.390149 C33.892074,0.610668 33.959926,0.627631 34.825039,0.559779 C35.6223,0.50889 35.774967,0.525853 35.690152,0.729409 C35.639263,0.882076 35.707115,0.983854 35.859782,0.983854 C35.995486,0.983854 36.148153,1.102595 36.199042,1.238299 C36.266894,1.374003 36.385635,1.492744 36.47045,1.492744 C36.572228,1.492744 36.555265,1.390966 36.436524,1.238299 C36.266894,1.034743 36.266894,0.983854 36.504376,0.983854 C36.657043,0.983854 36.775784,1.119558 36.775784,1.323114 C36.775784,1.594522 36.657043,1.662374 36.182079,1.662374 C35.300003,1.662374 33.467999,2.629265 32.467182,3.613119 C31.975255,4.105046 31.619032,4.58001 31.652958,4.681788 C31.686884,4.783566 31.500291,4.987122 31.262809,5.156752 C30.70303,5.529938 29.820954,6.7852 29.820954,7.243201 C29.820954,7.480683 29.956658,7.63335 30.245029,7.701202 C30.753919,7.819943 30.906586,8.244018 30.669104,8.871649 C30.465548,9.397502 30.550363,9.550169 31.466365,10.364393 C31.788662,10.652764 31.975255,10.941135 31.907403,11.059876 C31.839551,11.161654 31.754736,11.399136 31.737773,11.568766 C31.652958,12.094619 31.347624,12.349064 30.821771,12.349064 C30.278955,12.349064 29.210286,12.925806 28.989767,13.349881 C28.599618,14.045364 29.261175,15.063144 30.109325,15.063144 C30.5334,15.063144 30.770882,15.317589 30.482511,15.504182 C30.346807,15.588997 30.36377,15.656849 30.516437,15.741664 C30.686067,15.860405 30.669104,16.030035 30.448585,16.589814 L30.177177,17.319223 L30.686067,17.794187 C30.974438,18.065595 31.313698,18.286114 31.449402,18.286114 C31.72081,18.286114 31.754736,18.676263 31.517254,19.134264 C31.364587,19.405672 31.21192,19.456561 30.601252,19.371746 L29.85488,19.269968 L29.447768,20.169007 C29.210286,20.677897 29.091545,21.118935 29.17636,21.135898 C29.261175,21.169824 29.634361,21.085009 30.007547,20.932342 C30.804808,20.610045 31.347624,20.593082 31.941329,20.86449 C32.382367,21.051083 32.518071,21.559973 32.178811,21.780492 C32.06007,21.848344 32.043107,22.119752 32.110959,22.475975 C32.195774,22.917013 32.144885,23.154495 31.924366,23.391977 C31.635995,23.714274 31.635995,23.731237 31.941329,23.612496 C32.161848,23.527681 32.212737,23.544644 32.127922,23.680348 C32.043107,23.833015 32.2297,23.883904 32.789479,23.883904 C34.60452,23.883904 36.945414,24.732054 36.945414,25.376648 C36.945414,25.546278 37.013266,25.749834 37.098081,25.834649 C37.691786,26.496206 37.606971,27.955024 36.962377,27.955024 C36.623117,27.955024 36.436524,28.260358 36.436524,28.871026 C36.436524,29.312064 36.029412,29.719176 35.215188,30.126288 C34.909854,30.295918 34.621483,30.567326 34.587557,30.753919 C34.536668,31.076216 34.536668,31.076216 34.858965,30.804808 C35.045558,30.635178 35.435707,30.499474 35.724078,30.499474 C36.029412,30.499474 36.266894,30.431622 36.266894,30.346807 C36.266894,30.126288 37.064155,29.939695 38.217639,29.905769 C39.625568,29.837917 40.253199,30.211103 40.439792,31.161031 C40.507644,31.449402 40.592459,31.686884 40.660311,31.686884 C40.863867,31.686884 41.304905,32.602886 41.423646,33.230517 C41.491498,33.620666 41.745943,34.010815 42.119129,34.350075 C42.543204,34.723261 42.678908,34.960743 42.594093,35.181262 C42.492315,35.435707 42.475352,35.435707 42.356611,35.096447 C42.220907,34.757187 41.762906,34.451853 41.610239,34.60452 C41.55935,34.638446 41.712017,34.94378 41.949499,35.249114 C42.186981,35.571411 42.373574,35.995486 42.373574,36.182079 C42.373574,36.402598 42.475352,36.555265 42.644982,36.555265 C42.831575,36.555265 42.882464,36.436524 42.831575,36.165116 C42.797649,35.944597 42.865501,35.741041 42.984242,35.690152 C43.136909,35.639263 43.272613,35.842819 43.408317,36.317783 C43.849355,37.912305 43.951133,38.149787 44.426097,38.658677 C45.087654,39.35416 45.308173,40.473718 45.002839,41.372757 C44.78232,41.983425 44.714468,43.900244 44.901061,43.849355 C45.036765,43.815429 46.444694,45.257284 46.444694,45.426914 C46.444694,45.511729 46.682176,45.613507 46.953584,45.681359 C47.241955,45.749211 47.462474,45.867952 47.462474,45.96973 C47.462474,46.071508 47.682993,46.105434 48.056179,46.037582 C48.429365,45.96973 48.649884,45.986693 48.649884,46.105434 C48.649884,46.190249 48.565069,46.275064 48.463291,46.275064 C48.378476,46.275064 48.327587,46.342916 48.378476,46.427731 C48.565069,46.716102 50.685444,47.309807 51.584483,47.309807 C52.449596,47.32677 52.517448,47.360696 52.602263,47.784771 C52.670115,48.039216 52.92456,48.34455 53.246857,48.531143 C53.670932,48.768625 53.755747,48.904329 53.670932,49.209663 C53.586117,49.548923 53.891451,50.346184 54.858342,52.229077 C55.011009,52.517448 55.044935,52.958486 54.994046,53.518265 C54.909231,54.179822 54.943157,54.417304 55.197602,54.654786 C55.485973,54.943157 55.689529,56.334123 55.63864,57.725089 C55.63864,58.01346 55.604714,58.997314 55.570788,59.930279 C55.502936,61.541764 55.621677,62.050654 56.045752,62.050654 C56.232345,62.050654 56.605531,62.576507 56.978717,63.407694 C57.572422,64.747771 57.708126,64.96829 58.115238,65.341476 C58.641091,65.833403 59.981168,67.699333 60.184724,68.225186 C60.574873,69.242966 60.55791,70.464302 60.133835,71.957046 C59.896353,72.77127 59.658871,73.483716 59.607982,73.534605 C59.54013,73.602457 59.048203,73.704235 58.505387,73.772087 C57.419755,73.890828 57.402792,73.907791 56.028789,75.230905 C55.519899,75.705869 54.688712,76.350463 54.162859,76.638834 C53.314709,77.130761 53.162042,77.164687 52.483522,77.01202 C51.940706,76.893279 51.635372,76.927205 51.296112,77.096835 C51.041667,77.232539 50.770259,77.283428 50.668481,77.232539 C50.583666,77.164687 50.312258,77.232539 50.091739,77.385206 C49.582849,77.724466 48.582032,77.911059 48.734699,77.639651 C48.819514,77.503947 48.734699,77.486984 48.463291,77.571799 C47.971364,77.741429 47.66603,78.0298 47.750845,78.267282 C47.784771,78.386023 47.699956,78.589579 47.547289,78.725283 C47.411585,78.87795 47.292844,79.064543 47.292844,79.166321 C47.292844,79.268099 47.224992,79.352914 47.123214,79.352914 C47.038399,79.352914 46.953584,79.285062 46.953584,79.183284 C46.953584,78.996691 45.749211,79.505581 45.562618,79.776989 C45.494766,79.878767 45.426914,79.878767 45.426914,79.793952 C45.426914,79.709137 45.325136,79.743063 45.189432,79.844841 C44.95195,80.031434 44.527875,80.167138 43.781503,80.285879 C43.323502,80.353731 42.729797,79.946619 42.526241,79.403803 C42.254833,78.691357 42.203944,79.04758 42.458389,79.776989 C42.797649,80.760843 42.780686,80.828695 42.085203,80.930473 C41.695054,80.998325 41.355794,81.184918 41.22009,81.388474 C41.101349,81.575067 40.914756,81.727734 40.779052,81.727734 C40.54157,81.727734 40.54157,81.965216 40.779052,82.94907 C40.846904,83.28833 40.779052,83.542775 40.490681,83.915961 C40.270162,84.187369 39.998754,84.424851 39.913939,84.424851 C39.710383,84.441814 39.320234,85.747965 39.320234,86.443448 C39.320234,86.833597 38.658677,87.987081 38.641714,87.630858 C38.641714,87.563006 38.217639,87.919229 37.674823,88.428119 C37.14897,88.937009 36.64008,89.361084 36.521339,89.361084 C36.402598,89.361084 36.080301,89.479825 35.774967,89.632492 C35.164299,89.937826 33.196591,90.107456 33.043924,89.869974 C32.857331,89.56464 31.602069,90.056567 30.87266,90.735087 C30.465548,91.09131 30.058436,91.396644 29.973621,91.396644 C29.888806,91.396644 29.820954,91.566274 29.820954,91.786793 C29.803991,91.990349 29.668287,92.329609 29.498657,92.533165 C29.023693,93.109907 27.632727,93.907168 27.293467,93.822353 C26.920281,93.720575 26.665836,94.042872 26.886355,94.331243 C27.1408,94.670503 27.039022,95.026726 26.648873,95.213319 C26.428354,95.298134 26.258724,95.433838 26.258724,95.50169 C26.258724,95.586505 26.12302,95.637394 25.95339,95.637394 C25.78376,95.637394 25.546278,95.739172 25.4445,95.84095 C25.27487,96.01058 25.190055,96.01058 25.071314,95.807024 C24.969536,95.654357 24.901684,95.637394 24.901684,95.756135 C24.901684,95.857913 24.850795,96.061469 24.799906,96.214136 C24.732054,96.383766 24.782943,96.485544 24.93561,96.485544 C25.071314,96.485544 25.325759,96.604285 25.512352,96.739989 C25.800723,96.994434 25.698945,96.994434 24.223164,96.926582 C23.341088,96.875693 22.56079,96.824804 22.492938,96.824804 C22.408123,96.824804 22.357234,96.723026 22.357234,96.604285 C22.357234,96.468581 22.170641,96.281988 21.950122,96.163247 C21.441232,95.891839 20.321674,96.197173 20.321674,96.604285 C20.321674,96.824804 20.118118,96.841767 18.879819,96.739989 L17.437964,96.621248 L17.437964,97.062286 C17.437964,97.554213 16.62374,98.181844 15.962183,98.181844 C15.673812,98.181844 15.572034,98.283622 15.572034,98.571993 C15.572034,99.06392 15.453293,99.199624 15.130996,99.080883 C14.995292,99.029994 14.893514,98.758586 14.893514,98.419326 C14.893514,97.944362 14.825662,97.825621 14.435513,97.740806 C14.164105,97.672954 13.74003,97.469398 13.468622,97.282805 C13.044547,96.977471 12.976695,96.977471 13.078473,97.214953 C13.129362,97.36762 13.112399,97.503324 13.027584,97.503324 C12.925806,97.503324 12.857954,97.655991 12.857954,97.842584 C12.857954,98.04614 12.976695,98.181844 13.129362,98.181844 C13.434696,98.181844 13.858771,98.639845 13.875734,98.979105 C13.875734,99.318365 13.315955,99.504958 12.824028,99.301402 Z M13.536474,95.298134 C13.536474,94.891022 13.265066,94.449984 13.027584,94.449984 C12.959732,94.449984 12.807065,94.738355 12.688324,95.111541 C12.501731,95.688283 12.518694,95.807024 12.790102,96.129321 L13.095436,96.485544 L13.315955,96.095395 C13.434696,95.891839 13.519511,95.535616 13.536474,95.298134 Z M16.708555,58.098275 C16.946037,57.826867 17.030852,57.623311 16.929074,57.470644 C16.810333,57.267088 16.759444,57.284051 16.657666,57.521533 C16.606777,57.6742 16.45411,57.809904 16.335369,57.809904 C16.216628,57.809904 16.080924,57.962571 16.030035,58.149164 C15.911294,58.607165 16.250554,58.573239 16.708555,58.098275 Z M49.498034,47.123214 C49.498034,47.038399 49.464108,46.953584 49.430182,46.953584 C49.379293,46.953584 49.294478,47.038399 49.243589,47.123214 C49.1927,47.224992 49.226626,47.292844 49.311441,47.292844 C49.413219,47.292844 49.498034,47.224992 49.498034,47.123214 Z M43.170835,36.063338 C43.119946,35.927634 43.069057,35.978523 43.069057,36.165116 C43.052094,36.351709 43.102983,36.453487 43.153872,36.385635 C43.204761,36.334746 43.221724,36.182079 43.170835,36.063338 Z M30.923549,18.455744 C30.974438,18.370929 30.87266,18.286114 30.686067,18.286114 C30.482511,18.286114 30.329844,18.370929 30.329844,18.455744 C30.329844,18.557522 30.431622,18.625374 30.567326,18.625374 C30.70303,18.625374 30.87266,18.557522 30.923549,18.455744 Z M21.746566,15.656849 C21.678714,15.521145 21.576936,15.453293 21.492121,15.504182 C21.305528,15.60596 21.458195,15.911294 21.678714,15.911294 C21.763529,15.911294 21.797455,15.792553 21.746566,15.656849 Z M21.424269,15.046181 C21.593899,14.537291 21.424269,14.486402 21.20375,14.978329 C21.101972,15.215811 21.085009,15.402404 21.169824,15.402404 C21.254639,15.402404 21.37338,15.249737 21.424269,15.046181 Z M22.187604,14.486402 C22.187604,14.452476 22.068863,14.384624 21.933159,14.316772 C21.797455,14.265883 21.678714,14.299809 21.678714,14.384624 C21.678714,14.486402 21.797455,14.554254 21.933159,14.554254 C22.068863,14.554254 22.187604,14.520328 22.187604,14.486402 Z M29.820954,3.697934 C29.820954,3.290822 30.109325,3.121192 30.753919,3.155118 C31.245846,3.189044 31.245846,3.172081 30.87266,2.968525 C30.669104,2.849784 30.550363,2.680154 30.618215,2.578376 C30.70303,2.493561 30.601252,2.578376 30.431622,2.764969 C30.19414,3.019414 30.092362,3.05334 30.02451,2.88371 C29.990584,2.731043 29.871843,2.815858 29.719176,3.104229 C29.447768,3.647045 29.396879,4.274676 29.651324,4.122009 C29.753102,4.07112 29.820954,3.867564 29.820954,3.697934 Z M28.718359,3.714897 C28.66747,3.613119 28.480877,3.528304 28.32821,3.528304 C28.107691,3.528304 28.107691,3.56223 28.396062,3.765786 C28.752285,4.020231 28.904952,4.003268 28.718359,3.714897 Z" id="path2402" fill-rule="nonzero"></path>
                <path d="M40.253199,6.259347 C40.066606,6.174532 39.795198,6.157569 39.659494,6.208458 C39.455938,6.27631 39.438975,6.242384 39.625568,6.055791 C39.913939,5.750457 39.880013,5.377271 39.574679,5.496012 C39.099715,5.682605 39.320234,5.241567 39.812161,4.970159 C40.304088,4.715714 40.321051,4.732677 40.863867,5.360308 C41.152238,5.716531 41.338831,5.835272 41.270979,5.648679 C40.965645,4.834455 40.965645,4.715714 41.287942,4.715714 C41.474535,4.715714 41.983425,4.936233 42.424463,5.207641 C43.153872,5.631716 43.204761,5.699568 42.950316,5.920087 C42.797649,6.055791 42.305722,6.174532 41.881647,6.191495 C41.457572,6.191495 40.982608,6.259347 40.846904,6.293273 C40.7112,6.344162 40.439792,6.327199 40.253199,6.259347 Z" id="path2404"></path>
            </g>
        </g>
    </g>
</svg>