<?xml version="1.0" encoding="UTF-8"?>
<svg width="336px" height="236px" viewBox="0 0 336 236" version="1.1" xmlns="http://www.w3.org/2000/svg" xmlns:xlink="http://www.w3.org/1999/xlink">
    <!-- Generator: Sketch 52.5 (67469) - http://www.bohemiancoding.com/sketch -->
    <title>o_07 2</title>
    <desc>Created with Sketch.</desc>
    <defs>
        <polygon id="path-1" points="0 0.396089379 82.5620548 0.396089379 82.5620548 102.168849 0 102.168849"></polygon>
        <polygon id="path-3" points="0 0.57673575 78.4730797 0.57673575 78.4730797 79.9582298 0 79.9582298"></polygon>
        <polygon id="path-5" points="0.407347149 0.171784126 83.7670722 0.171784126 83.7670722 61.4493803 0.407347149 61.4493803"></polygon>
        <polygon id="path-7" points="0 0.125119823 29.080364 0.125119823 29.080364 49.3672944 0 49.3672944"></polygon>
    </defs>
    <g id="o_07-2" stroke="none" stroke-width="1" fill="none" fill-rule="evenodd">
        <polyline id="Fill-3" fill="#9A3F17" points="135.449964 208.110227 129.496778 209.060101 129 205.949134 134.953186 205 135.449964 208.110227"></polyline>
        <polyline id="Fill-4" fill="#9A3F17" points="151.457936 207.300631 140.166058 209.103393 139 201.801281 150.292619 200 151.457936 207.300631"></polyline>
        <polyline id="Fill-5" fill="#FFFFFF" points="150.150861 203.420217 144.386465 204.337516 144 201.921 149.764396 201 150.150861 203.420217"></polyline>
        <polyline id="Fill-6" fill="#FFFFFF" points="143.511499 203.278591 140.204338 203.806464 140 202.527132 143.307161 202 143.511499 203.278591"></polyline>
        <polyline id="Fill-7" fill="#FFFFFF" points="143.588059 204.626339 142.100688 204.864733 142 204.236173 143.487371 204 143.588059 204.626339"></polyline>
        <polyline id="Fill-8" fill="#D4B376" points="130.74397 233.839227 127 210.382592 140.016163 208.304418 140.225683 209.615585 151.517562 207.812823 151.308783 206.501656 166.980596 204 170.725306 227.456635 130.74397 233.839227"></polyline>
        <polyline id="Fill-9" fill="#863815" points="140.20952 209.113929 140 207.802762 151.292619 206 151.501399 207.311167 140.20952 209.113929"></polyline>
        <polyline id="Fill-10" fill="#FFFFFF" points="168.725306 225.458116 128.74397 231.839227 125 208.383332 164.980596 202 168.725306 225.458116"></polyline>
        <polyline id="Fill-11" fill="#9A3F17" points="168.088602 221.01734 127.396526 227.511725 125 212.495125 165.691335 206 168.088602 221.01734"></polyline>
        <path d="M157.195943,214.984563 C158.124347,220.801525 154.161972,226.267558 148.346492,227.195962 C142.530271,228.124366 137.063497,224.161991 136.135093,218.346511 C135.205949,212.53029 139.168323,207.063516 144.984544,206.135112 C150.800025,205.205968 156.267539,209.167602 157.195943,214.984563" id="Fill-12" fill="#FFFFFF"></path>
        <path d="M156.313501,215.188182 C157.160466,220.486895 153.5505,225.468737 148.251046,226.314962 C142.950852,227.159706 137.96901,223.549 137.122786,218.251026 C136.277301,212.950092 139.888008,207.96899 145.187462,207.122766 C150.486915,206.277282 155.468757,209.888728 156.313501,215.188182" id="Fill-13" fill="#9A3F17"></path>
        <path d="M154.379555,215.518297 C155.053278,219.738315 152.177743,223.705872 147.958465,224.379594 C143.738448,225.053316 139.771631,222.177781 139.097909,217.959244 C138.424187,213.738486 141.298981,209.771669 145.518259,209.097947 C149.739017,208.424225 153.705833,211.297539 154.379555,215.518297" id="Fill-14" fill="#FFFFFF"></path>
        <g id="Group-19" transform="translate(3.200761, 131.630537)">
            <mask id="mask-2" fill="white">
                <use xlink:href="#path-1"></use>
            </mask>
            <g id="Clip-16"></g>
            <path d="M8.92792864,97.8851611 L0,91.0679817 L0,90.5630602 L8.92792864,97.8851611 M39.0299811,90.3787121 L53.0626505,73.2676509 L53.3425043,74.6076916 L39.0299811,90.3787121 M58.0393099,67.1989693 L80.1144445,40.2819197 L82.5620548,42.4119181 L60.5402256,66.6770198 L58.0393099,67.1989693" id="Fill-15" fill="#D4B376" mask="url(#mask-2)"></path>
            <polyline id="Fill-17" fill="#FFFFFF" mask="url(#mask-2)" points="23.2441536 109.627175 82.056393 37.9135273 36.3091802 0.396089379 -22.5030592 72.1075162 23.2441536 109.627175"></polyline>
            <polyline id="Fill-18" fill="#5EA6B0" mask="url(#mask-2)" points="23.0960828 106.002402 78.4730797 38.4769367 36.4579914 4.02012211 -18.919746 71.5441069 23.0960828 106.002402"></polyline>
        </g>
        <path d="M30.9085088,199.6128 C35.7904029,195.274326 47.339925,181.837642 48.1195177,180.888508 C48.8983701,179.937893 46.8890494,179.481095 46.3656191,177.86046 C46.3656191,177.86046 46.254566,173.798138 43.227999,174.09576 C40.2021723,174.394863 38.1950726,172.483269 35.7978064,171.046982 C33.4005402,169.609955 28.9695217,169.684731 26.1820889,175.343997 C23.3953966,181.003263 17.3193115,183.567849 15.6068727,187.593154 C13.8951743,191.618458 14.6503354,192.634964 17.1749424,195.368351 C19.7017706,198.101738 18.6748996,200.969129 21.6563051,201.691714 C24.6384509,202.4143 26.0266146,203.952755 30.9085088,199.6128" id="Fill-20" fill="#F3C252"></path>
        <path d="M53.3293887,146.862579 L39.6587524,135.650659 L29.8379569,147.625144 C30.3747135,147.698439 30.8685296,147.853913 31.1254325,148.297385 C32.1404578,150.047582 33.7721979,151.23437 36.5640728,151.380219 C39.3559477,151.523848 42.4735783,150.710939 46.6321466,151.058906 C50.3028216,151.362451 52.7941128,147.72139 53.3293887,146.862579" id="Fill-21" fill="#F3C252"></path>
        <g id="Group-25" transform="translate(3.200761, 153.841156)">
            <mask id="mask-4" fill="white">
                <use xlink:href="#path-3"></use>
            </mask>
            <g id="Clip-23"></g>
            <path d="M63.45648,34.5782326 L78.4730797,16.2663173 L59.3401118,0.57673575 C58.8574011,1.11423274 59.083209,2.43058212 58.2910303,4.50209255 C57.087955,7.64933732 58.6960039,7.74336228 60.6927386,10.913558 C62.6894733,14.0815327 59.6902993,12.69559 57.8127616,14.9847646 C55.9352239,17.2739391 55.8049216,21.9174392 60.8726446,28.0653387 C62.9522989,30.588465 63.5157083,32.8213726 63.45648,34.5782326" id="Fill-22" fill="#F3C252" mask="url(#mask-4)"></path>
            <path d="M-7.33246582,58.8351904 L23.0960828,83.7917827 L47.0857728,54.5389163 C45.2459931,55.9426274 42.4363498,57.6432205 38.6509199,58.7100706 C31.2814364,60.7852828 29.9125219,62.2659908 27.8284254,63.3158127 C25.7435886,64.3619329 24.4642569,67.6017219 19.1425925,64.0043419 C13.8216685,60.4062216 11.2141417,58.7285795 9.67198439,59.3008731 C8.12982705,59.8746474 4.73678476,60.4624885 -0.621156989,59.896858 C-2.88071734,59.6592044 -5.29649237,59.0469317 -7.33246582,58.8351904" id="Fill-24" fill="#F3C252" mask="url(#mask-4)"></path>
        </g>
        <polyline id="Fill-26" fill="#D4B376" points="90.8594126 225.52667 71.2637235 222.692595 75.5622187 221.794546 89.0825631 223.749821 92.5029985 200.09255 94.4960314 200.380548 90.8594126 225.52667"></polyline>
        <polyline id="Fill-27" fill="#FFFFFF" points="89.0825631 223.749821 63.9364402 220.113202 67.5723185 194.967079 92.7184415 198.603698 89.0825631 223.749821"></polyline>
        <polyline id="Fill-28" fill="#909624" points="88.1615627 217.061463 66.7135079 213.96012 69.1537146 197.083751 90.6025098 200.185094 88.1615627 217.061463"></polyline>
        <polyline id="Fill-29" fill="#D4B376" points="60.4508536 224.950675 56.5432653 206.238228 63.7409867 198.307556 67.1939977 197.586452 63.9364402 220.113202 65.9279924 220.4012 65.7125493 221.890052 71.2637235 222.692595 60.4508536 224.950675"></polyline>
        <polyline id="Fill-30" fill="#B79B66" points="56.5432653 206.238228 56.2634115 204.898188 61.240071 198.829506 63.7409867 198.307556 56.5432653 206.238228"></polyline>
        <polyline id="Fill-31" fill="#DCDBDB" points="56.2634115 204.898188 55.6304089 201.864957 57.4746306 199.615762 61.240071 198.829506 56.2634115 204.898188"></polyline>
        <polyline id="Fill-32" fill="#539097" points="55.6304089 201.864957 55.2572704 200.079223 57.4746306 199.615762 55.6304089 201.864957"></polyline>
        <polyline id="Fill-33" fill="#B79B66" points="71.2637235 222.692595 65.7125493 221.890052 65.9279924 220.4012 75.5622187 221.794546 71.2637235 222.692595"></polyline>
        <polyline id="Fill-34" fill="#DCDBDB" points="75.5622187 221.794546 65.9279924 220.4012 63.9364402 220.113202 67.1939977 197.586452 69.1396479 197.179997 66.7135079 213.96012 84.6545059 216.554321 85.3230456 219.756352 75.5622187 221.794546"></polyline>
        <polyline id="Fill-35" fill="#D4B376" points="80.5373974 196.842396 74.759675 196.006536 80.128722 194.88564 80.5373974 196.842396"></polyline>
        <polyline id="Fill-36" fill="#DCDBDB" points="80.9438518 198.788786 69.4187614 197.121509 74.759675 196.006536 80.5373974 196.842396 80.9438518 198.788786"></polyline>
        <polyline id="Fill-37" fill="#7D8220" points="84.6545059 216.554321 66.7135079 213.96012 69.1396479 197.179997 69.4187614 197.121509 80.9438518 198.788786 84.6545059 216.554321"></polyline>
        <polyline id="Fill-38" fill="#FFFFFF" points="83.546196 217.978762 58.6747444 223.174566 53.4811612 198.302374 78.3518725 193.109531 83.546196 217.978762"></polyline>
        <polyline id="Fill-39" fill="#EA5F1C" points="80.3908074 212.012249 59.1774448 216.441046 55.6918582 199.749766 76.9052208 195.319488 80.3908074 212.012249"></polyline>
        <polyline id="Fill-40" fill="#6D6968" points="97.8989223 124.897138 94.9212186 125.725594 93 118.829937 95.9777037 118 97.8989223 124.897138"></polyline>
        <polyline id="Fill-41" fill="#4B474B" points="100.114498 127.238659 93.2958377 129.138407 91 120.901229 97.8194005 119 100.114498 127.238659"></polyline>
        <path d="M99.1655823,145.461381 C95.6422377,145.461381 92.3084237,143.936252 90,141.356859 C92.2269848,143.350632 95.1454602,144.501882 98.2068239,144.501882 C99.298846,144.501882 100.410117,144.354552 101.514725,144.047305 C108.057974,142.223073 111.884864,135.439209 110.060631,128.896701 C109.537201,127.016942 108.604355,125.361511 107.385733,124 C109.075961,125.512543 110.367878,127.509278 111.021611,129.8562 C112.845103,136.40241 109.018953,143.182572 102.474965,145.006804 C101.370356,145.314791 100.259085,145.461381 99.1655823,145.461381" id="Fill-42" fill="#D4B376"></path>
        <path d="M110.151094,129.001761 C111.975326,135.544269 108.148437,142.328133 101.605188,144.152365 C95.0611992,145.975116 88.2788164,142.149707 86.4545842,135.603497 C84.6310924,129.060989 88.4572417,122.277126 95.0012306,120.454374 C101.545219,118.631623 108.327602,122.456291 110.151094,129.001761" id="Fill-43" fill="#6D6968"></path>
        <path d="M107.812523,129.383513 C109.308038,134.75182 106.168197,140.31558 100.80063,141.809614 C95.433064,143.30661 89.8685634,140.167509 88.3730484,134.799943 C86.876793,129.430895 90.0158939,123.867876 95.3834602,122.373101 C100.751767,120.876846 106.316267,124.015206 107.812523,129.383513" id="Fill-44" fill="#D7C3B2"></path>
        <path d="M108.013711,130.088394 C109.448517,135.239037 106.436757,140.577729 101.284634,142.013276 C96.1332512,143.449562 90.7938183,140.436322 89.3575315,135.286419 C87.9227255,130.134296 90.9352259,124.794123 96.0866089,123.357836 C101.237992,121.92229 106.577425,124.93479 108.013711,130.088394" id="Fill-45" fill="#FFF9F4"></path>
        <polyline id="Fill-46" fill="#5EA6B0" points="97 131.912116 100.262 137.247847 99.9969529 131 97 131.912116"></polyline>
        <polyline id="Fill-47" fill="#E31913" points="97.1154952 133.252289 97 127 100.133918 132.411247 97.1154952 133.252289"></polyline>
        <path d="M92.5197285,124.784471 L92.4501352,123.155693 L92.6389255,123.103127 L92.4331071,122.747017 L92.4197807,122.442732 L92.2813345,122.484932 L92,122 C92.4864126,122.171022 92.8839827,122.568592 93.0335342,123.103127 C93.2097384,123.73539 92.9883726,124.38468 92.5197285,124.784471" id="Fill-48" fill="#DCD6D1"></path>
        <path d="M98.5969435,133.733387 C97.8825019,133.733387 97.2265483,133.260301 97.025172,132.537715 C97.0155474,132.503659 97.0074035,132.468862 97,132.434066 L99.5890179,131.712961 L99.6586111,133.34174 C99.4831472,133.491291 99.2736271,133.606046 99.0367138,133.672678 C98.8901237,133.713397 98.7420529,133.733387 98.5969435,133.733387 M99.5719897,131.304285 L99.4202172,131.0422 L99.5586634,131 L99.5719897,131.304285" id="Fill-49" fill="#539097"></path>
        <path d="M97.0351352,132.968601 C96.8589309,132.131261 97.3608909,131.29244 98.1952699,131.060709 C98.34186,131.019249 98.4899307,131 98.6357805,131 C98.8216093,131 99.0029961,131.031835 99.1740178,131.091804 L99.4553523,131.576736 L99.6071249,131.838821 L99.8129433,132.194931 L99.624153,132.247496 L97.0351352,132.968601" id="Fill-50" fill="#C41812"></path>
        <path d="M100.208291,132.196212 C100.450387,133.064647 99.9417635,133.964917 99.0725879,134.207753 C98.2034123,134.450589 97.3024015,133.941226 97.0603058,133.074271 C96.81821,132.203615 97.3268332,131.303345 98.1952684,131.060509 C99.0651844,130.817673 99.9654548,131.327776 100.208291,132.196212" id="Fill-51" fill="#6D6968"></path>
        <text id="U" font-family="Courier" font-size="3.904" font-weight="normal" fill="#9A846F">
            <tspan x="95" y="126">U</tspan>
        </text>
        <polyline id="Fill-52" fill="#ED8F12" points="209.541464 86.7062589 205.99961 88.3594693 201 77.6539508 204.543334 76 209.541464 86.7062589"></polyline>
        <polyline id="Fill-53" fill="#ED8F12" points="227.541464 78.7062589 223.99887 80.3602097 219 69.6532104 222.543334 68 227.541464 78.7062589"></polyline>
        <polyline id="Fill-54" fill="#C67016" points="209.735522 86.6960653 206.193669 88.3492757 204 83.6546911 207.543334 82 209.735522 86.6960653"></polyline>
        <polyline id="Fill-55" fill="#C67016" points="227.734042 78.6960653 224.191448 80.3500161 222 75.6539508 225.540373 74 227.734042 78.6960653"></polyline>
        <path d="M203.893887,165.41739 C203.091343,165.41739 202.322115,164.962072 201.960082,164.186922 L175.200728,106.872418 C174.70247,105.805568 175.16371,104.536601 176.231301,104.038343 L261.559318,64.2006359 C261.851017,64.0644108 262.157524,64 262.459588,64 C263.262132,64 264.030619,64.4553177 264.393393,65.2304683 L291.152747,122.545712 C291.650265,123.612562 291.188284,124.880788 290.121434,125.379047 L204.794897,165.216754 C204.503198,165.352979 204.195951,165.41739 203.893887,165.41739" id="Fill-56" fill="#D4B376"></path>
        <path d="M287.153503,118.545199 C287.65102,119.61279 287.18904,120.881757 286.122189,121.379274 L200.793432,161.217722 C199.726582,161.71598 198.457615,161.253999 197.960097,160.187149 L171.200743,102.872646 C170.702485,101.805056 171.163725,100.536829 172.230575,100.038571 L257.557852,60.2008636 C258.624702,59.7026054 259.894409,60.1631056 260.392668,61.230696 L287.153503,118.545199" id="Fill-57" fill="#C05618"></path>
        <path d="M283.175906,117.773874 C283.626041,118.736334 283.175906,119.895728 282.173466,120.364372 L201.934642,157.826284 C200.931463,158.294187 199.753559,157.895137 199.304165,156.931936 L175.174548,105.248565 C174.724412,104.286845 175.175288,103.12597 176.177727,102.657326 L256.416551,65.1961552 C257.420471,64.7275111 258.597634,65.1273023 259.047029,66.0897624 L283.175906,117.773874" id="Fill-58" fill="#ED8F12"></path>
        <path d="M195.886813,93.2305404 C196.385071,94.2973905 195.736521,95.6529787 194.440162,96.2593286 L192.335335,97.2417783 C191.038235,97.8473879 189.582699,97.4727687 189.085181,96.406659 L187.167664,92.3006558 C186.670147,91.2338058 187.317216,89.8782176 188.614316,89.2726081 L190.719142,88.289418 C192.016243,87.6845488 193.471779,88.0584275 193.970777,89.1252776 L195.886813,93.2305404" id="Fill-59" fill="#C05618"></path>
        <polyline id="Fill-60" fill="#9A3F17" points="223.91479 151.467367 216.163284 155.087698 187 92.6195906 194.750766 89 223.91479 151.467367"></polyline>
        <path d="M243.887133,70.2303122 C244.384651,71.2979026 243.737582,72.6534908 242.439741,73.2598407 L240.334915,74.2415501 C239.037074,74.8471596 237.582279,74.4732808 237.084761,73.4064308 L235.167984,69.3011679 C234.669726,68.2343179 235.317536,66.8779894 236.613155,66.2723798 L238.717982,65.2899301 C240.015822,64.6843205 241.472098,65.0581993 241.970357,66.1250494 L243.887133,70.2303122" id="Fill-61" fill="#C05618"></path>
        <polyline id="Fill-62" fill="#9A3F17" points="271.916271 129.466627 264.164024 133.085477 235 70.6188503 242.750766 67 271.916271 129.466627"></polyline>
        <path d="M257.557695,60.2009216 L247.604376,64.8481235 C250.669442,71.4128422 258.475734,74.250619 265.038972,71.1855536 L260.389549,61.2240908 C259.88833,60.1616828 258.623065,59.7034037 257.557695,60.2009216 Z M171.199846,102.871223 L175.848528,112.828244 C182.412507,109.762438 185.250284,101.956146 182.185218,95.3914269 L172.230418,100.038629 C171.164309,100.536887 170.703068,101.804373 171.199846,102.871223 Z M193.313479,150.235369 L197.960681,160.190169 C198.458939,161.254057 199.727165,161.716038 200.793275,161.21778 L210.748075,156.568357 C207.682269,150.00808 199.876717,147.171044 193.313479,150.235369 Z M276.166493,126.026534 L286.122033,121.379332 C287.185921,120.882555 287.647902,119.61803 287.155567,118.552661 L282.505403,108.594159 C275.942165,111.658485 273.105129,119.463296 276.166493,126.026534 Z" id="Fill-63" fill="#9A3F17"></path>
        <path d="M237.513949,91.7174913 C238.013688,92.7843413 237.551707,94.0525677 236.484857,94.5508259 L211.529745,106.201777 C210.462895,106.700035 209.193928,106.238794 208.69493,105.171944 L205.201199,97.686225 C204.702201,96.6186346 205.163441,95.3496679 206.230291,94.8514097 L231.184663,83.2011994 C232.252253,82.7022008 233.52196,83.1634414 234.019478,84.2302915 L237.513949,91.7174913" id="Fill-64" fill="#F6CF89"></path>
        <path d="M224.407874,69.0818569 C224.854307,70.0376539 224.44119,71.1733569 223.483912,71.6197904 L203.109371,81.133339 C202.152833,81.5790321 201.01713,81.166655 200.569956,80.210858 L199.179572,77.2309332 C198.733879,76.2758766 199.146256,75.1394332 200.102053,74.6929998 L220.478815,65.1794511 C221.433872,64.733758 222.569575,65.1468755 223.016008,66.1019322 L224.407874,69.0818569" id="Fill-65" fill="#9A3F17"></path>
        <path d="M261.754189,171.144245 C261.723094,171.144245 261.69422,171.141283 261.666827,171.136101 C259.702668,170.724464 253.904216,161.957932 254.001202,161.413032 C254.175926,160.420217 257.006299,158.536016 257.840678,158 C258.732064,160.250676 263.832363,167.435811 265.553686,168.532276 C264.469807,169.499918 262.515273,171.144245 261.754189,171.144245" id="Fill-66" fill="#D4B376"></path>
        <path d="M266.203293,168.974189 C266.110748,168.974189 265.990811,168.924586 265.846442,168.832782 C264.125119,167.736318 259.024821,160.551182 258.133434,158.300506 C258.039409,158.062853 257.992767,157.879985 258.000911,157.765971 C258.089753,156.592509 274.704777,138.411637 276.451273,138.008884 C276.477185,138.002961 276.503838,138 276.532711,138 C278.78931,138 291.31758,155.801811 290.652002,157.121863 C289.695465,159.012727 268.558359,168.854992 266.215879,168.973449 C266.212177,168.974189 266.207735,168.974189 266.203293,168.974189" id="Fill-67" fill="#D4B376"></path>
        <path d="M256.070928,157 C256.070928,157 252.20554,159.393564 252.001202,160.557401 C251.904216,161.104522 257.702668,169.870314 259.667568,170.28195 C260.628547,170.484807 264.305145,166.991077 264.305145,166.991077" id="Fill-68" fill="#ED8F12"></path>
        <path d="M256.001024,155.763575 C256.089126,154.592335 272.70489,136.411462 274.451385,136.008709 C276.46811,135.544507 289.325837,153.785349 288.649154,155.120207 C287.695578,157.013292 266.558472,166.854818 264.215992,166.974015 C262.93666,167.039906 255.902557,157.060675 256.001024,155.763575" id="Fill-69" fill="#FFFFFF"></path>
        <path d="M274.310248,156.128393 C272.55783,157.429195 270.082087,157.06346 268.779804,155.311042 C267.479002,153.558624 267.842516,151.0814 269.594934,149.779858 C271.347352,148.478315 273.824576,148.84331 275.127599,150.595728 C276.429141,152.348145 276.062666,154.82537 274.310248,156.128393" id="Fill-70" fill="#ED8F12"></path>
        <path d="M270.024514,158.910901 C270.102991,158.377106 270.344346,157.969911 270.563491,158.001747 C270.781155,158.034322 270.894429,158.493342 270.815212,159.027137 C270.736734,159.560932 270.494638,159.968867 270.277715,159.936291 C270.060051,159.903716 269.946776,159.444696 270.024514,158.910901" id="Fill-71" fill="#ED8F12"></path>
        <path d="M272.024293,146.910164 C272.10351,146.376369 272.343385,145.969914 272.56253,146.001749 C272.781675,146.034325 272.894949,146.493344 272.815731,147.02714 C272.737253,147.560935 272.495898,147.967389 272.278234,147.936294 C272.059089,147.903719 271.947296,147.444699 272.024293,146.910164" id="Fill-72" fill="#ED8F12"></path>
        <path d="M277.909587,154.816346 C277.374311,154.737869 276.968597,154.497254 277.001913,154.278109 C277.033008,154.058964 277.492028,153.94569 278.025823,154.025648 C278.561099,154.103385 278.965332,154.344741 278.933497,154.562405 C278.902402,154.78155 278.442642,154.894824 277.909587,154.816346" id="Fill-73" fill="#ED8F12"></path>
        <path d="M265.910826,152.814481 C265.377031,152.737484 264.970577,152.496129 265.001672,152.278465 C265.034987,152.05932 265.494007,151.946046 266.027062,152.025263 C266.560857,152.10226 266.968792,152.343616 266.936216,152.56276 C266.903641,152.781905 266.444621,152.89592 265.910826,152.814481" id="Fill-74" fill="#ED8F12"></path>
        <path d="M275.343326,158.058813 C275.023493,157.624965 274.905036,157.167427 275.082721,157.036384 C275.260406,156.90312 275.66538,157.147437 275.986693,157.581284 C276.309488,158.013651 276.424983,158.472671 276.248038,158.603713 C276.071094,158.734756 275.66538,158.490439 275.343326,158.058813" id="Fill-75" fill="#ED8F12"></path>
        <path d="M267.344492,148.057808 C267.022438,147.625441 266.906202,147.166422 267.081666,147.035379 C267.259351,146.904336 267.662844,147.148653 267.984898,147.58102 C268.307692,148.014867 268.425409,148.472406 268.246983,148.603449 C268.070039,148.735232 267.665805,148.490915 267.344492,148.057808" id="Fill-76" fill="#ED8F12"></path>
        <path d="M277.058145,149.987302 C276.625778,150.309356 276.166018,150.425592 276.035716,150.249388 C275.903933,150.070222 276.14825,149.665989 276.580617,149.344675 C277.014464,149.022621 277.472003,148.904905 277.603045,149.08333 C277.736309,149.260275 277.491992,149.665248 277.058145,149.987302" id="Fill-77" fill="#ED8F12"></path>
        <path d="M267.059684,156.985662 C266.625837,157.306975 266.168298,157.426172 266.035034,157.247007 C265.904732,157.071543 266.149049,156.665829 266.582896,156.343775 C267.016003,156.022461 267.474282,155.906226 267.604585,156.081689 C267.737108,156.260855 267.492791,156.664348 267.059684,156.985662" id="Fill-78" fill="#ED8F12"></path>
        <path d="M143.621049,111.314293 C141.528808,111.314293 139.170781,110.984095 136.514391,110.245962 C124.064598,106.784067 113.452364,87.2624135 106.184309,69.5146479 L113.007412,66.7398011 C119.688366,82.7618016 128.638505,99.8876699 137.242159,102.71064 C139.053805,103.305144 140.65297,103.56945 142.061123,103.56945 C150.708457,103.56945 152.209155,93.6413034 152.085516,89.3605767 L159.211423,89.2465621 C159.946594,94.0906982 158.733894,111.314293 143.621049,111.314293 M102.293009,59.3777212 C98.8636892,49.8604708 96.6670589,42.1326559 96,39.7050352 C96.1280812,39.696151 96.2569028,39.6746807 96.3857244,39.6406244 L102.568421,38.0037018 C102.572863,38.0029614 102.576564,38.0014807 102.581007,38 C103.288045,40.2758481 105.628304,47.6416299 109.013942,56.6435939 L102.293009,59.3777212" id="Fill-79" fill="#D4B376"></path>
        <path d="M105.088975,70.0764909 L101,60.0202628 L112.14825,55.486335 C111.85507,57.3801605 112.055706,59.3754144 112.830116,61.2803452 C113.543817,63.0357245 114.660271,64.5053272 116.029926,65.6277038 L105.088975,70.0764909 M132.618297,58.8815983 C132.950716,56.9263235 132.968485,54.8785044 132.684189,52.9957842 C132.713803,52.7218532 132.892969,51.5076727 133.714762,51.5076727 C134.036075,51.5076727 134.455116,51.6927612 135.001497,52.1910194 C135.002237,52.1887984 135.002978,52.1865773 135.003718,52.1836159 C136.103884,53.6931976 137.51722,55.1094948 139.085289,56.251861 L132.618297,58.8815983 M155.67292,49.5064959 C155.870595,47.7466745 155.644787,45.9142984 154.930345,44.1589191 C154.155935,42.2547286 152.906958,40.6859186 151.375906,39.5331874 L162.524156,35 L166.613131,45.0569685 L155.67292,49.5064959" id="Fill-80" fill="#D4B376"></path>
        <path d="M95.0304584,40.6985046 C94.1338898,40.6985046 93.3135776,40.1002986 93.0700011,39.1941053 C92.779042,38.1117078 93.4216692,36.9967347 94.5048071,36.7057756 L100.686763,35.0695933 C100.862967,35.0222106 101.040652,35 101.215376,35 C102.111204,35 102.931516,35.598206 103.174352,36.5043993 C103.463831,37.5823547 102.827867,38.6921453 101.752873,38.9882869 C101.74843,38.9897676 101.744729,38.9912483 101.740287,38.9919887 L95.5575905,40.6289113 C95.4287689,40.6629676 95.2999473,40.6844379 95.171866,40.6933221 C95.1244834,40.6970239 95.0771007,40.6985046 95.0304584,40.6985046" id="Fill-81" fill="#D4B376"></path>
        <path d="M148.968783,89.5743045 C146.881725,89.5743045 145.172988,87.8988835 145.139672,85.8044221 L145.000485,77.1037821 C144.967169,74.9885908 146.653696,73.2450572 148.770368,73.2117412 L161.940525,73.0007404 C161.961255,73.0007404 161.981984,73 162.002714,73 C164.091253,73 165.79925,74.6754211 165.833306,76.7706228 L165.972492,85.4712628 C166.005808,87.5864541 164.318542,89.328507 162.20261,89.3633037 L158.790318,89.4173495 L151.664411,89.531364 L149.032453,89.5735642 C149.011723,89.5743045 148.990253,89.5743045 148.968783,89.5743045" id="Fill-82" fill="#D4B376"></path>
        <path d="M122.96953,68.73479 C120.426414,68.73479 117.961776,67.8441442 116.010203,66.2464603 C114.640548,65.1240837 113.524094,63.654481 112.810393,61.8991017 C112.035983,59.9941709 111.835347,57.998917 112.128527,56.1050915 C112.697119,52.4210901 115.132143,49.1198517 118.836134,47.6132313 C121.211189,46.6478097 123.49296,46 125.508944,46 C126.110852,46 126.689809,46.0577476 127.239892,46.1821271 C124.129665,52.8986184 130.524843,53.684134 132.301692,53.684134 C132.461609,53.684134 132.584507,53.6774708 132.659283,53.6685865 C132.659283,53.6685865 132.660023,53.6493373 132.664466,53.6145407 C132.948761,55.4972609 132.930993,57.54508 132.598574,59.5003548 C131.958908,63.2620934 130.153185,66.6810481 127.095523,67.9241024 C125.742896,68.4741854 124.344368,68.73479 122.96953,68.73479 M128.03133,46.4160789 C127.795898,46.3568506 127.5501,46.2835556 127.293938,46.1947131 C127.545658,46.2539414 127.792196,46.3272365 128.03133,46.4160789" id="Fill-83" fill="#D4B376"></path>
        <path d="M145.79924,58.6249994 C143.407896,58.6249994 140.868482,57.5537072 138.640017,55.9293706 C137.071947,54.7870044 135.658611,53.3707072 134.558445,51.8611254 C135.229946,49.6008247 133.921741,44.5856669 134.42148,43.9097237 C134.805723,43.3877741 134.21344,42.4726966 133.629301,42.4726966 C133.453837,42.4726966 133.279854,42.5541356 133.132523,42.7525504 C133.091064,42.8088173 133.047383,42.8754492 133,42.9494846 C134.269707,40.741749 136.968297,39.1255563 140.199942,37.8106876 C141.552569,37.2606046 142.950357,37 144.325935,37 C146.717279,37 149.039029,37.7877366 150.930633,39.210697 C152.461685,40.3634281 153.710662,41.9322382 154.485072,43.8364287 C155.199514,45.5918079 155.425322,47.424184 155.227648,49.1840054 C154.792319,53.0456918 152.313614,56.5549697 148.460072,58.122299 C147.612367,58.467304 146.716538,58.6249994 145.79924,58.6249994" id="Fill-84" fill="#D4B376"></path>
        <path d="M131.902076,53.2701904 C130.125226,53.2701904 123.730049,52.4846748 126.840276,45.7681835 C126.841016,45.7667028 126.842497,45.7644818 126.843237,45.7630011 C126.860265,45.7689239 126.877294,45.7748467 126.894322,45.7807695 C127.150484,45.869612 127.396282,45.9429071 127.631714,46.0021354 C128.169952,46.1361395 128.654143,46.1953678 129.090212,46.1953678 C131.547446,46.1953678 132.489177,44.3200511 133.025933,43.476788 C133.073316,43.4027526 133.116997,43.3361207 133.158457,43.2798538 C133.305787,43.0814389 133.47977,43 133.655234,43 C134.239374,43 134.831657,43.9150775 134.447413,44.4370271 C133.947674,45.1129703 135.25588,50.1281281 134.584379,52.3884288 C134.583638,52.3913902 134.582898,52.3936113 134.582157,52.3958324 C134.035776,51.8975741 133.616736,51.7124856 133.295422,51.7124856 C132.473629,51.7124856 132.294464,52.9266662 132.264849,53.2005971 C132.260407,53.2353938 132.259667,53.254643 132.259667,53.254643 C132.184891,53.2635272 132.061993,53.2701904 131.902076,53.2701904" id="Fill-85" fill="#D4B376"></path>
        <path d="M100.572122,35.2412822 C100.572122,35.2412822 118.674517,95.1751579 135.458342,100.681911 C149.714598,105.358727 150.751834,89.5499484 150.19879,86.0695443 C150.19879,86.0695443 155.76255,84.4962921 157.075938,86.0310459 C158.389326,87.564319 159.020848,114.970002 134.730574,108.215753 C111.040728,101.629564 94,36.8804259 94,36.8804259 C94,36.8804259 99.1291724,31.6927656 100.572122,35.2412822" id="Fill-86" fill="#EA5F1C"></path>
        <polyline id="Fill-87" fill="#AF3C18" points="164.613871 43.0569685 103.089715 68.0764909 99 58.0195224 160.523416 33 164.613871 43.0569685"></polyline>
        <path d="M102.174839,34.5048564 C102.465798,35.5865136 101.823171,36.7014867 100.740774,36.9924458 L94.5580774,38.6286281 C93.4741992,38.9203276 92.3607068,38.27696 92.0697477,37.1945624 C91.779529,36.1114246 92.4214159,34.9971918 93.5045537,34.7062327 L99.6865095,33.0700504 C100.769647,32.7790913 101.88314,33.4209782 102.174839,34.5048564" id="Fill-88" fill="#AF3C18"></path>
        <path d="M163.972471,83.4702885 C164.006527,85.5869605 162.319261,87.3290134 160.202589,87.3630697 L147.033172,87.5740706 C144.91724,87.6081269 143.174447,85.9201198 143.140391,83.8041881 L143.000464,75.1042885 C142.967888,72.9883568 144.655155,71.2455636 146.771087,71.2115073 L159.941244,71.0005064 C162.056435,70.9664501 163.799969,72.6544572 163.834025,74.7703889 L163.972471,83.4702885" id="Fill-89" fill="#AF3C18"></path>
        <path d="M123.748344,46.4709977 C122.222474,46.4709977 120.314582,46.9455646 117.917316,47.9198704 C115.757703,48.7979302 114.069696,50.4644671 113.163503,52.6129743 C112.25731,54.7614816 112.242503,57.1328353 113.119822,59.2924479 C114.465045,62.5996091 117.640423,64.7355304 121.20967,64.7355304 C122.335008,64.7355304 123.438876,64.5178663 124.49314,64.0899417 C128.580634,62.4271067 129.948808,54.3372587 127.98687,49.5123718 C127.119916,47.3801524 125.85243,46.4709977 123.748344,46.4709977 Z M121.20967,69.2057877 C115.81323,69.2057877 111.012034,65.9756233 108.979022,60.9767532 C107.651568,57.7110518 107.674519,54.1232964 109.044914,50.8753635 C110.414569,47.6266902 112.968049,45.1072657 116.233751,43.7790706 C119.175918,42.5819182 121.633152,42 123.748344,42 C127.679623,42 130.578109,44.0159839 132.12767,47.8280665 C133.441798,51.060452 133.706845,55.2952768 132.834708,59.1554824 C131.81376,63.6768242 129.44981,66.8995851 126.176705,68.2307415 C124.585684,68.8785512 122.913965,69.2057877 121.20967,69.2057877 Z" id="Fill-90" fill="#AF3C18"></path>
        <path d="M142.337903,37.4702573 C141.212565,37.4702573 140.107216,37.687181 139.053692,38.115846 C136.224059,39.2670964 134.354666,40.447961 133.3389,41.7272927 C132.64963,42.5957279 131.982572,43.8980106 132.953176,46.2841715 C134.521986,50.139935 139.605996,54.6235187 143.809726,54.624259 L143.810467,54.624259 C144.46568,54.624259 145.077212,54.5102445 145.628776,54.2851769 C147.788389,53.4078575 149.477136,51.7413206 150.383329,49.5928134 C151.288782,47.4450465 151.303589,45.072212 150.42627,42.9133398 C149.081047,39.6069189 145.906409,37.4702573 142.337903,37.4702573 Z M143.810467,59.093776 L143.808986,59.093776 C137.544851,59.0930357 130.99716,53.3404852 128.812376,47.9684768 C127.094755,43.7447573 128.421469,40.7315166 129.837766,38.9480039 C131.365857,37.0230835 133.759421,35.4439085 137.369387,33.9750462 C138.960408,33.3279768 140.632127,33 142.337903,33 C147.734343,33 152.534058,36.2294241 154.56707,41.2290345 C155.895265,44.4939955 155.871573,48.0824913 154.501919,51.3304242 C153.132264,54.5783571 150.578783,57.098522 147.313081,58.4274574 C146.224021,58.8694488 145.045377,59.093776 143.810467,59.093776 Z" id="Fill-91" fill="#AF3C18"></path>
        <path d="M126.538318,46.6219442 C126.43837,47.1557394 126.443552,47.6747276 126.678985,48.0441642 C127.051383,48.6275632 128.02791,48.9888559 128.963717,49.1576566 C129.401267,48.489117 130.016501,48.0167711 130.742788,47.8183563 C130.692444,47.1016936 130.608044,46.3598589 130.541412,45.7831232 C129.712956,46.2954481 128.660172,46.6663655 127.333458,46.6663655 C127.064709,46.6671058 126.808547,46.6515584 126.538318,46.6219442 Z M130.143101,53.7404477 C129.286512,53.7404477 124.91102,53.582012 122.911324,50.4503147 C121.64976,48.4750502 121.697883,45.9874609 123.056433,43.0571398 C123.542105,42.01176 124.742219,41.5060982 125.829799,41.8903419 C126.402833,42.0931989 126.908495,42.1953678 127.331977,42.1953678 C128.204114,42.1953678 128.605386,41.7718853 129.227283,40.7598214 C129.350923,40.5591855 129.467898,40.3696549 129.604864,40.1845664 C130.16235,39.4316264 130.99821,39 131.897,39 C133.035664,39 134.132869,39.7151819 134.691096,40.8220111 C135.122722,41.6778603 135.156778,42.6336573 134.808072,43.4428642 C134.819917,43.8485782 134.9095,44.6333534 134.979093,45.2315594 C135.210824,47.2645715 135.475131,49.5692934 134.965027,51.2735883 C134.744401,52.0095001 134.161002,52.5803131 133.420648,52.7861315 C133.060096,52.8853389 132.685477,52.8920021 132.332328,52.8120438 C131.979179,53.2991968 131.420212,53.630135 130.7687,53.7086125 C130.595458,53.7293424 130.385197,53.7404477 130.143101,53.7404477 Z" id="Fill-92" fill="#AF3C18"></path>
        <path d="M129.818119,49.4347623 C132.09915,55.0429437 130.704323,64.6431137 125.096141,66.9248847 C119.48722,69.2059153 113.091302,66.5073251 110.811011,60.8984033 C108.52924,55.2894816 111.22709,48.8943039 116.836012,46.6140136 C122.444934,44.332983 127.537089,43.8251002 129.818119,49.4347623" id="Fill-93" fill="#FFFFFF"></path>
        <path d="M131.652467,46.8908406 C133.933498,52.4997624 141.631699,58.4018643 147.24062,56.1208337 C152.848802,53.8405434 155.547392,47.4446254 153.265621,41.8357036 C150.985331,36.2267819 144.590153,33.5296723 138.980491,35.8107029 C133.37231,38.0917336 129.371437,41.2819189 131.652467,46.8908406" id="Fill-94" fill="#FFFFFF"></path>
        <path d="M130.259388,52.2549048 C130.259388,52.2549048 130.458543,49.4593281 132.581138,51.3968345 C133.257821,49.1402356 131.947395,44.1147128 132.447134,43.4372889 C132.947613,42.759865 131.798584,41.4168629 131.158177,42.280856 C130.517771,43.1441087 129.321359,46.3453993 124.842958,44.7632629 C121.445474,52.0905462 129.355415,52.3644772 130.259388,52.2549048" id="Fill-95" fill="#FFFFFF"></path>
        <g id="Group-100" transform="translate(252.000000, 174.058768)">
            <mask id="mask-6" fill="white">
                <use xlink:href="#path-5"></use>
            </mask>
            <g id="Clip-97"></g>
            <path d="M79.7250183,61.4493803 L8.89239165,61.4493803 C4.16078937,51.7988662 3.36787025,40.2619301 7.65526015,29.488299 C13.806121,14.0297079 28.639113,4.61314565 44.3205507,4.61314565 C49.1750517,4.61314565 54.1080303,5.5148968 58.8936784,7.41908723 C79.1379176,15.4741385 89.0157204,38.4162277 80.9614095,58.6567651 C80.5823482,59.610341 80.1692307,60.5424467 79.7250183,61.4493803" id="Fill-96" fill="#D4B376" mask="url(#mask-6)"></path>
            <path d="M76.520026,54.2168623 C68.4642343,74.4603612 45.5251066,84.340385 25.280127,76.2845934 C5.03810883,68.2280614 -4.84191503,45.2889337 3.21313627,25.0454348 C11.2681876,4.80415698 34.2080556,-5.07734759 54.4522949,2.97696335 C74.6950534,11.0334954 84.5743369,33.9718827 76.520026,54.2168623" id="Fill-98" fill="#EA5F1C" mask="url(#mask-6)"></path>
            <path d="M54.4522949,2.97696335 C50.4447588,1.38224088 46.3328328,0.493075751 42.2490402,0.245797521 C34.7603597,1.48292902 28.9226686,6.32632476 25.5133385,12.335778 C25.5133385,12.335778 60.0552938,3.5907168 78.7529336,32.9679627 C76.4963346,19.8829465 67.6920451,8.24606263 54.4522949,2.97696335 Z M25.1972074,13.9305005 C20.187232,47.5751468 42.3504687,69.6732323 61.5367421,72.5939288 C64.4322665,70.6956612 67.0901373,68.4094481 69.4237331,65.7715669 C70.9140656,18.0883284 25.1972074,13.9305005 25.1972074,13.9305005 Z M25.698427,2.81704689 C21.1837484,4.55687875 16.9948256,7.11702281 13.3707929,10.3953102 C14.8477991,10.7380941 19.7978058,11.8989692 23.2034341,12.8518047 C23.6624536,11.2792929 25.0572805,4.96703485 25.698427,2.81704689 Z M0.731469732,34.5952608 C-1.42592177,51.2695131 7.33838865,67.9208145 23.0390755,75.3095472 C1.74131256,39.5482289 23.8008997,14.713795 23.8008997,14.713795 C12.1440263,16.6831366 4.48062229,25.805038 0.731469732,34.5952608 Z" id="Fill-99" fill="#FFFFFF" mask="url(#mask-6)"></path>
        </g>
        <path d="M279.210365,189.179514 C278.4478,191.096291 276.274121,192.032838 274.356604,191.269533 C272.439087,190.506229 271.50254,188.33403 272.265845,186.415773 C273.02915,184.497516 275.202829,183.560968 277.119605,184.325013 C279.037862,185.087578 279.97367,187.260517 279.210365,189.179514" id="Fill-101" fill="#EA5F1C"></path>
        <path d="M37.3134736,35.8778578 L25.11244,35.8778578 C23.9352772,35.8778578 22.9802206,34.9235415 22.9802206,33.744898 L21.203371,4.13221946 C21.203371,2.95505663 22.1576873,2 23.3363308,2 L39.0895828,2 C40.267486,2 41.2218023,2.95505663 41.2218023,4.13221946 L39.4449527,33.744898 C39.4449527,34.9235415 38.4906365,35.8778578 37.3134736,35.8778578 M29.6352625,6.17115432 C22.1221503,6.96777521 22.5323064,15.5995623 22.6529841,19.0873699 C22.6848193,20.0128123 23.0957158,20.5688182 23.4858824,20.5688182 C23.819782,20.5688182 24.1381342,20.1631042 24.1929204,19.2347003 C24.1929204,19.2347003 23.5502931,8.3626021 30.4237395,8.3626021 C30.4985152,8.3626021 30.5740314,8.36408281 30.6510282,8.36704423 C34.061839,8.4832798 37.7265912,9.87736635 38.2004177,19.1465982 C38.2130037,19.3894343 38.7815956,20.1734691 39.2346922,20.1734691 C39.4886336,20.1734691 39.7055573,19.9276716 39.7692278,19.2050861 C40.0572255,15.948269 39.2983627,6.94704529 31.8437384,6.16597185 C31.8481806,6.1104453 31.8504016,6.05417839 31.8504016,5.99643078 L31.8504016,5.70251025 C31.8504016,4.83555574 31.3528837,4.13221946 30.7398706,4.13221946 C30.1268576,4.13221946 29.6285993,4.83555574 29.6285993,5.70251025 L29.6285993,5.99643078 C29.6285993,6.0556591 29.6308204,6.11414707 29.6352625,6.17115432" id="Fill-102" fill="#D4B376"></path>
        <path d="M23.0827939,20.4028463 C22.6926274,20.4028463 22.2817309,19.8468405 22.2498957,18.921398 C22.129218,15.4335904 21.7190619,6.80180336 29.2321741,6.00518248 C29.2943638,6.7899577 29.765229,7.40149008 30.3367822,7.40149008 C30.9090759,7.40149008 31.3806813,6.78773663 31.44065,6 C38.8952742,6.78107345 39.6541371,15.7822971 39.3661394,19.0391143 C39.3024689,19.7616998 39.0855452,20.0074973 38.8316038,20.0074973 C38.3785072,20.0074973 37.8099153,19.2234624 37.7973293,18.9806263 C37.3235027,9.7113945 33.6587505,8.31730796 30.2479397,8.20107238 C30.1709429,8.19811097 30.0954268,8.19663026 30.0206511,8.19663026 C23.1472047,8.19663026 23.789832,19.0687285 23.789832,19.0687285 C23.7350458,19.9971323 23.4166936,20.4028463 23.0827939,20.4028463" id="Fill-103" fill="#D4B376"></path>
        <path d="M30.3146424,7.43524247 C29.7430891,7.43524247 29.272224,6.82371008 29.2100342,6.03893486 C29.2055921,5.9819276 29.203371,5.92343964 29.203371,5.86421132 L29.203371,5.57029079 C29.203371,4.70333628 29.7016293,4 30.3146424,4 C30.9276554,4 31.4251733,4.70333628 31.4251733,5.57029079 L31.4251733,5.86421132 C31.4251733,5.92195893 31.4229523,5.97822583 31.4185101,6.03375238 C31.3585415,6.82148902 30.886936,7.43524247 30.3146424,7.43524247" id="Fill-104" fill="#D4B376"></path>
        <path d="M5.63682889,53.0065937 C4.82392022,53.0065937 4.04802925,52.5401707 3.69117863,51.7516937 L0.20337103,45.1196027 L0.20337103,25.4794924 C0.21447634,25.4750502 0.22558165,25.4706081 0.235946605,25.466166 C1.17989793,25.0782205 2.19122147,24.7843 3.25955226,24.7843 C5.76268907,24.7843 8.57529384,26.3967909 11.5529975,32.1819169 C11.6462821,32.3647844 12.2585549,32.734221 12.6961041,32.734221 C13.0685021,32.734221 13.3135593,32.4669532 13.0070528,31.5896338 C12.0653225,28.8947453 8.59380268,22.5358449 2.99154412,22.5358449 C2.17789509,22.5358449 1.31982483,22.669849 0.41733333,22.968952 C0.398084127,22.9163869 0.376613862,22.8638217 0.352922534,22.8112566 L0.232244835,22.5439888 C0.222620234,22.5232589 0.212995632,22.502529 0.20337103,22.4825394 L0.20337103,18.4942526 L5.30663101,16.1895306 C5.59092694,16.0614494 5.8892896,16 6.18246977,16 C6.99463809,16 7.77052906,16.466423 8.12663932,17.2549 L18.6974134,44.973753 C19.181605,46.0480066 18.704817,47.3103102 17.6320441,47.795242 L6.51266765,52.8178034 C6.22763136,52.9458847 5.93000907,53.0065937 5.63682889,53.0065937" id="Fill-105" fill="#D4B376"></path>
        <path d="M12.6961041,33.1983761 C12.2585549,33.1983761 11.6462821,32.8289394 11.5529975,32.646072 C8.57529384,26.860946 5.76268907,25.248455 3.25955226,25.248455 C2.19122147,25.248455 1.17989793,25.5423756 0.235946605,25.9303211 C0.22558165,25.9347632 0.21447634,25.9392053 0.20337103,25.9436474 L0.20337103,25.0211664 C0.553558463,24.6968913 0.645362356,24.0616676 0.41733333,23.4331071 C1.31982483,23.1340041 2.17789509,23 2.99154412,23 C8.59380268,23 12.0653225,29.3589003 13.0070528,32.0537888 C13.3135593,32.9311083 13.0685021,33.1983761 12.6961041,33.1983761" id="Fill-106" fill="#D4B376"></path>
        <path d="M0.404132083,25.0744719 L0.404132083,23 C0.413756685,23.0199896 0.423381287,23.0407195 0.433005889,23.0614494 L0.553683587,23.3287172 C0.577374915,23.3812823 0.59884518,23.4338474 0.618094384,23.4864126 C0.846123409,24.1149731 0.754319516,24.7501968 0.404132083,25.0744719" id="Fill-107" fill="#D4B376"></path>
        <path d="M37.4449527,31.744898 C37.4449527,32.9220608 36.4906365,33.8763771 35.3134736,33.8763771 L23.1131804,33.8763771 C21.9345369,33.8763771 20.9802206,32.9220608 20.9802206,31.744898 L19.203371,2.13147911 C19.203371,0.95431628 20.1576873,0 21.3355905,0 L37.0903232,0 C38.267486,0 39.2218023,0.95431628 39.2218023,2.13147911 L37.4449527,31.744898" id="Fill-108" fill="#ED8F12"></path>
        <path d="M21.7895716,17.1225204 C21.7895716,17.1225204 21.1328776,6.01128784 28.2484197,6.25412395 C31.6592305,6.37035952 35.3232423,7.76444607 35.7963285,17.0329375 C35.8155777,17.4127391 37.188194,19.1059287 37.3666193,17.0921659 C37.6709048,13.6465584 36.8032099,3.76727493 28.0699944,4.0041882 C19.6899277,4.23147687 20.1252558,13.3615222 20.2496353,16.9744496 C20.3088636,18.6913305 21.6711149,19.1355428 21.7895716,17.1225204" id="Fill-109" fill="#AF3C18"></path>
        <g id="Group-114" transform="translate(0.203371, 2.000000)">
            <mask id="mask-8" fill="white">
                <use xlink:href="#path-7"></use>
            </mask>
            <g id="Clip-111"></g>
            <path d="M29.080364,1.9900715 C29.080364,2.85702601 28.5828461,3.56036229 27.9690927,3.56036229 C27.3560796,3.56036229 26.859302,2.85702601 26.859302,1.9900715 L26.859302,1.69615097 C26.859302,0.829196458 27.3560796,0.125119823 27.9690927,0.125119823 C28.5828461,0.125119823 29.080364,0.829196458 29.080364,1.69615097 L29.080364,1.9900715" id="Fill-110" fill="#AF3C18" mask="url(#mask-8)"></path>
            <path d="M16.7171929,41.3347031 C17.2021247,42.407476 16.7253368,43.6705199 15.6510831,44.1554517 L4.53244707,49.1772728 C3.45893379,49.662945 2.19663026,49.1854167 1.7116984,48.1119034 L-12.097384,21.8559898 C-12.5823159,20.7824766 -12.1055279,19.5194327 -11.0320147,19.0345008 L3.32567008,12.5504807 C4.39844299,12.0648085 5.66148688,12.5415964 6.1471591,13.61585 L16.7171929,41.3347031" id="Fill-112" fill="#ED8F12" mask="url(#mask-8)"></path>
            <path d="M-3.15686937,34.3894424 C-3.15686937,34.3894424 -8.32898227,24.5338502 -1.74427398,21.8256353 C1.41185504,20.5277948 5.32536618,20.2901412 9.57203661,28.5421266 C9.74676015,28.879728 11.6946315,29.858476 11.0275725,27.9498435 C9.88594669,24.6834017 5.02922459,16.0375479 -2.83259433,19.8481498 C-10.376061,23.5040178 -6.22119449,31.6471712 -4.62054919,34.8877006 C-3.85872494,36.4283772 -2.43502424,36.2729029 -3.15686937,34.3894424" id="Fill-113" fill="#AF3C18" mask="url(#mask-8)"></path>
        </g>
    </g>
</svg>